<svg width="169" height="75" viewBox="0 0 169 75" fill="none" xmlns="http://www.w3.org/2000/svg">
<g clip-path="url(#clip0_1050_929)">
<path d="M50.0817 60.9987C49.5029 65.5332 47.3748 69.6818 45.1045 73.6781C45.0294 73.8142 44.9522 73.9482 44.8731 74.0843H21.2768C20.7995 73.9604 20.3285 73.8244 19.8594 73.6781C17.1942 72.8667 14.6782 71.6289 12.4089 70.0128C3.72782 63.7584 0.387344 51.9399 1.89616 41.35C2.83435 34.7707 5.7219 28.0533 11.3448 24.5098C14.3136 22.6355 18.1272 22.0263 21.5448 22.7228C21.6342 22.739 21.7236 22.7593 21.8149 22.7776C24.7553 23.4396 27.3748 25.0845 28.8654 27.7345C31.5458 32.4964 29.9497 38.3954 28.6319 43.6955C27.318 48.9955 26.6052 55.3393 30.4188 59.2483C29.1598 55.5423 30.4025 51.1216 33.41 48.6157C35.6823 46.7252 38.846 46.0165 41.7316 46.6034C42.0078 46.6622 42.2799 46.7293 42.5479 46.8105C43.1958 47.0002 43.8203 47.2617 44.41 47.5903C48.9079 50.1022 50.7295 55.8875 50.0817 60.9987Z" fill="#E6E6E6"/>
<path d="M36.0913 73.6787C36.7451 73.831 37.401 73.9651 38.061 74.0849H34.4931C34.026 73.959 33.561 73.8249 33.1001 73.6787C32.0868 73.362 31.089 72.9985 30.1069 72.5883C26.1674 70.9353 22.5386 68.4539 19.7932 65.152C18.4505 63.5523 17.354 61.7612 16.54 59.8378C15.6574 57.6639 15.0965 55.3729 14.875 53.0371C14.3774 48.2447 14.8851 43.3204 15.8334 38.6133C16.812 33.7347 18.3918 28.9962 20.5364 24.5063C20.7943 23.9682 21.061 23.4335 21.3365 22.9021C21.3554 22.8584 21.3841 22.8195 21.4204 22.7885C21.4566 22.7576 21.4994 22.7353 21.5456 22.7234C21.6393 22.7052 21.7365 22.7249 21.8157 22.7782C21.9108 22.8328 21.9813 22.9218 22.0127 23.0268C22.044 23.1319 22.0339 23.245 21.9843 23.3427C19.773 27.655 18.0968 32.2213 16.9929 36.94C15.9126 41.5436 15.2993 46.3603 15.5085 51.0937C15.7075 55.5165 16.863 59.8662 19.4845 63.4828C21.8787 66.7846 25.1845 69.388 28.8418 71.1607C31.1566 72.2683 33.5883 73.1129 36.0913 73.6787Z" fill="#494949"/>
<path d="M43.9216 74.0844H42.8697C42.7519 73.9504 42.6382 73.8144 42.5265 73.6783C40.1305 70.7672 38.5074 67.2988 37.8072 63.594C36.9569 58.9707 37.6184 54.1965 39.6937 49.9785C40.2727 48.7957 40.9549 47.6663 41.7325 46.6035C42.0086 46.6624 42.2808 46.7294 42.5488 46.8106C40.5036 49.5203 39.128 52.6751 38.5342 56.0177C38.0044 59.1497 38.1806 62.3606 39.0497 65.4159C39.9189 68.4712 41.4591 71.294 43.5581 73.6783C43.6758 73.8144 43.7977 73.9504 43.9216 74.0844Z" fill="#494949"/>
<path d="M138.679 70.6306C138.832 71.8273 139.393 72.9222 139.993 73.9769C140.012 74.0128 140.033 74.0482 140.054 74.0841H146.281C146.407 74.0514 146.531 74.0155 146.655 73.9769C147.359 73.7628 148.023 73.4361 148.622 73.0096C150.913 71.3589 151.794 68.2398 151.396 65.4449C151.148 63.7085 150.386 61.9357 148.902 61.0005C148.097 60.5097 147.135 60.3413 146.21 60.5289C146.187 60.5332 146.163 60.5385 146.139 60.5433C145.754 60.6177 145.389 60.7728 145.069 60.9983C144.748 61.2237 144.479 61.5145 144.278 61.8515C143.571 63.1083 143.992 64.6652 144.34 66.0639C144.687 67.4627 144.875 69.137 143.868 70.1686C144.016 69.7372 144.046 69.2742 143.955 68.8274C143.865 68.3805 143.656 67.9659 143.352 67.626C143.048 67.2862 142.659 67.0335 142.225 66.8938C141.791 66.7542 141.328 66.7326 140.883 66.8314C140.81 66.8469 140.738 66.8646 140.667 66.8861C140.496 66.9361 140.331 67.0052 140.176 67.0919C138.989 67.7548 138.508 69.2817 138.679 70.6306Z" fill="#B0BEC5"/>
<path d="M142.372 73.9771C142.2 74.0173 142.027 74.0527 141.853 74.0843H142.794C142.917 74.0511 143.04 74.0157 143.162 73.9771C143.429 73.8935 143.693 73.7976 143.952 73.6893C145.003 73.2625 145.937 72.5894 146.674 71.7268C147.028 71.3046 147.317 70.8319 147.532 70.3242C147.765 69.7505 147.913 69.1459 147.972 68.5294C148.079 67.255 147.993 65.9718 147.719 64.7227C147.461 63.4352 147.044 62.1846 146.478 60.9996C146.41 60.8576 146.339 60.7165 146.266 60.5762C146.261 60.5647 146.254 60.5544 146.244 60.5463C146.235 60.5381 146.223 60.5322 146.211 60.5291C146.187 60.5243 146.161 60.5295 146.14 60.5435C146.115 60.5579 146.096 60.5814 146.088 60.6092C146.08 60.6369 146.082 60.6667 146.095 60.6925C146.679 61.8306 147.121 63.0357 147.413 64.2811C147.713 65.5026 147.845 66.7594 147.805 68.0165C147.783 69.1858 147.418 70.3229 146.755 71.2862C146.11 72.1538 145.262 72.8497 144.286 73.3126C143.675 73.6049 143.033 73.8278 142.372 73.9771Z" fill="white"/>
<path d="M140.306 74.0847H140.583C140.614 74.0494 140.644 74.0135 140.674 73.9776C141.306 73.2093 141.735 72.2939 141.919 71.3161C142.144 70.096 141.969 68.8359 141.421 67.7227C141.269 67.4106 141.089 67.1125 140.883 66.832C140.811 66.8476 140.739 66.8652 140.668 66.8867C141.208 67.6018 141.571 68.4344 141.727 69.3166C141.867 70.1432 141.821 70.9906 141.591 71.797C141.362 72.6033 140.956 73.3483 140.402 73.9776C140.371 74.0135 140.338 74.0494 140.306 74.0847Z" fill="#494949"/>
<path d="M82.5488 43.1534H63.0583L62.8517 37.1608C62.8427 36.901 62.8902 36.6424 62.9908 36.4027C63.0913 36.163 63.2427 35.948 63.4343 35.7724C63.626 35.5968 63.8534 35.4648 64.1009 35.3855C64.3485 35.3062 64.6103 35.2816 64.8683 35.3131L76.2104 36.702H76.2118C77.8933 36.7065 79.5045 37.3774 80.6923 38.5676C81.8801 39.7578 82.5477 41.3703 82.5488 43.0518V43.1534Z" fill="#FFB74D" fill-opacity="0.447059"/>
<path d="M73.8609 21.8965H60.2672C60.0864 21.8964 59.9074 21.932 59.7404 22.0012C59.5733 22.0703 59.4215 22.1717 59.2937 22.2996C59.1659 22.4274 59.0645 22.5792 58.9953 22.7462C58.9262 22.9132 58.8906 23.0923 58.8906 23.2731V36.8667C58.8906 37.0475 58.9262 37.2265 58.9953 37.3936C59.0645 37.5606 59.1659 37.7124 59.2937 37.8402C59.4215 37.9681 59.5733 38.0694 59.7404 38.1386C59.9074 38.2078 60.0864 38.2433 60.2672 38.2433H73.8609C74.0417 38.2433 74.2207 38.2078 74.3877 38.1386C74.5548 38.0695 74.7065 37.9681 74.8344 37.8402C74.9622 37.7124 75.0636 37.5606 75.1328 37.3936C75.2019 37.2265 75.2375 37.0475 75.2374 36.8667V23.2731C75.2375 23.0923 75.2019 22.9132 75.1328 22.7462C75.0636 22.5792 74.9622 22.4274 74.8344 22.2996C74.7065 22.1717 74.5548 22.0703 74.3877 22.0012C74.2207 21.932 74.0417 21.8964 73.8609 21.8965Z" fill="#B0BEC5"/>
<path d="M70.7999 32.0613L64.3818 33.3112C64.001 33.3849 63.6067 33.3046 63.2851 33.0878C62.9635 32.8711 62.7411 32.5357 62.6665 32.1551L62.1732 29.6216C62.0995 29.2409 62.1798 28.8465 62.3965 28.525C62.6133 28.2034 62.9487 27.981 63.3292 27.9064L69.7474 26.6566C70.1281 26.5829 70.5225 26.6632 70.8441 26.8799C71.1656 27.0967 71.3881 27.4321 71.4626 27.8126L71.956 30.3461C72.0297 30.7268 71.9494 31.1212 71.7326 31.4428C71.5159 31.7643 71.1805 31.9868 70.7999 32.0613Z" fill="#1E2A47"/>
<path d="M69.515 29.0687L64.617 30.0225C64.5274 30.0399 64.4345 30.0211 64.3588 29.9701C64.2831 29.9191 64.2308 29.8401 64.2134 29.7505C64.1959 29.6609 64.2148 29.568 64.2658 29.4924C64.3168 29.4167 64.3958 29.3643 64.4854 29.3469L69.3835 28.3931C69.4731 28.3756 69.5659 28.3945 69.6416 28.4455C69.7173 28.4965 69.7696 28.5755 69.787 28.6651C69.8045 28.7547 69.7856 28.8475 69.7346 28.9232C69.6836 28.9989 69.6046 29.0512 69.515 29.0687Z" fill="white"/>
<path d="M68.5635 30.4808L66.03 30.9741C65.9405 30.9916 65.8476 30.9727 65.7719 30.9217C65.6962 30.8707 65.6439 30.7917 65.6265 30.7021C65.609 30.6125 65.6279 30.5197 65.6789 30.444C65.7299 30.3683 65.8089 30.316 65.8985 30.2985L68.432 29.8052C68.4763 29.7965 68.522 29.7967 68.5662 29.8057C68.6105 29.8147 68.6526 29.8323 68.6901 29.8576C68.7276 29.8829 68.7597 29.9152 68.7847 29.9529C68.8096 29.9906 68.8269 30.0328 68.8356 30.0772C68.8442 30.1215 68.844 30.1672 68.835 30.2115C68.826 30.2558 68.8084 30.2978 68.7831 30.3353C68.7579 30.3728 68.7255 30.4049 68.6878 30.4299C68.6501 30.4548 68.6079 30.4721 68.5635 30.4808Z" fill="white"/>
<path d="M75.2374 23.2731V25.0798H58.8906V23.2731C58.8906 23.0923 58.9262 22.9132 58.9953 22.7462C59.0645 22.5792 59.1659 22.4274 59.2937 22.2996C59.4215 22.1717 59.5733 22.0703 59.7404 22.0012C59.9074 21.932 60.0864 21.8964 60.2672 21.8965H73.8609C74.0417 21.8964 74.2207 21.932 74.3877 22.0012C74.5548 22.0703 74.7065 22.1717 74.8344 22.2996C74.9622 22.4274 75.0636 22.5792 75.1328 22.7462C75.2019 22.9132 75.2375 23.0923 75.2374 23.2731Z" fill="#B3B3B3"/>
<path d="M107.881 25.6459C107.787 25.3413 107.627 25.061 107.412 24.8249C107.198 24.5888 106.934 24.4026 106.64 24.2794C106.346 24.1561 106.029 24.0989 105.71 24.1117C105.391 24.1245 105.079 24.207 104.796 24.3534L86.0942 17.6436L85.2705 22.3155L103.913 27.442C104.19 27.9017 104.627 28.2436 105.139 28.4029C105.652 28.5623 106.206 28.528 106.695 28.3066C107.184 28.0852 107.575 27.6921 107.793 27.2017C108.012 26.7113 108.043 26.1577 107.881 25.6459Z" fill="#FFB8B8"/>
<path opacity="0.2" d="M107.881 25.6459C107.787 25.3413 107.627 25.061 107.412 24.8249C107.198 24.5888 106.934 24.4026 106.64 24.2794C106.346 24.1561 106.029 24.0989 105.71 24.1117C105.391 24.1245 105.079 24.207 104.796 24.3534L86.0942 17.6436L85.2705 22.3155L103.913 27.442C104.19 27.9017 104.627 28.2436 105.139 28.4029C105.652 28.5623 106.206 28.528 106.695 28.3066C107.184 28.0852 107.575 27.6921 107.793 27.2017C108.012 26.7113 108.043 26.1577 107.881 25.6459Z" fill="black"/>
<path d="M89.4135 18.4944L87.6475 23.1081C87.5972 23.2393 87.5193 23.3582 87.4189 23.4567C87.3186 23.5551 87.1982 23.6307 87.066 23.6785C86.9338 23.7262 86.7928 23.7448 86.6528 23.7332C86.5127 23.7215 86.3768 23.6798 86.2543 23.6108L81.9622 21.1951C81.2921 20.9342 80.7528 20.4182 80.4626 19.7602C80.1723 19.1023 80.1548 18.3561 80.4138 17.6852C80.6728 17.0144 81.1873 16.4736 81.8444 16.1815C82.5015 15.8894 83.2477 15.8697 83.9193 16.1269L88.7121 17.1898C88.8493 17.2203 88.9783 17.28 89.0904 17.3649C89.2025 17.4497 89.2949 17.5577 89.3615 17.6815C89.4281 17.8053 89.4672 17.942 89.4761 18.0823C89.4851 18.2225 89.4637 18.3631 89.4135 18.4944Z" fill="#FFFFAA"/>
<path d="M109.353 29.918L102.651 32.964L103.531 36.2762C105.23 42.6723 105.681 49.3358 104.859 55.9025L109.759 56.9257L113.82 46.5694L112.399 34.7916L109.353 29.918Z" fill="#FFB74D" fill-opacity="0.447059"/>
<path d="M122.502 45.249C118.099 45.249 114.511 48.4497 114.337 52.4579H130.667C130.493 48.4497 126.905 45.249 122.502 45.249Z" fill="#1E2A47"/>
<path d="M119.074 45.9402C118.845 27.8474 108.54 29.5119 108.54 29.5119C108.54 29.5119 108.733 35.1436 108.826 35.3187C115.392 47.7422 104.555 62.307 90.7611 59.6275C90.501 59.577 90.2511 59.5257 90.0115 59.4738C88.2637 59.1089 86.7205 58.0919 85.6958 56.6296C84.6711 55.1674 84.242 53.3698 84.4955 51.6024C85.8544 40.6905 79.0959 40.8836 79.0959 40.8836H69.2134L64.0812 36.2647C63.9001 36.1016 63.6817 35.9854 63.4453 35.9263C63.2089 35.8671 62.9616 35.8668 62.725 35.9253C62.4884 35.9838 62.2697 36.0994 62.0881 36.262C61.9065 36.4245 61.7675 36.6291 61.6833 36.8578L61.023 38.6499C61.023 38.6499 51.2759 39.6652 52.0881 49.2093H55.1016C55.0943 49.4805 55.1052 49.7518 55.1341 50.0216L77.6239 49.8387C78.9421 49.828 80.1058 50.8962 80.1112 52.2145C80.1126 52.5355 80.0492 52.8534 79.9248 53.1493C79.8005 53.4452 79.6177 53.7129 79.3875 53.9365C79.1572 54.1602 78.8843 54.3351 78.5849 54.4507C78.2855 54.5664 77.9659 54.6206 77.6451 54.6099L74.0193 54.489C72.9024 59.4641 75.6438 62.8147 78.6644 64.9215C81.5083 66.8764 84.883 67.9128 88.3339 67.8914H98.1841C110.977 67.8914 113.211 57.1289 113.211 57.1289C119.912 54.2859 119.074 45.9402 119.074 45.9402Z" fill="#1E2A47"/>
<path d="M121.892 73.7795C128.201 73.7795 133.315 68.6655 133.315 62.357C133.315 56.0486 128.201 50.9346 121.892 50.9346C115.584 50.9346 110.47 56.0486 110.47 62.357C110.47 68.6655 115.584 73.7795 121.892 73.7795Z" fill="#1E2A47"/>
<path d="M121.892 65.1569C123.439 65.1569 124.692 63.9034 124.692 62.3572C124.692 60.8111 123.439 59.5576 121.892 59.5576C120.346 59.5576 119.093 60.8111 119.093 62.3572C119.093 63.9034 120.346 65.1569 121.892 65.1569Z" fill="white"/>
<path d="M64.2218 73.7795C71.4835 73.7795 77.3703 67.8927 77.3703 60.6309C77.3703 53.3692 71.4835 47.4824 64.2218 47.4824C56.96 47.4824 51.0732 53.3692 51.0732 60.6309C51.0732 67.8927 56.96 73.7795 64.2218 73.7795Z" fill="#1E2A47"/>
<path d="M64.2217 63.8545C66.0015 63.8545 67.4444 62.4117 67.4444 60.6319C67.4444 58.852 66.0015 57.4092 64.2217 57.4092C62.4419 57.4092 60.999 58.852 60.999 60.6319C60.999 62.4117 62.4419 63.8545 64.2217 63.8545Z" fill="white"/>
<path d="M102.671 33.8635L100.259 27.3148C100.134 26.9735 100.077 26.6107 100.091 26.2473C100.106 25.8839 100.192 25.5269 100.344 25.1967C100.497 24.8665 100.713 24.5696 100.98 24.3229C101.247 24.0762 101.56 23.8846 101.902 23.7589L108.814 21.2143C109.414 20.9931 110.053 20.8924 110.692 20.9179C111.332 20.9434 111.96 21.0947 112.541 21.3629C113.122 21.6312 113.644 22.0113 114.078 22.4815C114.512 22.9517 114.85 23.5028 115.071 24.1033C115.27 24.6423 115.372 25.2125 115.372 25.7872C115.369 26.5169 115.204 27.2369 114.888 27.8948C114.572 28.5528 114.114 29.1321 113.546 29.5906C113.136 29.9196 112.675 30.1795 112.182 30.3601L102.671 33.8635Z" fill="#1E2A47"/>
<path d="M115.271 25.787C115.27 26.5019 115.109 27.2075 114.8 27.8521C114.491 28.4966 114.041 29.0635 113.484 29.5113C112.629 29.2857 111.833 28.8767 111.152 28.3126C110.471 27.7485 109.921 27.0429 109.541 26.2448C109.16 25.4466 108.958 24.5752 108.948 23.691C108.938 22.8068 109.121 21.931 109.483 21.1246C110.18 20.9732 110.901 20.9796 111.595 21.1435C112.289 21.3074 112.937 21.6246 113.492 22.0718C114.047 22.5189 114.495 23.0847 114.803 23.7277C115.111 24.3706 115.271 25.0742 115.271 25.787Z" fill="#FFB74D" fill-opacity="0.5"/>
<path d="M53.8146 50.5283C55.3847 50.5283 56.6575 48.9827 56.6575 47.0761C56.6575 45.1696 55.3847 43.624 53.8146 43.624C52.2445 43.624 50.9717 45.1696 50.9717 47.0761C50.9717 48.9827 52.2445 50.5283 53.8146 50.5283Z" fill="#FFB74D" fill-opacity="0.447059"/>
<path d="M91.394 59.2967H93.8835L95.068 52.8398L91.3936 52.84L91.394 59.2967Z" fill="#FFB8B8"/>
<path d="M90.7588 58.4836L95.6616 58.4834H95.6618C96.0721 58.4834 96.4784 58.5642 96.8575 58.7212C97.2365 58.8782 97.581 59.1084 97.8711 59.3985C98.1613 59.6886 98.3914 60.0331 98.5484 60.4121C98.7054 60.7912 98.7863 61.1975 98.7863 61.6078V61.7094L90.759 61.7096L90.7588 58.4836Z" fill="#2F2E41"/>
<path d="M94.2837 56.6462C94.2547 56.6462 94.2256 56.6448 94.1964 56.642L90.751 56.3911C90.6117 56.3782 90.4772 56.3335 90.3579 56.2603C90.2386 56.1872 90.1377 56.0876 90.0629 55.9693C89.9882 55.851 89.9416 55.7172 89.9268 55.578C89.912 55.4389 89.9293 55.2982 89.9775 55.1668L94.5884 44.8075C94.6214 44.7151 94.6348 44.6169 94.628 44.5191C94.6211 44.4213 94.5941 44.326 94.5485 44.2391C94.5032 44.1512 94.4397 44.074 94.3623 44.0124C94.2849 43.9508 94.1954 43.9063 94.0995 43.8818C91.9314 43.315 86.3684 41.8059 81.5528 40.0402C79.4897 39.2836 78.1903 38.1904 77.6908 36.7907C77.0322 34.9455 78.0065 33.2626 78.0482 33.192L78.0809 33.1367L82.6123 33.5486L87.5247 33.9664L98.2899 39.7391C99.192 40.227 99.8771 41.0366 100.209 42.007C100.541 42.9773 100.495 44.037 100.081 44.975L95.1175 56.1046C95.0457 56.2658 94.9288 56.4027 94.7808 56.4988C94.6328 56.5949 94.4602 56.6461 94.2837 56.6462Z" fill="#2F2E41"/>
<path d="M83.4006 13.0531C86.1551 13.0531 88.3881 10.8202 88.3881 8.06563C88.3881 5.31111 86.1551 3.07812 83.4006 3.07812C80.6461 3.07812 78.4131 5.31111 78.4131 8.06563C78.4131 10.8202 80.6461 13.0531 83.4006 13.0531Z" fill="#FFB8B8"/>
<path d="M89.9731 59.9051H92.4627L93.6471 53.4482L89.9727 53.4484L89.9731 59.9051Z" fill="#FFB8B8"/>
<path d="M89.3379 59.093L94.2407 59.0928H94.2409C94.6512 59.0928 95.0575 59.1736 95.4366 59.3306C95.8156 59.4876 96.1601 59.7177 96.4502 60.0079C96.7404 60.298 96.9705 60.6424 97.1275 61.0215C97.2845 61.4006 97.3654 61.8069 97.3654 62.2172V62.3187L89.3381 62.319L89.3379 59.093Z" fill="#2F2E41"/>
<path d="M92.8618 57.2555C92.8328 57.2555 92.8037 57.2542 92.7745 57.2514L89.3292 57.0005C89.1898 56.9876 89.0553 56.9428 88.936 56.8697C88.8167 56.7966 88.7158 56.697 88.6411 56.5787C88.5663 56.4604 88.5197 56.3265 88.5049 56.1874C88.4901 56.0483 88.5075 55.9076 88.5556 55.7762L93.1665 45.4168C93.1995 45.3245 93.2129 45.2263 93.2061 45.1285C93.1992 45.0307 93.1722 44.9353 93.1267 44.8485C93.0813 44.7606 93.0178 44.6833 92.9404 44.6218C92.863 44.5602 92.7735 44.5156 92.6777 44.4911C90.5095 43.9244 84.9465 42.4153 80.1309 40.6495C78.0678 39.893 76.7684 38.7997 76.2689 37.4001C75.6103 35.5548 76.5846 33.872 76.6264 33.8014L76.6591 33.7461L81.1904 34.158L86.1028 34.5758L96.868 40.3485C97.7701 40.8363 98.4553 41.646 98.7871 42.6163C99.119 43.5866 99.0732 44.6464 98.6588 45.5844L93.6957 56.714C93.6239 56.8752 93.5069 57.0121 93.3589 57.1082C93.2109 57.2043 93.0383 57.2555 92.8618 57.2555Z" fill="#2F2E41"/>
<path d="M84.939 15.8823L79.6593 14.0547C79.6593 14.0547 76.3449 16.6011 77.9371 22.9182C78.7683 26.1781 78.5262 29.6191 77.2467 32.7304C77.0926 33.1154 76.915 33.4905 76.7148 33.8536C76.7148 33.8536 82.6038 40.9609 88.0865 35.6812L85.9543 25.4264C85.9543 25.4264 89.3049 18.6237 84.939 15.8823Z" fill="#FFA726"/>
<path d="M84.0191 13.223C83.3092 12.1605 82.749 10.6872 83.5305 9.67622C84.302 8.67832 85.8236 8.82534 87.0051 8.38378C88.6508 7.76876 89.6052 5.83544 89.3075 4.10403C89.0099 2.37262 87.62 0.937334 85.9642 0.350061C84.3085 -0.237212 82.4414 -0.0462171 80.8199 0.630064C78.8239 1.46257 77.1117 3.07301 76.3937 5.113C75.6758 7.153 76.0596 9.6024 77.549 11.1704C79.1459 12.8514 81.6521 13.2994 83.9705 13.2723" fill="black"/>
<path d="M79.3799 4.15928C78.4854 4.88745 77.1208 4.56403 76.1606 3.92497C75.2004 3.28591 74.4213 2.37593 73.3824 1.87488C71.5509 0.991557 69.3366 1.57877 67.5541 2.55721C65.7716 3.53565 64.1915 4.88739 62.3087 5.65522C60.4258 6.42304 58.0232 6.46099 56.5975 5.01117C56.2466 6.02768 56.2179 7.12769 56.5153 8.16111C56.8127 9.19452 57.4217 10.111 58.2592 10.7855C59.0967 11.4601 60.122 11.8598 61.195 11.9301C62.2681 12.0004 63.3367 11.738 64.2551 11.1786C66.3181 9.92192 67.4577 7.28708 69.7716 6.59348C71.052 6.20967 72.4269 6.5188 73.721 6.85362C75.0151 7.18844 76.3645 7.55022 77.6705 7.26519C78.9765 6.98015 80.1981 5.80654 80.0319 4.48019L79.3799 4.15928Z" fill="black"/>
<path d="M107.633 25.4425C107.502 25.1518 107.308 24.8935 107.066 24.6857C106.825 24.4778 106.54 24.3255 106.233 24.2395C105.926 24.1535 105.604 24.1359 105.289 24.1879C104.974 24.24 104.675 24.3603 104.412 24.5406L85.0251 20.1895L84.7842 24.9274L103.916 27.7146C104.249 28.1365 104.724 28.4219 105.252 28.5168C105.781 28.6117 106.326 28.5094 106.784 28.2293C107.242 27.9493 107.581 27.5109 107.738 26.9973C107.894 26.4836 107.857 25.9304 107.633 25.4425Z" fill="#FFB8B8"/>
<path d="M88.4242 20.6252L87.2409 25.4215C87.2073 25.558 87.1446 25.6856 87.0572 25.7957C86.9697 25.9057 86.8596 25.9956 86.7343 26.0593C86.609 26.123 86.4714 26.1589 86.3309 26.1646C86.1905 26.1703 86.0505 26.1456 85.9204 26.0923L81.3631 24.2246C80.6654 24.0488 80.0661 23.6033 79.6964 22.9861C79.3268 22.3688 79.2172 21.6302 79.3915 20.9321C79.5659 20.2341 80.0101 19.6338 80.6266 19.2629C81.243 18.892 81.9815 18.7807 82.6798 18.9536L87.5672 19.4171C87.7071 19.4305 87.8425 19.4738 87.9642 19.5441C88.0859 19.6145 88.191 19.7103 88.2723 19.8249C88.3536 19.9395 88.4093 20.0704 88.4355 20.2085C88.4617 20.3466 88.4579 20.4887 88.4242 20.6252Z" fill="#FFB74D" fill-opacity="0.447059"/>
<path d="M105.393 29.2072C106.178 29.2072 106.815 28.5708 106.815 27.7857C106.815 27.0007 106.178 26.3643 105.393 26.3643C104.608 26.3643 103.972 27.0007 103.972 27.7857C103.972 28.5708 104.608 29.2072 105.393 29.2072Z" fill="#FFB74D" fill-opacity="0.447059"/>
<path d="M168.342 73.8818C168.342 73.9356 168.32 73.9871 168.282 74.0252C168.244 74.0632 168.192 74.0847 168.139 74.0848H0.203066C0.14921 74.0848 0.0975588 74.0634 0.0594765 74.0254C0.0213942 73.9873 0 73.9356 0 73.8818C0 73.8279 0.0213942 73.7763 0.0594765 73.7382C0.0975588 73.7001 0.14921 73.6787 0.203066 73.6787H168.139C168.192 73.6789 168.244 73.7003 168.282 73.7384C168.32 73.7764 168.342 73.828 168.342 73.8818Z" fill="#1E2A47"/>
</g>
<defs>
<clipPath id="clip0_1050_929">
<rect width="168.342" height="74.0844" fill="white"/>
</clipPath>
</defs>
</svg>
