<svg width="228" height="161" viewBox="0 0 228 161" fill="none" xmlns="http://www.w3.org/2000/svg">
<path d="M66.114 147.974H207.056C220.037 125.647 225.496 99.0203 222.309 73.3857C221.24 64.7865 219.16 56.1298 214.553 48.7912C209.947 41.4526 202.508 35.5425 193.923 34.3585C182.884 32.8391 172.473 39.0368 161.913 42.5887C146.133 47.8949 128.724 47.3197 112.724 42.7181C95.2285 37.6899 78.5238 27.9115 60.3284 28.5155C43.7771 29.0667 28.2516 38.639 18.4637 52.0027C8.67573 65.3617 4.2515 82.1287 3.82011 98.6848C3.38871 115.241 6.73923 131.687 11.3312 147.6L66.114 147.974Z" fill="#FFD69A"/>
<path d="M34.5499 32.7433C39.6499 29.455 45.378 27.0057 51.4079 26.3202C53.4211 26.0901 55.789 25.8744 56.8388 24.1393C57.7111 22.6965 57.1887 20.7216 56.0143 19.5041C54.8447 18.2914 53.1767 17.6923 51.5374 17.2896C43.221 15.2477 34.2335 17.3472 26.9333 21.8289C24.2251 23.4922 21.6846 25.4958 19.7529 28.0219C17.8212 30.5431 16.5222 33.6252 16.4599 36.8032C16.4264 38.4569 16.7427 40.1489 17.572 41.5773C18.2718 42.7805 19.5708 44.3622 21.0855 43.7775C22.5858 43.1975 24.0813 41.0692 25.2652 39.9955C28.1844 37.3544 31.2473 34.8763 34.5499 32.7433Z" fill="#FFD69A"/>
<path d="M175.531 160.197H174.682L188.123 147.95H188.971L175.531 160.197Z" fill="#F58249"/>
<path d="M132.827 160.888L133.589 160.197H175.53L174.773 160.888H132.827Z" fill="#F58249"/>
<path d="M188.122 147.95L177.409 157.714L174.682 160.197H133.589L139.82 154.517L147.025 147.95H188.122Z" fill="#D35A3B"/>
<path opacity="0.5" d="M177.409 157.714L174.682 160.197H133.589L139.825 154.517C143.271 153.77 146.953 153.76 150.509 153.818C156.98 153.923 163.485 154.139 169.845 155.342C172.419 155.826 175.065 156.55 177.409 157.714Z" fill="#D35A3B"/>
<path d="M205.987 0H131.092V143.981H205.987V0Z" fill="#1E2A47"/>
<path d="M201.855 5.67529H135.219V143.981H201.855V5.67529Z" fill="white"/>
<path opacity="0.5" d="M201.855 124.943H135.219V143.982H201.855V124.943Z" fill="#1F4F57"/>
<path d="M160.901 129.75L201.875 143.981V5.67529L160.901 10.1139V129.75Z" fill="#E6E6E6"/>
<path d="M163.37 27.0967V15.6838L198.586 12.6736V25.5484L198.404 25.558L163.37 27.0967ZM163.753 16.0385V26.6988L198.203 25.1841V13.0906L163.753 16.0385Z" fill="#1E2A47"/>
<path d="M198.586 137.674L198.337 137.592L163.37 126.074V95.1809L198.586 102.73V137.674ZM163.753 125.796L198.203 137.146V103.037L163.753 95.6507V125.796Z" fill="#1E2A47"/>
<path d="M198.586 90.3156L180.956 87.2862V31.9618L198.586 31.564V90.3156ZM181.34 86.965L198.202 89.8602V31.957L181.34 32.3405V86.965Z" fill="#1E2A47"/>
<path d="M178.862 86.9317L163.365 84.2715V32.3599L178.862 32.01V86.9317ZM163.753 83.9455L178.483 86.4764V32.4031L163.753 32.7338V83.9455Z" fill="#1E2A47"/>
<path d="M186.009 96.0148L174.083 93.6421V89.1077L186.009 91.303V96.0148ZM174.466 93.3258L185.625 95.5451V91.6146L174.466 89.5582V93.3258Z" fill="#1E2A47"/>
<path d="M1.96973 147.85H221.038" stroke="#1C484F" stroke-width="0.246137" stroke-miterlimit="10"/>
<path opacity="0.5" d="M51.9499 147.337L31.3482 159.637H0L23.5112 146.311L51.9499 147.337Z" fill="url(#paint0_linear_553_1219)"/>
<path d="M51.95 118.337V120.71H16.5322L22.2794 118.774L23.564 118.337H51.95Z" fill="#C7762F"/>
<path d="M47.2915 120.71H16.5376V150.035H47.2915V120.71Z" fill="#FFA726"/>
<path d="M30.8456 145.41H17.9229V147.207H30.8456V145.41Z" fill="#C7762F"/>
<path d="M26.5939 143.325H17.9229V144.634H26.5939V143.325Z" fill="#C7762F"/>
<path d="M44.9189 124.943C44.9189 126.242 43.8644 127.296 42.5654 127.296C41.2664 127.296 40.2119 126.242 40.2119 124.943C40.2119 123.644 41.2664 122.589 42.5654 122.589C43.8644 122.589 44.9189 123.644 44.9189 124.943Z" fill="#C7762F"/>
<path d="M16.5318 150.033H17.9219L17.9219 120.708H16.5318L16.5318 150.033Z" fill="#FFA726"/>
<path d="M51.9505 118.337V147.337L47.2866 150.036V120.71L48.5329 120.077L51.9505 118.337Z" fill="#410030"/>
<path opacity="0.5" d="M51.9506 141.896V147.332L47.2915 150.03V120.705L48.5378 120.072C48.4179 124.53 48.6097 128.997 49.1178 133.426C49.3574 135.516 49.6786 137.63 50.527 139.552C50.8913 140.396 51.3658 141.192 51.9506 141.896Z" fill="#410030"/>
<path opacity="0.5" d="M51.9504 118.337V118.663C38.6346 120.374 27.3847 119.416 22.2798 118.769L23.5644 118.333H51.9504V118.337Z" fill="#C7762F"/>
<path d="M47.2863 97.3955V99.1451H21.1963L25.4288 97.7167L26.3731 97.3955H47.2863Z" fill="#C7762F"/>
<path d="M43.8543 99.1448H21.1963V120.748H43.8543V99.1448Z" fill="#FFA726"/>
<path d="M31.7368 117.345H22.2173V118.673H31.7368V117.345Z" fill="#C7762F"/>
<path d="M28.6068 115.806H22.2173V116.77H28.6068V115.806Z" fill="#C7762F"/>
<path d="M42.1048 102.26C42.1048 103.219 41.3283 103.991 40.3744 103.991C39.4206 103.991 38.644 103.214 38.644 102.26C38.644 101.302 39.4206 100.53 40.3744 100.53C41.3283 100.53 42.1048 101.307 42.1048 102.26Z" fill="#C7762F"/>
<path d="M21.1978 120.748H22.2188L22.2188 99.1446H21.1978L21.1978 120.748Z" fill="#FFA726"/>
<path d="M47.286 97.3955V118.759L43.854 120.749V99.1451L44.7695 98.6801L47.286 97.3955Z" fill="#410030"/>
<path opacity="0.5" d="M47.286 114.757V118.764L43.854 120.753V99.1498L44.7695 98.6848C44.6832 101.973 44.8223 105.261 45.1961 108.525C45.3735 110.064 45.6084 111.622 46.2315 113.041C46.5095 113.65 46.8594 114.234 47.286 114.757Z" fill="#410030"/>
<path opacity="0.5" d="M47.2861 97.3954V97.6351C37.4742 98.8957 29.1866 98.1911 25.4238 97.7118L26.3681 97.3906H47.2861V97.3954Z" fill="#C7762F"/>
<path d="M181.671 79.3342C183.407 81.1653 185.027 83.1114 186.527 85.1437C188.023 87.1809 189.393 89.3091 190.659 91.4997C193.19 95.8855 195.251 100.53 196.972 105.285C198.664 110.055 200.025 114.939 201.127 119.871C201.679 122.34 202.172 124.818 202.628 127.301C203.069 129.789 203.471 132.281 203.855 134.778L203.16 134.889C202.752 132.401 202.321 129.918 201.851 127.445C201.391 124.967 200.897 122.498 200.351 120.044C199.253 115.135 197.964 110.265 196.31 105.515C194.685 100.76 192.686 96.1252 190.271 91.7153C189.067 89.5056 187.749 87.3582 186.316 85.2923C184.892 83.2168 183.344 81.2228 181.671 79.3342Z" fill="#1C2540"/>
<path d="M195.672 61.8484C198.007 67.4805 200.341 73.1223 202.091 78.9749C202.532 80.4368 202.929 81.9084 203.279 83.3943C203.461 84.1373 203.615 84.885 203.773 85.6328C203.917 86.3805 204.041 87.1379 204.176 87.8857C204.665 90.9006 205.01 93.9396 205.168 96.9881C205.527 103.085 205.403 109.197 205.379 115.289C205.369 118.338 205.384 121.381 205.489 124.42C205.609 127.459 205.829 130.493 206.198 133.508L205.499 133.595C205.158 130.551 204.967 127.498 204.871 124.444C204.794 121.391 204.808 118.338 204.847 115.284C204.933 109.187 205.115 103.09 204.813 97.0073C204.684 93.9636 204.367 90.9342 203.912 87.9288C203.783 87.181 203.668 86.4285 203.533 85.6759C203.385 84.9282 203.236 84.1852 203.064 83.4422C202.728 81.9563 202.345 80.4848 201.923 79.0228C200.231 73.1702 197.954 67.5045 195.672 61.8484Z" fill="#1C2540"/>
<path d="M224.322 80.4653C212.559 95.1329 206.649 114.282 208.058 132.938L207.354 132.986C206.17 114.129 212.377 94.9795 224.322 80.4653Z" fill="#1C2540"/>
<path d="M210.354 149.072H198.452C197.326 149.072 196.387 148.214 196.281 147.097L194.939 132.967H213.863L212.521 147.097C212.42 148.214 211.476 149.072 210.354 149.072Z" fill="#FF4846"/>
<path opacity="0.5" d="M213.47 137.151L213.863 132.967H194.939L195.337 137.151H213.47Z" fill="#871A1A"/>
<path d="M215.042 130.143H193.765V134.021H215.042V130.143Z" fill="#FF4846"/>
<path d="M226.785 83.5573C226.119 84.7652 225.055 85.6999 224.082 86.6825C223.598 87.1714 223.133 87.6795 222.687 88.202C220.928 90.2583 219.471 92.5687 218.363 95.042C217.553 96.8491 216.93 98.7425 216.518 100.684C216.484 100.837 216.456 100.991 216.422 101.144C215.904 103.785 215.708 106.498 214.927 109.082C214.754 109.647 214.438 110.491 214.006 111.373C213.024 113.386 211.437 115.601 209.625 115.126C209.4 115.073 209.17 114.973 208.94 114.824C208.48 114.536 208.106 114.139 207.804 113.674C206.716 111.996 206.534 109.398 206.682 107.428C206.711 107.04 206.754 106.68 206.802 106.354C207.142 104.13 207.933 102.016 208.772 99.9168C209.127 99.0301 209.501 98.1385 209.846 97.247C210.493 95.5837 211.073 93.8869 211.696 92.214C212.343 90.4644 213.028 88.7293 213.877 87.0708C214.538 85.767 215.32 84.5016 216.226 83.3464C217.582 81.616 219.217 80.1301 221.177 79.1474C222.097 78.6873 223.104 78.3374 224.135 78.3517C225.165 78.3709 226.224 78.7927 226.828 79.6268C227.638 80.7532 227.452 82.3446 226.785 83.5573Z" fill="#1E2A47"/>
<path opacity="0.19" d="M226.786 83.5573C226.119 84.7653 225.055 85.7 224.082 86.6826C223.598 87.1715 223.133 87.6796 222.687 88.2021C222.309 88.389 221.93 88.5855 221.556 88.7964C220.118 89.6305 218.757 90.848 218.378 92.4681C218.182 93.3069 218.263 94.1745 218.359 95.0373C217.549 96.8444 216.926 98.7378 216.514 100.679C216.48 100.832 216.451 100.986 216.418 101.139C215.32 102.405 214.098 103.617 213.618 105.19C213.244 106.426 213.369 107.749 213.59 109.019C213.724 109.801 213.892 110.577 213.997 111.363C213.014 113.377 211.428 115.591 209.616 115.116C209.391 115.064 209.161 114.963 208.931 114.815C208.47 114.527 208.096 114.129 207.795 113.664C206.706 111.986 206.524 109.388 206.673 107.418C207.454 106.58 208.432 105.889 208.94 104.864C209.702 103.335 209.213 101.633 208.763 99.9073C209.117 99.0206 209.491 98.129 209.836 97.2375C210.484 95.5742 211.064 93.8773 211.687 92.2045C212.995 91.3177 214.352 90.4405 215.104 89.108C215.943 87.6125 215.876 85.8006 216.097 84.099C216.13 83.8449 216.168 83.5909 216.216 83.3369C217.573 81.6065 219.207 80.1205 221.168 79.1379C222.088 78.6778 223.095 78.3278 224.125 78.3422C225.156 78.3614 226.215 78.7832 226.819 79.6172C227.639 80.7533 227.452 82.3446 226.786 83.5573Z" fill="#1E2A47"/>
<path d="M208.758 91.14C208.653 93.206 208.969 95.2671 209.084 97.333C209.103 97.726 209.122 98.1143 209.122 98.5074V98.5121C209.137 100.199 208.94 101.896 208.226 103.411C207.33 105.319 204.693 107.969 202.69 106.066C201.937 105.357 201.4 104.461 201.027 103.478C200.37 101.762 200.207 99.7872 200.26 98.0807C200.332 95.732 200.739 93.3689 200.705 91.0298C200.701 90.3252 200.653 89.6206 200.542 88.9207C200.418 88.1202 200.217 87.3437 199.962 86.5864C198.568 82.4594 195.505 78.9123 193.75 74.8476C193.367 73.9608 193.051 73.0405 192.796 72.1106C192.006 69.1771 191.857 66.071 192.384 63.08C192.456 62.663 192.542 62.2508 192.643 61.8433C193.079 60.0458 194.052 58.0518 195.816 57.6348C195.883 57.6156 195.955 57.6013 196.022 57.5917C197.973 57.2801 199.603 59.0201 200.71 60.6594C202 62.5623 203.136 64.5707 204.219 66.6031C204.698 67.4946 205.163 68.391 205.628 69.2873C207.076 72.0675 208.543 74.9482 209.333 77.9488C209.333 77.9488 209.333 77.9489 209.338 77.9536C209.731 79.454 209.961 80.983 209.928 82.5456V82.6463C209.856 85.4983 208.907 88.2784 208.758 91.14Z" fill="#1E2A47"/>
<path opacity="0.19" d="M208.883 97.5966C208.969 97.8986 209.051 98.2006 209.128 98.5074V98.5121C209.142 100.199 208.945 101.896 208.231 103.411C207.335 105.319 204.699 107.969 202.695 106.066C201.942 105.357 201.406 104.461 201.032 103.478C201.559 103.425 202.043 103.234 202.465 102.845C203.155 102.198 203.481 101.249 203.582 100.305C203.922 97.0502 201.856 94.1406 200.715 91.0298C200.71 90.3252 200.663 89.6206 200.552 88.9207C200.428 88.1202 200.226 87.3437 199.972 86.5864C200.02 83.5522 200.768 80.403 199.225 77.853C197.724 75.3844 194.537 74.4066 192.811 72.1106C192.02 69.1771 191.872 66.071 192.399 63.08C192.471 62.8691 192.543 62.6582 192.619 62.4569C193.104 61.1579 193.669 59.8637 194.556 58.7996C194.925 58.3586 195.352 57.9608 195.826 57.6348C195.893 57.6156 195.965 57.6013 196.032 57.5917C197.983 57.2801 199.613 59.0201 200.72 60.6594C202.009 62.5623 203.146 64.5707 204.229 66.6031C204.238 66.9866 204.248 67.37 204.262 67.7535C204.339 70.1166 204.622 72.6091 206.021 74.512C206.832 75.6049 207.948 76.4246 208.878 77.412C209.041 77.5798 209.195 77.7619 209.343 77.9488C209.343 77.9488 209.343 77.9489 209.348 77.9536C209.741 79.454 209.971 80.983 209.938 82.5456C209.688 83.0346 209.382 83.4995 209.108 83.974C207.833 86.1886 207.244 88.7961 207.44 91.3462C207.603 93.4792 208.303 95.5307 208.883 97.5966Z" fill="#1E2A47"/>
<path d="M202.431 108.875C202.421 109.067 202.407 109.264 202.388 109.455C202.244 111.056 201.904 114.805 199.842 115.174C198.381 115.433 196.257 112.868 195.092 112.058C194.44 111.607 193.769 111.157 193.132 110.673C192.111 109.906 191.162 109.053 190.462 107.965C189.824 106.968 189.46 105.865 189.225 104.715C188.847 102.888 188.784 100.938 188.444 99.0921C188.291 98.2677 188.085 97.4624 187.826 96.6715C186.881 93.7763 185.28 91.1161 183.421 88.6283C183.421 88.6283 183.421 88.6283 183.416 88.6283C182.5 87.3964 181.522 86.2077 180.525 85.0525C180.18 84.6547 179.83 84.2424 179.49 83.8158C178.321 82.3251 177.333 80.6762 177.51 78.8452C177.745 76.4725 180.084 74.6558 182.467 74.5456C184.849 74.4305 187.126 75.7439 188.679 77.5558C189.125 78.0687 189.513 78.6247 189.863 79.2047C190.74 80.6523 191.368 82.2676 191.9 83.8877C192.279 85.0429 192.624 86.2077 193.002 87.3629C193.372 88.4701 193.769 89.5726 194.277 90.6223C194.79 91.7008 195.409 92.717 196.065 93.714C197.422 95.7656 198.956 97.7116 200.168 99.8255C200.629 100.621 201.041 101.441 201.376 102.299C202.21 104.384 202.551 106.642 202.431 108.875Z" fill="#1E2A47"/>
<path opacity="0.19" d="M202.431 108.876C202.422 109.067 202.407 109.264 202.388 109.456C202.244 111.056 201.904 114.805 199.843 115.174C198.381 115.433 196.258 112.868 195.093 112.058C194.441 111.608 193.77 111.157 193.132 110.673C193.382 109.455 193.607 108.166 193.032 107.083C192.322 105.741 190.712 105.285 189.226 104.715C188.847 102.889 188.785 100.938 188.445 99.0924C188.291 98.2679 188.085 97.4626 187.826 96.6717C188.248 95.8569 188.646 95.0324 188.905 94.1505C189.427 92.3817 189.202 90.1864 187.697 89.1175C186.594 88.3362 185.123 88.3697 183.785 88.571C183.666 88.5902 183.541 88.6094 183.416 88.6334C183.416 88.6334 183.416 88.6334 183.412 88.6334C182.496 87.4015 181.518 86.2127 180.521 85.0576C180.176 84.6597 179.826 84.2475 179.486 83.8209C181.312 82.3829 183.368 81.2181 185.54 80.3889C186.877 79.876 188.262 79.4925 189.676 79.2433C189.739 79.2337 189.796 79.2241 189.859 79.2097C190.736 80.6573 191.364 82.2726 191.896 83.8928C192.274 85.048 192.62 86.2127 192.998 87.3679C192.83 87.761 192.672 88.1588 192.548 88.5663C192.083 90.0953 192.207 91.9983 193.473 92.9713C194.201 93.5321 195.117 93.6615 196.061 93.7191C197.418 95.7706 198.951 97.7167 200.164 99.8305C199.781 100.693 199.316 101.523 198.971 102.4C198.458 103.718 198.242 105.295 198.99 106.493C199.738 107.668 201.195 108.185 202.431 108.876Z" fill="#1E2A47"/>
<path d="M45.8909 48.7816V49.8697H44.9227V48.8104C43.964 48.7529 43.0389 48.4509 42.5068 48.0339L43.0389 46.8499C43.523 47.2094 44.2228 47.4731 44.9227 47.5402V45.92C43.8442 45.6564 42.641 45.2969 42.641 43.9116C42.641 42.8811 43.3888 41.9991 44.9227 41.8265V40.748H45.8909V41.8074C46.6195 41.8649 47.3289 42.0614 47.861 42.3969L47.3768 43.5905C46.8831 43.3077 46.3798 43.1447 45.8909 43.0872V44.7361C46.9694 44.9901 48.1534 45.3448 48.1534 46.7157C48.1486 47.7223 47.4104 48.5947 45.8909 48.7816ZM44.9179 44.4916V43.1159C44.405 43.231 44.1989 43.5138 44.1989 43.8349C44.1989 44.1705 44.4913 44.3574 44.9179 44.4916ZM46.5859 46.8308C46.5859 46.4904 46.3031 46.3083 45.8861 46.1597V47.497C46.375 47.3916 46.5859 47.1423 46.5859 46.8308Z" fill="white"/>
<path d="M41.6486 42.2484V42.7804H41.1741V42.2627C40.7043 42.234 40.249 42.0854 39.9854 41.8793L40.249 41.2993C40.4887 41.4766 40.829 41.6061 41.1741 41.6396V40.8439C40.6468 40.7145 40.0525 40.5371 40.0525 39.8565C40.0525 39.3532 40.4215 38.917 41.1741 38.8307V38.3035H41.6486V38.8211C42.0081 38.8499 42.3532 38.9458 42.6169 39.1135L42.3772 39.6983C42.1328 39.5593 41.8883 39.4778 41.6486 39.4491V40.2591C42.1759 40.3838 42.7607 40.5611 42.7607 41.2322C42.7607 41.7307 42.3964 42.1573 41.6486 42.2484ZM41.1741 40.1441V39.4682C40.92 39.5258 40.8194 39.6648 40.8194 39.8229C40.8194 39.9859 40.9632 40.077 41.1741 40.1441ZM41.9937 41.2897C41.9937 41.1219 41.8547 41.0309 41.6486 40.959V41.6156C41.8883 41.5677 41.9937 41.4431 41.9937 41.2897Z" fill="white"/>
<path d="M21.191 64.1011C20.9657 64.7865 20.7835 65.4816 20.6445 66.1862" stroke="white" stroke-width="0.246137" stroke-miterlimit="10"/>
<path d="M20.3184 70.4954C20.4861 74.6895 22.0056 78.8741 24.4837 82.2917C28.2465 87.4685 34.008 90.9772 40.1387 92.8034C46.2741 94.6297 52.7786 94.8789 59.1633 94.4379C68.146 93.8196 76.9705 91.8687 85.8812 90.5841C94.792 89.2947 103.957 88.6764 112.729 90.6992C120.086 92.3912 127.195 96.1539 131.978 101.906" stroke="white" stroke-width="0.246137" stroke-miterlimit="10" stroke-dasharray="2.22 2.22"/>
<path d="M133.301 103.622C133.713 104.207 134.102 104.811 134.471 105.434" stroke="white" stroke-width="0.246137" stroke-miterlimit="10"/>
<path d="M34.3244 57.8794L20.8121 62.3563L17.5479 59.0729L34.3244 57.8794Z" fill="#400030"/>
<path d="M21.9577 63.7896L20.6587 65.2515L22.8636 64.5325L21.9577 63.7896Z" fill="#577BB5"/>
<path d="M21.9575 63.7894L25.6148 68.9087C25.6148 68.9087 34.3482 57.8217 34.3243 57.8841C34.3003 57.9416 21.9575 63.7894 21.9575 63.7894Z" fill="#400030"/>
<path d="M20.6587 65.2515L20.8121 62.3563L34.3244 57.8794L21.9577 63.7895L20.6587 65.2515Z" fill="#4E6FA3"/>
<path d="M10.8662 51.3557C10.8662 52.6643 9.80684 53.7236 8.49827 53.7236C7.18969 53.7236 6.13037 52.6643 6.13037 51.3557C6.13037 50.0471 7.18969 48.9878 8.49827 48.9878C9.80684 48.9878 10.8662 50.0519 10.8662 51.3557Z" fill="#EFC09A"/>
<path d="M5.4499 60.5109C6.3685 60.5109 7.11318 59.7662 7.11318 58.8476C7.11318 57.929 6.3685 57.1843 5.4499 57.1843C4.5313 57.1843 3.78662 57.929 3.78662 58.8476C3.78662 59.7662 4.5313 60.5109 5.4499 60.5109Z" fill="#EFC09A"/>
<path d="M40.9824 56.5564C40.9824 57.6253 40.1148 58.4929 39.0459 58.4929C37.977 58.4929 37.1094 57.6253 37.1094 56.5564C37.1094 55.4875 37.977 54.6199 39.0459 54.6199C40.1196 54.6247 40.9824 55.4875 40.9824 56.5564Z" fill="white"/>
<path d="M45.5698 64.8967C45.5698 65.7259 44.8987 66.4018 44.0647 66.4018C43.2354 66.4018 42.5596 65.7307 42.5596 64.8967C42.5596 64.0675 43.2306 63.3916 44.0647 63.3916C44.8987 63.3916 45.5698 64.0675 45.5698 64.8967Z" fill="white"/>
<path d="M119.876 69.9345C119.876 70.2988 119.583 70.5912 119.219 70.5912C118.855 70.5912 118.562 70.2988 118.562 69.9345C118.562 69.5702 118.855 69.2778 119.219 69.2778C119.579 69.2778 119.876 69.575 119.876 69.9345Z" fill="white"/>
<path d="M21.5219 88.0148C21.5219 88.614 21.0377 89.1029 20.4338 89.1029C19.8346 89.1029 19.3457 88.6188 19.3457 88.0148C19.3457 87.4109 19.8298 86.9268 20.4338 86.9268C21.0377 86.9316 21.5219 87.4157 21.5219 88.0148Z" fill="white"/>
<path d="M98.7993 113.165C99.3499 113.165 99.7963 112.719 99.7963 112.168C99.7963 111.618 99.3499 111.171 98.7993 111.171C98.2486 111.171 97.8022 111.618 97.8022 112.168C97.8022 112.719 98.2486 113.165 98.7993 113.165Z" fill="white"/>
<path d="M211.907 30.4714C211.907 31.013 211.466 31.454 210.925 31.454C210.383 31.454 209.942 31.013 209.942 30.4714C209.942 29.9298 210.383 29.4888 210.925 29.4888C211.466 29.4888 211.907 29.9298 211.907 30.4714Z" fill="#EFC09A"/>
<path d="M213.959 60.3863C214.557 60.3863 215.042 59.9013 215.042 59.303C215.042 58.7047 214.557 58.2197 213.959 58.2197C213.36 58.2197 212.875 58.7047 212.875 59.303C212.875 59.9013 213.36 60.3863 213.959 60.3863Z" fill="white"/>
<path d="M220.2 42.21C220.2 42.8811 219.658 43.4227 218.987 43.4227C218.316 43.4227 217.774 42.8811 217.774 42.21C217.774 41.539 218.316 40.9973 218.987 40.9973C219.658 40.9973 220.2 41.539 220.2 42.21Z" fill="#EFC09A"/>
<path d="M123.878 7.76518C124.455 7.76518 124.923 7.29734 124.923 6.72023C124.923 6.14313 124.455 5.67529 123.878 5.67529C123.301 5.67529 122.833 6.14313 122.833 6.72023C122.833 7.29734 123.301 7.76518 123.878 7.76518Z" fill="#EFC09A"/>
<path d="M46.4177 8.51769C46.4177 8.9347 46.0822 9.27024 45.6651 9.27024C45.2481 9.27024 44.9126 8.9347 44.9126 8.51769C44.9126 8.10067 45.2481 7.76514 45.6651 7.76514C46.0822 7.76514 46.4177 8.10546 46.4177 8.51769Z" fill="#EFC09A"/>
<path opacity="0.5" d="M143.018 153.103C156.527 153.103 167.478 152.178 167.478 151.037C167.478 149.896 156.527 148.971 143.018 148.971C129.509 148.971 118.558 149.896 118.558 151.037C118.558 152.178 129.509 153.103 143.018 153.103Z" fill="url(#paint1_radial_553_1219)"/>
<path d="M138.293 111.056C138.652 116.046 138.671 120.581 138.479 124.607C137.823 138.441 134.731 146.34 134.731 146.34L130.082 146.234L127.167 104.12L126.841 99.3799C127.805 99.2936 128.763 99.1977 129.708 99.1162C133.451 98.7903 137.18 98.2918 140.895 97.731C139.822 105.295 138.293 111.056 138.293 111.056Z" fill="#C7683C"/>
<path opacity="0.5" d="M138.292 111.056C138.651 116.046 138.671 120.581 138.479 124.607L137.439 113.482C136.945 108.176 132.492 104.12 127.162 104.12L126.836 99.3799C127.799 99.2936 128.758 99.1977 129.702 99.1162C133.446 98.7903 137.175 98.2918 140.89 97.731C139.821 105.295 138.292 111.056 138.292 111.056Z" fill="#C7683C"/>
<path d="M135.306 146.134C135.306 146.134 136.207 148.88 135.636 150.405H123.687C123.687 150.405 122.905 148.205 126.299 148.444L129.721 146.345L129.3 139.347C129.3 139.347 131.222 138.024 132.664 139.888L136.839 140.248L135.306 146.134Z" fill="#E6E6E6"/>
<path d="M132.66 139.888C132.66 139.888 131.821 145.621 131.567 146.345C131.308 147.064 130.047 148.957 128.672 148.972C127.286 148.986 126.299 148.444 126.299 148.444L129.721 146.345L129.299 139.347C129.299 139.347 131.222 138.024 132.66 139.888Z" fill="#A9C0C4"/>
<path d="M148.084 96.4944C146.205 96.8731 144.302 97.2038 142.375 97.501C140.132 97.8509 137.884 98.1768 135.631 98.4692C140.64 113.007 147.36 130.637 153.333 142.577C155.212 143.176 156.295 141.398 157.867 141.072C157.56 129.961 153.208 118.524 149.114 108.406C148.908 104.931 148.611 100.813 148.084 96.4944Z" fill="#D4774C"/>
<path d="M158.744 140.717C158.744 140.717 160.724 142.822 160.854 144.442L150.03 149.513C150.03 149.513 148.391 147.855 151.564 146.632L153.774 143.282L150.428 137.122C150.428 137.122 151.607 135.109 153.702 136.188L157.637 134.745L158.744 140.717Z" fill="#E6E6E6"/>
<path d="M153.702 136.183C153.702 136.183 155.37 141.734 155.447 142.496C155.519 143.258 155.178 145.506 153.937 146.1C152.691 146.699 151.564 146.632 151.564 146.632L153.774 143.282L150.428 137.122C150.428 137.122 151.612 135.104 153.702 136.183Z" fill="#A9C0C4"/>
<path d="M153.592 83.0492C152.388 83.4279 151.243 83.9408 150.03 84.2475C147.744 77.6615 145.333 70.5674 142.346 64.5806C141.666 63.2145 141.004 61.9395 140.348 60.7172C139.423 58.982 138.517 57.3571 137.601 55.7465C139.552 54.9556 141.464 54.0689 143.377 53.1821C144.015 52.8897 144.652 52.5973 145.285 52.3049C146.004 53.9011 146.651 55.5308 147.245 57.1653C147.734 58.5171 148.189 59.8736 148.616 61.2205C150.912 68.4919 152.35 75.5525 153.592 83.0492Z" fill="#D4774C"/>
<path d="M151.444 81.0837C151.444 81.0837 152.297 81.4145 153.203 82.2964C154.109 83.1832 154.22 84.9615 154.747 85.7332C155.274 86.505 155.768 87.1473 155.59 87.363C155.413 87.5787 155.097 87.2719 154.162 86.1359C154.162 86.1359 153.577 85.6949 153.846 86.3612C154.109 87.0226 155.135 88.3887 154.819 88.7339C154.56 89.0119 153.237 86.8741 153.079 86.8405C152.921 86.8069 154.152 89.6494 153.64 90.0472C153.127 90.4451 152.604 87.0322 152.226 86.9891C151.847 86.946 152.504 89.3618 152.168 89.4816C151.435 89.75 151.195 85.7908 150.869 85.8723C150.543 85.9537 150.289 87.4253 149.848 87.3342C149.407 87.2479 149.982 85.7476 149.958 85.4456C149.925 85.1485 149.297 81.6541 151.444 81.0837Z" fill="#D4774C"/>
<path d="M147.24 57.1557L140.348 60.7123C139.423 58.9771 138.517 57.3522 137.601 55.7416C139.552 54.9507 141.464 54.064 143.377 53.1772C144.015 52.8848 144.652 52.5924 145.285 52.3C145.999 53.8962 146.646 55.5212 147.24 57.1557Z" fill="#BF6237"/>
<path d="M146.709 54.2124C146.709 54.2124 141.125 58.0423 138.599 58.2197L131.586 45.4311C131.586 45.4311 131.538 44.7217 131.644 43.7439C131.998 40.4077 135.943 38.7732 138.527 40.9014L138.599 40.9637C139.126 41.4095 139.802 42.2675 140.53 43.346C142.472 46.2028 144.82 50.5791 145.98 52.808C146.441 53.6756 146.709 54.2124 146.709 54.2124Z" fill="#1E2A47"/>
<path opacity="0.5" d="M146.709 54.2124C146.709 54.2124 141.125 58.0423 138.599 58.2197L131.586 45.4311C131.586 45.4311 131.538 44.7217 131.644 43.7439C131.998 40.4077 135.943 38.7732 138.527 40.9014L138.599 40.9637C139.126 41.4095 139.802 42.2675 140.53 43.346C140.296 46.0542 140.065 48.7672 139.831 51.4803C139.773 52.1226 139.73 52.8128 140.037 53.3736C140.435 54.107 141.331 54.4329 142.17 54.4713C143.608 54.5336 145.041 53.8865 145.98 52.808C146.441 53.6756 146.709 54.2124 146.709 54.2124Z" fill="#18367F"/>
<path d="M134.505 38.7971V30.7922H129.184V39.1949C127.88 39.6647 126.754 40.5562 125.982 41.7306C125.551 42.3873 125.153 42.9433 124.793 43.4562C125.287 43.7006 125.81 43.9067 126.337 44.0889C126.529 44.0649 126.716 44.0457 126.869 44.0266C128.412 43.8636 129.98 43.5472 131.384 42.8714C132.487 42.3441 133.527 41.7018 134.303 40.7623C134.318 40.6856 134.327 40.6089 134.356 40.5322C134.562 39.9187 134.821 39.3771 135.128 38.8594C134.922 38.8354 134.711 38.8114 134.505 38.7971Z" fill="#D4774C"/>
<path d="M134.423 32.7671C133.953 34.0421 133.349 35.2117 132.606 35.9451C131.83 36.7168 131.063 37.1482 130.382 37.383C129.937 37.5364 129.529 37.6083 129.184 37.6371V36.2374C129.592 36.271 130.229 36.247 130.982 35.9834C131.662 35.7485 132.434 35.3171 133.21 34.5454C133.671 34.0996 134.073 33.4765 134.423 32.7671Z" fill="#BF6237"/>
<path d="M150.787 98.5409C150.418 98.6368 149.762 98.7901 148.894 98.9819C144.23 100.012 133.431 102.179 127.621 102.471C126.926 102.505 126.298 102.519 125.766 102.491L125.225 63.4011C125.225 63.4011 124.697 60.1896 124.146 56.8822C123.614 53.7091 123.058 50.4496 122.929 49.8409C122.655 48.6042 122.411 47.8133 124.573 43.5329C126.734 39.2572 129.213 39.171 129.213 39.171C127.334 39.5496 125.301 42.9145 125.301 42.9145C125.301 42.9145 129.639 41.7162 131.25 40.0338C132.86 38.3513 134.806 38.706 134.806 38.706C136.451 38.9984 137.505 39.9427 138.181 40.978C139.082 42.3729 139.365 44.0841 139.068 45.7186C138.713 47.6599 138.512 50.1668 138.406 52.5299C138.224 56.4269 138.282 59.9452 138.282 59.9452C144.762 66.3155 143.516 76.3335 143.516 76.3335L150.787 98.5409Z" fill="#1E2A47"/>
<path d="M134.092 52.9277C133.805 54.9313 133.56 56.9397 133.407 58.9529C133.33 59.9595 133.278 60.9709 133.273 61.9775C133.268 62.2316 133.273 62.4808 133.287 62.7301C133.297 62.9793 133.302 63.2334 133.33 63.4826L133.364 63.8565C133.378 63.9811 133.402 64.1057 133.421 64.2256C133.465 64.4748 133.503 64.7193 133.546 64.9685C134.347 68.9278 135.262 72.8727 136.178 76.808L138.9 88.6331L140.257 94.548L141.584 100.468C140.568 96.5516 139.595 92.6259 138.637 88.6954C137.678 84.7649 136.758 80.8248 135.832 76.8847L134.505 70.9602C134.083 68.9805 133.632 67.0105 133.278 65.0117C133.234 64.7624 133.201 64.5084 133.163 64.2543C133.143 64.1297 133.124 64.0003 133.11 63.8757L133.081 63.4922C133.057 63.2381 133.052 62.9841 133.048 62.7301C133.038 62.476 133.043 62.222 133.048 61.9679C133.067 60.9517 133.134 59.9403 133.23 58.9338C133.445 56.9254 133.728 54.917 134.092 52.9277Z" fill="#C2612D"/>
<path d="M136.772 46.5383L132.636 59.2262C128.624 66.1142 126.62 73.9896 126.903 81.9513L127.627 102.471C126.931 102.505 126.304 102.519 125.772 102.491L125.23 63.4012C125.23 63.4012 124.703 60.1897 124.151 56.8823L135.138 44.9038L136.772 46.5383Z" fill="#1E2A47"/>
<path d="M150.788 98.5409C150.418 98.6367 149.762 98.7901 148.894 98.9818L141.589 76.1465C143.181 69.0716 136.767 61.0716 136.767 61.0716L138.397 52.5347C138.215 56.4316 138.272 59.9499 138.272 59.9499C144.753 66.3202 143.506 76.3382 143.506 76.3382L150.788 98.5409Z" fill="#1E2A47"/>
<path d="M104.503 51.6577C103.406 51.859 102.936 52.0939 101.972 52.6547C100.482 49.9944 99.0341 47.3677 97.8022 44.554C99.0869 43.9932 100.4 43.5091 101.675 42.9243C102.965 45.9297 104.307 48.3264 104.503 51.6577Z" fill="#67B38B"/>
<path d="M101.929 51.6864C100.463 49.7355 99.6574 47.3197 98.5933 45.1388C98.7898 45.0285 98.8521 44.8608 98.785 44.6451C99.5519 44.3335 100.324 44.0363 101.086 43.7056C101.196 43.8973 101.369 43.9644 101.579 43.8973C102.658 46.131 103.933 48.2784 104.048 50.8188C103.832 50.8764 103.756 51.0345 103.741 51.2502C103.19 51.3173 102.811 51.4947 102.37 51.835C102.255 51.6768 102.112 51.6001 101.929 51.6864Z" fill="#420031"/>
<path d="M102.964 47.3676C103.276 48.0866 102.888 48.8008 102.193 49.0884C101.498 49.3808 100.745 49.1459 100.443 48.4413C100.141 47.7367 100.429 46.9554 101.138 46.6486C101.843 46.3466 102.653 46.6534 102.964 47.3676Z" fill="#67B38B"/>
<path d="M102.428 47.4442C102.514 47.4107 102.591 47.3771 102.672 47.3436C102.701 47.4155 102.735 47.4826 102.763 47.5545C102.687 47.588 102.605 47.6216 102.529 47.6552C102.591 47.8565 102.62 48.0482 102.572 48.2495C102.466 48.2447 102.366 48.2447 102.26 48.2447C102.299 48.0818 102.289 47.9332 102.246 47.775C102.126 47.8277 102.001 47.8804 101.886 47.9332C101.905 48.2256 101.953 48.4556 101.627 48.609C101.383 48.7193 101.11 48.5755 100.976 48.331C100.889 48.3646 100.808 48.3981 100.726 48.4317C100.698 48.3598 100.669 48.2879 100.635 48.2208C100.717 48.1872 100.798 48.1585 100.88 48.1249C100.832 47.9619 100.803 47.799 100.822 47.6312C100.928 47.6312 101.038 47.6312 101.143 47.6312C101.134 47.7606 101.143 47.8852 101.177 48.0099C101.302 47.9571 101.426 47.9092 101.541 47.8469C101.527 47.5641 101.436 47.31 101.766 47.1519C102.001 47.0368 102.289 47.2046 102.428 47.4442ZM101.57 48.0818C101.464 48.1249 101.364 48.168 101.258 48.216C101.316 48.2879 101.393 48.3358 101.479 48.2975C101.575 48.2495 101.57 48.1632 101.57 48.0818ZM101.929 47.4874C101.843 47.5257 101.843 47.6168 101.843 47.7031C101.944 47.6599 102.044 47.6168 102.14 47.5737C102.088 47.5018 102.021 47.4442 101.929 47.4874Z" fill="#420031"/>
<path d="M104.398 52.0699C103.286 51.9692 102.773 52.0699 101.689 52.3479C100.97 49.3809 100.285 46.4617 99.8584 43.4228C101.244 43.231 102.643 43.116 104.024 42.8955C104.46 46.1406 105.102 48.8105 104.398 52.0699Z" fill="#67B38B"/>
<path d="M101.91 51.4087C101.023 49.1367 100.899 46.5914 100.458 44.2044C100.678 44.1469 100.783 44.0078 100.774 43.7826C101.598 43.6915 102.423 43.61 103.242 43.4998C103.3 43.7155 103.444 43.8257 103.669 43.8209C104.105 46.2607 104.757 48.6765 104.182 51.1499C103.957 51.1499 103.842 51.2793 103.77 51.4806C103.223 51.3991 102.806 51.4662 102.293 51.6723C102.226 51.4854 102.111 51.3752 101.91 51.4087Z" fill="#420031"/>
<path d="M104.072 47.5259C104.178 48.3024 103.612 48.8824 102.864 48.9783C102.117 49.0693 101.45 48.6475 101.35 47.8854C101.249 47.1232 101.733 46.4522 102.5 46.3467C103.267 46.2413 103.967 46.7542 104.072 47.5259Z" fill="#67B38B"/>
<path d="M103.53 47.4587C103.621 47.4492 103.708 47.4396 103.794 47.43C103.803 47.5067 103.813 47.5834 103.823 47.6601C103.736 47.6696 103.655 47.6792 103.569 47.6888C103.578 47.8997 103.549 48.0915 103.449 48.2736C103.348 48.2448 103.252 48.2113 103.151 48.1873C103.233 48.0387 103.262 47.8949 103.262 47.732C103.132 47.7511 102.998 47.7655 102.873 47.7895C102.811 48.0771 102.797 48.3119 102.442 48.3695C102.178 48.4126 101.953 48.1969 101.886 47.9285C101.795 47.9333 101.709 47.9477 101.618 47.9572C101.608 47.8806 101.598 47.8039 101.589 47.7272C101.675 47.7176 101.761 47.708 101.848 47.6984C101.843 47.5258 101.862 47.3629 101.924 47.2047C102.025 47.2335 102.131 47.2622 102.231 47.291C102.188 47.4156 102.164 47.5354 102.159 47.6649C102.293 47.6505 102.428 47.6361 102.557 47.6073C102.619 47.3293 102.6 47.0609 102.96 46.9986C103.233 46.9506 103.463 47.1903 103.53 47.4587ZM102.538 47.8374C102.428 47.8518 102.313 47.8662 102.202 47.8805C102.241 47.962 102.298 48.0291 102.394 48.0148C102.495 48.0052 102.514 47.9189 102.538 47.8374ZM103.041 47.3629C102.945 47.3773 102.926 47.4635 102.902 47.545C103.008 47.5306 103.118 47.5163 103.223 47.4971C103.19 47.4204 103.137 47.3485 103.041 47.3629Z" fill="#420031"/>
<path d="M104.182 52.4437C103.142 52.0458 102.62 52.0027 101.503 51.9787C101.608 48.9302 101.738 45.9344 102.14 42.8906C103.531 43.0776 104.901 43.346 106.296 43.509C105.841 46.7492 105.745 49.4958 104.182 52.4437Z" fill="#67B38B"/>
<path d="M101.968 51.1352C101.729 48.7098 102.294 46.2221 102.51 43.8063C102.735 43.8111 102.874 43.7008 102.932 43.4851C103.751 43.6193 104.566 43.7631 105.386 43.8782C105.381 44.1034 105.491 44.2472 105.707 44.3C105.467 46.7685 105.448 49.2706 104.226 51.4947C104.01 51.4324 103.862 51.5283 103.737 51.7008C103.234 51.4756 102.812 51.4276 102.265 51.4899C102.251 51.2934 102.17 51.1544 101.968 51.1352Z" fill="#420031"/>
<path d="M105.093 47.9814C104.983 48.7531 104.288 49.1653 103.54 49.0551C102.792 48.9448 102.27 48.3552 102.38 47.5931C102.49 46.8358 103.137 46.3181 103.904 46.4235C104.666 46.5242 105.198 47.2048 105.093 47.9814Z" fill="#67B38B"/>
<path d="M104.594 47.7653C104.686 47.7845 104.767 47.7941 104.858 47.8084C104.849 47.8851 104.839 47.9618 104.825 48.0385C104.738 48.0241 104.657 48.0146 104.571 48.0002C104.523 48.2015 104.446 48.3788 104.297 48.5322C104.211 48.4747 104.125 48.422 104.034 48.3693C104.149 48.2494 104.221 48.12 104.264 47.9618C104.134 47.9474 104 47.9235 103.875 47.9091C103.736 48.1679 103.665 48.3932 103.3 48.3501C103.032 48.3165 102.874 48.0529 102.883 47.7749C102.792 47.7557 102.706 47.7461 102.62 47.7317C102.629 47.6551 102.644 47.5784 102.653 47.5065C102.739 47.5208 102.826 47.5352 102.912 47.5496C102.955 47.3866 103.017 47.2332 103.118 47.0942C103.209 47.1518 103.3 47.2045 103.391 47.262C103.315 47.3675 103.262 47.4777 103.224 47.6023C103.353 47.6215 103.487 47.6455 103.621 47.6551C103.756 47.4058 103.808 47.1374 104.173 47.1757C104.441 47.1997 104.599 47.4873 104.594 47.7653ZM103.535 47.866C103.425 47.8468 103.315 47.8324 103.2 47.818C103.214 47.9091 103.252 47.9858 103.348 48.0002C103.444 48.0146 103.487 47.9379 103.535 47.866ZM104.149 47.5448C104.053 47.5352 104.01 47.6119 103.967 47.6838C104.072 47.6982 104.182 47.7126 104.288 47.727C104.273 47.6407 104.245 47.5544 104.149 47.5448Z" fill="#420031"/>
<path d="M132.137 55.9046C131.413 56.9112 130.651 57.8938 129.86 58.8525C129.802 58.9244 129.74 59.0011 129.678 59.073C128.916 59.9981 127.597 61.4457 126.442 62.6967C125.071 64.1778 122.919 64.614 121.079 63.7848C119.861 63.2336 118.543 62.6296 117.675 62.2078C115.331 61.0622 113.088 59.7297 110.854 58.3348C108.621 56.9447 106.406 55.4924 104.12 54.1215C103.468 53.7524 102.533 53.1532 102.533 53.1532C101.853 53.0286 101.843 52.3048 101.843 52.3048C101.321 52.2809 101.335 51.72 101.335 51.72C100.602 51.4612 100.932 50.7949 100.932 50.7949C100.932 50.7949 101.833 51.1496 101.862 51.0442C101.886 50.9387 99.547 49.472 100.108 49.2707C100.669 49.0645 103.176 50.5553 104.125 50.632C105.074 50.7086 105.237 49.8411 105.237 49.8411L105.443 49.0693C105.443 49.0693 105.836 49.3713 105.97 49.7212C106.104 50.0663 105.869 51.3462 105.869 51.3462C110.907 53.3114 116.213 55.3917 121.352 56.9543C121.999 55.9765 122.617 55.0226 123.216 54.0879C124.022 52.8273 124.793 51.5858 125.575 50.3252C126.251 50.9723 126.95 51.6002 127.655 52.2185C129.112 53.4888 130.608 54.7206 132.137 55.9046Z" fill="#D4774C"/>
<path d="M132.137 55.9046C131.413 56.9112 130.651 57.8938 129.86 58.8525C126.778 58.1671 124.477 55.7464 123.211 54.0879C124.017 52.8273 124.788 51.5858 125.57 50.3252C126.246 50.9723 126.945 51.6002 127.65 52.2186C129.112 53.4888 130.608 54.7207 132.137 55.9046Z" fill="#BF6237"/>
<path d="M124.098 51.6672L131.082 41.4623C131.082 41.4623 136.613 38.941 137.97 45.2011L131.59 57.1843C131.585 57.1891 126.619 56.288 124.098 51.6672Z" fill="#263C6F"/>
<path d="M124.434 52.1563C124.309 52.0029 124.185 51.8495 124.065 51.6913L124.05 51.6721L124.065 51.6434C124.506 50.9244 124.98 50.2246 125.445 49.5199C125.92 48.8201 126.399 48.1299 126.893 47.4444C127.386 46.759 127.88 46.0783 128.398 45.4073C128.911 44.7362 129.424 44.0699 129.97 43.4229C129.539 44.1514 129.078 44.8561 128.609 45.5607C128.149 46.2653 127.664 46.9555 127.18 47.6458C126.691 48.336 126.198 49.0166 125.694 49.6925C125.182 50.3636 124.678 51.0394 124.141 51.6913V51.6434C124.237 51.8159 124.333 51.9885 124.434 52.1563Z" fill="#C2612D"/>
<path d="M131.187 57.189C131.398 57.2848 131.614 57.3807 131.825 57.4862L131.772 57.5053C132.203 56.5131 132.668 55.5353 133.124 54.5526C133.588 53.5748 134.063 52.6066 134.547 51.6383C135.036 50.6749 135.52 49.7066 136.033 48.7527C136.541 47.7989 137.054 46.845 137.596 45.9055C137.174 46.9025 136.723 47.8899 136.263 48.8678C135.813 49.8504 135.333 50.8235 134.854 51.7917C134.375 52.76 133.881 53.7234 133.382 54.6821C132.869 55.6359 132.371 56.5946 131.834 57.5389L131.815 57.5772L131.781 57.5581C131.585 57.4334 131.384 57.3088 131.187 57.189Z" fill="#C2612D"/>
<path d="M122.858 30.1021C122.987 29.6324 123.303 29.2106 123.596 28.8079C123.778 28.5587 123.95 28.2854 124.07 27.9978C124.262 25.6252 124.832 23.3627 125.158 22.706C125.676 21.6851 128.456 20.7695 131.188 21.2824C133.925 21.7761 136.193 23.6264 136.312 24.7624C136.355 25.1938 136.562 26.9194 135.1 31.1518C134.62 32.5131 133.992 33.7738 133.201 34.5503C132.425 35.322 131.653 35.7534 130.973 35.9883C129.664 36.4437 128.701 36.1704 128.701 36.1704L128.178 36.0746C128.178 36.0746 126.922 35.9643 125.734 34.7277C125.312 34.2915 124.904 33.7163 124.559 32.9541C124.324 32.4269 124.171 31.7942 124.085 31.1087C123.711 31.1039 123.332 30.9745 123.044 30.7396C122.867 30.591 122.795 30.3322 122.858 30.1021Z" fill="#D4774C"/>
<path d="M133.125 29.9487C133.192 29.7762 133.211 29.5988 133.216 29.4167C133.225 29.2393 133.216 29.062 133.158 28.9182C133.048 28.6258 132.669 28.597 132.41 28.7744C132.137 28.9469 131.883 29.2202 131.744 29.5221C131.605 29.8337 131.572 30.198 131.528 30.5671C131.471 30.2076 131.423 29.8289 131.548 29.4502C131.677 29.0716 131.936 28.7744 132.271 28.5491C132.444 28.4436 132.669 28.3813 132.885 28.4245C133.105 28.4628 133.307 28.645 133.355 28.8559C133.412 29.062 133.383 29.2585 133.345 29.4406C133.297 29.618 133.244 29.8049 133.125 29.9487Z" fill="#BF6237"/>
<path d="M132.209 30.6675C132.291 30.5141 132.324 30.3607 132.348 30.2121C132.367 30.0635 132.372 29.9054 132.362 29.7568C132.353 29.6082 132.319 29.474 132.247 29.3637C132.171 29.2583 132.046 29.1528 131.874 29.1576C132.017 29.0474 132.257 29.0857 132.401 29.2199C132.554 29.3541 132.617 29.5555 132.631 29.7376C132.64 29.9197 132.621 30.0971 132.554 30.2697C132.487 30.4374 132.367 30.5908 132.209 30.6675Z" fill="#BF6237"/>
<path d="M126.309 32.0002C126.232 32.1345 126.103 32.2255 125.973 32.2926C125.834 32.3502 125.686 32.3933 125.532 32.3597C125.666 32.2783 125.791 32.2351 125.916 32.168C126.045 32.1201 126.16 32.0482 126.309 32.0002Z" fill="#BF6237"/>
<path d="M126.654 30.8547C126.515 31.2909 126.184 31.66 125.777 31.8901C125.57 32.0051 125.345 32.0866 125.115 32.1106C124.885 32.1489 124.65 32.1154 124.43 32.0579C124.875 31.9764 125.283 31.8709 125.642 31.6552C126.016 31.4539 126.337 31.1759 126.654 30.8547Z" fill="#BF6237"/>
<path d="M125.221 30.7971C125.197 30.9217 125.154 30.9745 125.101 31.0128C125.043 31.0464 124.981 31.0607 124.856 31.032C124.842 30.9026 124.895 30.8355 124.957 30.7875C125.024 30.7492 125.11 30.73 125.221 30.7971Z" fill="#BF6237"/>
<path d="M125.58 28.8173C125.58 29.2008 125.81 29.5124 126.098 29.5124C126.385 29.5124 126.615 29.2008 126.615 28.8173C126.615 28.4339 126.385 28.1223 126.098 28.1223C125.81 28.1223 125.58 28.4339 125.58 28.8173Z" fill="#1E2A47"/>
<path d="M125.374 28.0361C125.393 28.0505 125.446 28.0937 125.503 28.108C125.561 28.1272 125.623 28.1368 125.685 28.1416C125.815 28.1512 125.949 28.1416 126.083 28.1224C126.198 28.108 126.304 28.1895 126.323 28.3046C126.337 28.4196 126.256 28.5251 126.141 28.5442C126.117 28.549 126.093 28.5442 126.074 28.5442C125.92 28.5155 125.767 28.4819 125.613 28.4244C125.537 28.3909 125.465 28.3573 125.393 28.3046C125.326 28.2471 125.259 28.1991 125.225 28.0745C125.216 28.0409 125.235 28.0026 125.273 27.993C125.297 27.9882 125.316 27.993 125.335 28.0074L125.374 28.0361Z" fill="#1E2A47"/>
<path d="M125.369 26.7995C125.541 26.7851 125.752 26.7707 125.944 26.7803C126.141 26.7803 126.342 26.7995 126.538 26.8282C126.735 26.857 126.931 26.9097 127.123 26.972C127.32 27.0343 127.502 27.1206 127.694 27.2069L127.703 27.2117C127.77 27.2405 127.852 27.2117 127.881 27.1446C127.905 27.0919 127.89 27.0296 127.847 26.9912C127.679 26.8378 127.497 26.694 127.291 26.5886C127.09 26.4687 126.869 26.392 126.649 26.3249C126.423 26.2578 126.189 26.2243 125.958 26.2195C125.719 26.2195 125.498 26.2291 125.244 26.3058C125.11 26.3441 125.029 26.4879 125.072 26.6221C125.105 26.742 125.22 26.8139 125.34 26.8043L125.369 26.7995Z" fill="#1E2A47"/>
<path d="M124.914 26.3536C124.885 26.4542 124.923 26.5693 125 26.646C125.077 26.7226 125.173 26.7658 125.269 26.7945H125.273C125.345 26.8185 125.422 26.7754 125.446 26.7035C125.47 26.6316 125.427 26.5549 125.355 26.5309C125.34 26.5261 125.321 26.5261 125.307 26.5261C125.235 26.5309 125.168 26.5261 125.11 26.5022C125.082 26.4878 125.058 26.4734 125.038 26.4494C125.019 26.4255 125.005 26.3919 125 26.3632V26.3536C124.995 26.3296 124.976 26.3152 124.952 26.32C124.928 26.3248 124.919 26.3344 124.914 26.3536Z" fill="#1E2A47"/>
<path d="M129.214 35.2261C130.524 35.2261 131.586 34.1638 131.586 32.8534C131.586 31.543 130.524 30.4807 129.214 30.4807C127.903 30.4807 126.841 31.543 126.841 32.8534C126.841 34.1638 127.903 35.2261 129.214 35.2261Z" fill="#D46C46"/>
<path d="M128.192 36.0795C128.192 36.0795 126.936 35.9645 125.747 34.7326C125.431 34.4066 125.119 33.9944 124.836 33.4863C125.445 35.7248 126.342 37.8818 127.497 39.895C128.383 39.2862 129.045 39.1952 129.189 39.1808V36.2473C128.887 36.2281 128.714 36.1754 128.714 36.1754L128.192 36.0795Z" fill="#1A223B"/>
<path d="M141.968 39.3293C140.602 37.7715 138.967 36.3479 138.205 34.4162C137.084 31.5498 138.138 28.228 137.242 25.2849C136.585 23.1231 134.84 21.3304 132.703 20.6114C131.327 20.1513 129.822 20.1177 128.398 20.4053C127.046 20.6785 125.69 21.2777 124.87 22.3849C123.988 23.5785 123.854 25.1555 123.873 26.6366C123.878 27.1783 123.902 27.7199 123.945 28.2615C123.993 28.1753 124.036 28.0842 124.075 27.9979C124.151 27.0345 124.295 26.0902 124.458 25.2609C126.049 25.7355 127.914 25.4814 129.362 24.6714C129.007 25.4718 128.945 26.3969 129.189 27.2358C129.433 28.0746 129.99 28.8224 130.718 29.3017C131.126 28.9039 131.475 28.367 132.003 28.1561C132.53 27.9452 133.201 27.9835 133.589 28.3958C133.968 28.7984 133.978 29.4551 133.743 29.9584C133.508 30.4617 133.072 30.8403 132.631 31.1759C132.688 31.9141 133 32.6522 133.474 33.2226C133.762 33.5677 134.112 33.8553 134.505 34.0758V38.687C134.697 38.6918 134.807 38.7158 134.807 38.7158C136.12 38.9506 137.06 39.5977 137.726 40.379C138.004 40.518 138.272 40.6906 138.531 40.9015L138.603 40.9638C139.677 41.865 141.345 44.4725 142.888 47.1376C143.492 46.5241 143.938 45.7763 144.111 44.9327C144.532 42.9003 143.339 40.8919 141.968 39.3293Z" fill="#1A223B"/>
<path opacity="0.5" d="M99.6188 150.52C99.6188 151.661 88.666 152.586 75.1585 152.586C61.651 152.586 50.6982 151.661 50.6982 150.52C50.6982 149.379 61.651 148.454 75.1585 148.454C88.666 148.454 99.6188 149.379 99.6188 150.52Z" fill="url(#paint2_radial_553_1219)"/>
<path d="M91.0341 145.635H82.8615L67.2593 99.9551L67.9831 71.1521L77.8621 68.0413L81.1503 87.4398L91.0341 145.635Z" fill="#1C2540"/>
<path opacity="0.5" d="M84.9897 145.635H82.8567L67.2593 99.9551L67.9783 71.1521L77.8573 68.0413L81.1503 87.435C76.079 99.9935 75.4415 113.908 79.3432 126.874L84.9897 145.635Z" fill="#1C2540"/>
<path d="M83.4458 146.239C83.4458 146.239 82.3625 147.946 83.4458 150.246H96.5747C96.5747 150.246 97.0013 149.503 96.5747 149.12C96.1481 148.737 91.8006 148.617 89.8641 145.635H83.3547L83.4458 146.239Z" fill="#E6E6E6"/>
<path d="M96.7668 149.992H83.2305V150.519H96.7668V149.992Z" fill="#A9C0C4"/>
<path d="M59.9778 68.8512C59.9778 68.8512 58.5973 74.2773 59.6039 78.457L59.9347 111.215L57.4565 145.635H65.1594L75.5657 78.9843L77.8617 68.0364L59.9778 68.8512Z" fill="#28365D"/>
<path d="M58.1758 146.239C58.1758 146.239 57.0925 147.946 58.1758 150.246H71.3047C71.3047 150.246 71.7313 149.503 71.3047 149.12C70.8781 148.737 66.5305 148.617 64.594 145.635H58.0847L58.1758 146.239Z" fill="#E6E6E6"/>
<path d="M71.4963 149.992H57.96V150.519H71.4963V149.992Z" fill="#A9C0C4"/>
<path d="M69.0083 41.8984C70.384 43.0584 72.2486 44.6833 74.1036 44.9566C75.067 45.1004 75.7812 44.8128 76.3325 44.2759C76.3804 44.1513 76.4283 44.0219 76.4763 43.8972C76.2222 43.5138 75.949 43.1016 75.6662 42.6462C74.9041 41.4191 74.2761 40.4652 73.26 39.9092V31.334H68.1791V39.2957C67.6997 39.3244 67.1916 39.3724 66.6548 39.4347C67.3402 40.3071 68.0928 41.1267 69.0083 41.8984Z" fill="#EBAF7F"/>
<path d="M73.2554 36.7839V38.2075C73.0733 38.1692 72.8863 38.1165 72.685 38.0446C72.0092 37.8097 71.2375 37.3783 70.4609 36.6066C70.1302 36.2806 69.8234 35.8636 69.5454 35.3843C70.2213 35.9739 70.8732 36.3286 71.4627 36.5299C72.2105 36.7935 72.848 36.8175 73.2554 36.7839Z" fill="#E48855"/>
<path d="M78.5279 63.3581C78.293 66.6415 78.0965 69.1053 78.0965 69.1053C78.0965 69.1053 76.2846 69.4792 73.5429 69.7524C73.423 69.762 73.3032 69.7764 73.1786 69.7859C69.4925 70.1263 64.2918 70.2605 59.5991 69.1053L62.0293 58.9243L62.8298 51.6337L64.1336 39.7655C64.1336 39.7655 66.2379 39.0369 68.1744 39.2526C68.1744 39.2526 72.1097 42.4593 73.2361 42.1861C73.2409 42.1861 73.2457 42.1813 73.2505 42.1813C73.3943 42.1429 73.4997 42.0758 73.5764 41.9896C73.9167 41.6061 73.6675 40.8248 73.4614 40.3359C73.3511 40.0818 73.2553 39.9045 73.2553 39.9045C73.2553 39.9045 73.3272 39.9188 73.4374 39.9524C73.6962 40.0243 74.1708 40.1873 74.444 40.4461C74.8323 40.8152 78.4368 45.9824 79.0935 47.243C79.5249 48.0723 78.9689 57.1652 78.5279 63.3581Z" fill="#FF4846"/>
<path d="M68.0207 39.3962C68.0207 39.3962 67.7523 36.9708 68.0447 36.9468C68.3371 36.9228 72.3682 38.6101 72.6606 39.214C72.953 39.818 73.3844 42.1331 73.3844 42.1331C73.3844 42.1331 72.1477 43.0343 68.0207 39.3962Z" fill="#FF814F"/>
<path d="M73.3843 42.1381L73.2261 39.104L73.2548 38.2124C73.2548 38.2124 74.4388 38.6102 74.7312 38.9937C75.0236 39.3772 74.9277 41.0692 74.9277 41.0692C74.9277 41.0692 74.7551 42.0662 73.3843 42.1381Z" fill="#FF814F"/>
<path d="M73.5474 69.7524C73.4276 69.7619 73.3077 69.7763 73.1831 69.7859C74.4437 62.989 73.6193 47.9188 73.2406 42.186C73.2454 42.186 73.2502 42.1812 73.255 42.1812C73.3988 42.1429 73.5043 42.0758 73.581 41.9895C73.95 47.5689 74.7985 62.7877 73.5474 69.7524Z" fill="#FF814F"/>
<path opacity="0.5" d="M78.5279 63.3581C78.293 66.6415 78.0965 69.1053 78.0965 69.1053C78.0965 69.1053 76.2846 69.4791 73.5429 69.7524C73.423 69.7619 73.3032 69.7763 73.1786 69.7859C69.4925 70.1262 64.2918 70.2604 59.5991 69.1053L62.0293 58.9243L62.8298 51.6336C63.846 51.2694 64.9005 51.0393 65.9551 50.9722C66.1228 54.7589 68.0497 58.4258 71.0647 60.7266C73.2025 62.3515 75.8532 63.267 78.5279 63.3581Z" fill="#871A1A"/>
<path d="M99.09 57.8926V59.6373H73L77.2325 58.2137L78.1768 57.8926H99.09Z" fill="#FB9909"/>
<path d="M95.658 59.637H73V81.2404H95.658V59.637Z" fill="#FFA726"/>
<path d="M83.5405 77.8369H74.021V79.1647H83.5405V77.8369Z" fill="#C7762F"/>
<path d="M80.4105 76.3035H74.021V77.2669H80.4105V76.3035Z" fill="#C7762F"/>
<path d="M93.9085 62.7573C93.9085 63.7159 93.132 64.4876 92.1781 64.4876C91.2195 64.4876 90.4478 63.7111 90.4478 62.7573C90.4478 61.7986 91.2243 61.0269 92.1781 61.0269C93.132 61.0221 93.9085 61.7986 93.9085 62.7573Z" fill="#C7762F"/>
<path d="M72.999 81.2439H74.02V59.6404H72.999V81.2439Z" fill="#FFA726"/>
<path d="M99.0897 57.8923V79.2561L95.6577 81.2453V59.6371L96.5732 59.1721L99.0897 57.8923Z" fill="#1E2A47"/>
<path opacity="0.5" d="M99.0897 75.2487V79.2559L95.6577 81.2452V59.6417L96.5732 59.1768C96.487 62.465 96.626 65.7532 96.9998 69.0174C97.1772 70.5561 97.4121 72.1139 98.0352 73.5327C98.3132 74.1415 98.6631 74.731 99.0897 75.2487Z" fill="#1E2A47"/>
<path opacity="0.5" d="M99.0903 57.8922V58.1319C89.2784 59.3926 80.9908 58.6879 77.228 58.2086L78.1723 57.8875H99.0903V57.8922Z" fill="#C7762F"/>
<path d="M76.5342 79.3197C76.5342 79.3197 78.3125 79.4539 78.418 79.1998C78.5234 78.9458 76.7547 78.3754 76.7547 78.3754L75.2208 77.364C74.1951 76.1417 73.1549 74.905 72.1148 73.6492C72.0429 73.6971 71.9758 73.745 71.9039 73.7882C71.1273 74.4401 70.2693 75.0248 69.373 75.5809C69.0518 75.8781 68.7163 76.1752 68.376 76.4676C69.7037 77.642 71.0506 78.8116 72.4263 79.9763C72.8961 80.6474 74.0273 81.9943 74.0273 81.9943C74.5833 82.1189 75.216 82.0231 75.216 82.0231C75.7433 82.0662 76.4575 81.9128 76.4575 81.9128C77.0231 81.9799 77.3874 81.6061 77.3874 81.6061C78.7918 81.9224 79.554 81.3376 79.554 81.3376H78.5282L76.5342 79.3197Z" fill="#EBAF7F"/>
<path d="M75.1584 76.1033L74.3962 76.736L71.7024 78.9745L71.0649 79.5018C71.0649 79.5018 56.2871 66.325 55.6592 64.0721C55.3956 63.1374 55.5633 61.3112 55.8461 59.4945C56.2775 56.7623 56.9678 54.0733 57.8545 51.4513C59.0097 48.0289 60.951 42.67 62.2835 40.9875C62.3458 40.9109 62.4034 40.839 62.4609 40.7814C62.5328 40.7095 62.6095 40.6376 62.6814 40.5705C65.4711 38.0636 69.8666 40.4651 69.5262 44.1943C69.4543 44.9852 69.277 45.4693 69.277 45.4693L68.9271 46.5622L68.9175 46.5861L68.1218 49.0643L64.2632 62.2698L75.1584 76.1033Z" fill="#FF4846"/>
<path opacity="0.5" d="M75.1583 76.1037L74.3962 76.7412L61.9144 61.8388L62.8778 61.1821L61.4351 58.8909L63.8365 59.7633L68.9126 46.5913L68.1169 49.0695L64.2583 62.2798L75.1583 76.1037Z" fill="#871A1A"/>
<path opacity="0.5" d="M71.6975 78.9794L71.06 79.5067C71.06 79.5067 56.2822 66.3299 55.6543 64.077C55.3907 63.1423 55.5584 61.3161 55.8412 59.4994C56.2726 56.7672 56.9629 54.0782 57.8496 51.4562C59.0048 48.0338 60.9461 42.6749 62.2786 40.9924C61.0036 44.9373 55.6255 61.7906 56.1959 63.6696C56.7807 65.6061 69.4111 76.9375 71.6975 78.9794Z" fill="#FF7A46"/>
<path d="M70.3695 70.0303C69.7272 69.3401 69.1185 68.6211 68.5097 67.9021C67.901 67.1831 67.3114 66.4497 66.7266 65.7164C66.1466 64.9782 65.5667 64.2352 65.0058 63.4779L64.167 62.3419C63.8986 61.9536 63.6206 61.5749 63.3569 61.1819C63.6829 61.527 63.9849 61.8817 64.3012 62.2364L65.2167 63.3101C65.8255 64.0291 66.4151 64.7625 66.9999 65.4959C67.5798 66.234 68.1598 66.977 68.7206 67.7343C69.2863 68.4869 69.8423 69.249 70.3695 70.0303Z" fill="#911B1A"/>
<path d="M68.9219 46.572C68.6104 47.8998 68.2605 49.2179 67.9105 50.5313C67.5558 51.8495 67.1724 53.1532 66.8081 54.4666C66.415 55.7704 66.0316 57.079 65.6241 58.3779L65.0058 60.324C64.7853 60.9711 64.5792 61.6182 64.3491 62.2605C64.5025 61.5943 64.6751 60.9376 64.838 60.2761L65.3605 58.3012C65.7152 56.9879 66.0987 55.6793 66.463 54.3659C66.856 53.0622 67.2347 51.7536 67.6469 50.4546C68.0544 49.1556 68.4714 47.8566 68.9219 46.572Z" fill="#911B1A"/>
<path d="M79.5821 30.6388C79.4527 30.169 79.1364 29.7472 78.844 29.3446C78.6618 29.0953 78.4893 28.8221 78.3694 28.5345C78.1777 26.1618 77.6073 23.8994 77.2814 23.2427C76.7637 22.2265 73.9836 21.3062 71.2514 21.8191C68.5144 22.3128 66.2472 24.163 66.1273 25.299C66.0842 25.7304 65.8781 27.456 67.34 31.6885C67.8194 33.0498 68.4473 34.3104 69.2382 35.087C70.0147 35.8587 70.7864 36.2901 71.4671 36.525C72.7757 36.9803 73.7391 36.7071 73.7391 36.7071L74.2616 36.6112C74.2616 36.6112 75.5174 36.501 76.7062 35.2643C77.128 34.8281 77.5354 34.2529 77.8805 33.4908C78.1154 32.9635 78.2688 32.3308 78.3551 31.6454C78.7289 31.6406 79.1076 31.5112 79.3952 31.2763C79.5726 31.1325 79.6493 30.8736 79.5821 30.6388Z" fill="#EBAF7F"/>
<path d="M69.3148 30.4904C69.1949 30.3466 69.1422 30.1548 69.0943 29.9775C69.0559 29.7954 69.0319 29.5988 69.0847 29.3927C69.1326 29.1818 69.3339 28.9997 69.5496 28.9613C69.7653 28.9134 69.9906 28.9805 70.1632 29.0859C70.4987 29.3112 70.7575 29.6084 70.8822 29.9871C71.002 30.3658 70.9636 30.7444 70.9013 31.1039C70.8534 30.7396 70.8342 30.3705 70.6904 30.059C70.5466 29.7618 70.2974 29.4886 70.0242 29.3112C69.7605 29.1339 69.3867 29.1626 69.2764 29.455C69.2141 29.5988 69.2093 29.7762 69.2189 29.9535C69.2285 30.1405 69.2524 30.3178 69.3148 30.4904Z" fill="#E48855"/>
<path d="M70.2308 31.2094C70.0726 31.1327 69.9575 30.9745 69.8904 30.8067C69.8185 30.639 69.7993 30.4568 69.8089 30.2795C69.8233 30.0973 69.8808 29.896 70.039 29.7618C70.1828 29.6324 70.4177 29.5844 70.5663 29.6947C70.3937 29.6947 70.2691 29.7905 70.1924 29.9008C70.1205 30.011 70.0869 30.15 70.0774 30.2938C70.0582 30.6054 70.0726 30.9026 70.2308 31.2094Z" fill="#E48855"/>
<path d="M76.1304 32.5417C76.2742 32.5945 76.394 32.6616 76.5234 32.7143C76.648 32.7814 76.7775 32.8246 76.9069 32.906C76.7535 32.9348 76.6049 32.8917 76.4659 32.8389C76.3365 32.7622 76.2071 32.676 76.1304 32.5417Z" fill="#E48855"/>
<path d="M75.7856 31.3916C76.102 31.7128 76.4232 31.9908 76.7922 32.1921C76.9744 32.2975 77.1661 32.379 77.3674 32.4413C77.5688 32.5132 77.7845 32.542 78.0049 32.5899C77.7845 32.6522 77.5544 32.6762 77.3243 32.6379C77.0894 32.6139 76.8689 32.5324 76.6628 32.4174C76.4615 32.3023 76.2746 32.1537 76.126 31.9764C75.9774 31.8086 75.848 31.6121 75.7856 31.3916Z" fill="#E48855"/>
<path d="M77.2192 31.3339C77.2768 31.3004 77.3199 31.2908 77.363 31.2908C77.411 31.286 77.4445 31.3052 77.4781 31.3243C77.5116 31.3483 77.5404 31.3723 77.5548 31.4154C77.5739 31.4538 77.5883 31.5017 77.5787 31.564C77.5164 31.5832 77.4733 31.5784 77.4349 31.5784C77.3918 31.5784 77.363 31.564 77.3343 31.5448C77.3103 31.5257 77.2815 31.5065 77.2624 31.4681C77.248 31.4394 77.2288 31.401 77.2192 31.3339Z" fill="#E48855"/>
<path d="M76.8596 29.3591C76.8596 29.7426 76.6295 30.0541 76.3419 30.0541C76.0543 30.0541 75.8242 29.7426 75.8242 29.3591C75.8242 28.9756 76.0543 28.6641 76.3419 28.6641C76.6295 28.6641 76.8596 28.9756 76.8596 29.3591Z" fill="#1E2A47"/>
<path d="M77.0701 27.341C76.8976 27.3266 76.6866 27.3122 76.4949 27.3218C76.2984 27.3218 76.0971 27.341 75.9005 27.3697C75.704 27.3985 75.5075 27.4512 75.3158 27.5135C75.1192 27.5758 74.9371 27.6621 74.7454 27.7484L74.7358 27.7532C74.6687 27.782 74.5872 27.7532 74.5584 27.6861C74.5345 27.6334 74.5488 27.5711 74.592 27.5327C74.7597 27.3793 74.9419 27.2355 75.148 27.1301C75.3493 27.0102 75.5698 26.9335 75.7903 26.8664C76.0156 26.7993 76.2505 26.7658 76.4805 26.761C76.7202 26.761 76.9407 26.7706 77.1947 26.8473C77.329 26.8856 77.4104 27.0294 77.3673 27.1636C77.3337 27.2835 77.2187 27.3554 77.0989 27.3458L77.0701 27.341Z" fill="#1E2A47"/>
<path d="M77.5255 26.8907C77.5543 26.9913 77.5159 27.1064 77.4392 27.1831C77.3626 27.2598 77.2667 27.3029 77.1708 27.3317H77.166C77.0941 27.3556 77.0174 27.3125 76.9935 27.2406C76.9695 27.1687 77.0126 27.092 77.0845 27.068C77.0989 27.0632 77.1181 27.0632 77.1325 27.0632C77.2044 27.068 77.2715 27.0632 77.329 27.0393C77.3578 27.0249 77.3817 27.0105 77.4009 26.9865C77.4201 26.9626 77.4345 26.929 77.4392 26.9003V26.8907C77.444 26.8667 77.4632 26.8523 77.4872 26.8571C77.5111 26.8619 77.5255 26.8763 77.5255 26.8907Z" fill="#1E2A47"/>
<path d="M75.5989 33.3949C75.5989 34.7035 74.5348 35.7676 73.2262 35.7676C71.9176 35.7676 70.8535 34.7035 70.8535 33.3949C70.8535 32.0863 71.9176 31.0222 73.2262 31.0222C74.5348 31.0222 75.5989 32.0863 75.5989 33.3949Z" fill="#E9A770"/>
<path d="M72.7798 25.8123C72.9524 27.418 72.4587 29.0861 71.4377 30.3419C71.3418 29.5942 70.7666 28.9279 70.0476 28.693C69.6929 28.578 69.2759 28.578 68.9835 28.8033C68.624 29.0765 68.5569 29.599 68.6432 30.04C68.7918 30.8069 69.3239 31.4875 70.0285 31.8135C69.9182 32.2976 69.645 32.8153 69.4293 33.2611C69.2088 33.7068 68.8781 34.1143 68.4275 34.3252C67.1093 32.7482 66.352 30.7733 66.4335 28.7218C66.4766 27.6433 66.1747 26.4689 66.6061 25.4767C67.0327 24.4845 67.8044 23.6601 68.7055 23.0657C69.6067 22.4713 70.6372 22.0926 71.687 21.8482C72.0129 21.7715 72.3484 21.7092 72.6792 21.7284C73.0147 21.7475 73.3502 21.8578 73.5899 22.0926C73.8967 22.3898 74.0021 22.8404 74.0069 23.2718C74.0309 24.2976 73.5899 25.1699 72.7798 25.8123Z" fill="#1E2A47"/>
<path d="M69.4541 21.3926C69.4541 21.3926 69.0275 21.1241 69.3918 20.8222C69.7609 20.5202 70.4511 20.5873 70.3457 21.0618L69.4541 21.3926Z" fill="#FF814F"/>
<path d="M66.4197 29.6803C66.4197 29.6803 64.258 25.2082 67.8002 22.3226C71.3425 19.4418 76.989 20.3717 78.0052 24.2735L74.0171 26.464L66.4197 29.6803Z" fill="#FF4846"/>
<path d="M70.0288 21.0764C70.0288 21.0764 74.2565 23.2909 73.921 26.4881L78.8533 24.4605C78.8533 24.4605 76.6771 18.7517 70.0288 21.0764Z" fill="#C42C2B"/>
<path d="M65.8254 27.5282C65.8254 27.5282 66.1322 27.2406 66.554 27.4467C66.7889 27.5617 66.947 27.7918 67.0141 28.0411L67.1436 28.5348L66.1513 28.971C66.1513 28.9758 65.8158 28.1321 65.8254 27.5282Z" fill="#1E2A47"/>
<path d="M71.2465 27.6383C71.2465 27.6383 78.4317 24.7096 78.4365 23.6599C78.4365 23.6599 81.8349 22.2794 83.0093 23.7653C84.1837 25.2512 70.2495 28.0601 70.2495 28.0601L71.2465 27.6383Z" fill="#FF814F"/>
<defs>
<linearGradient id="paint0_linear_553_1219" x1="25.9289" y1="147.397" x2="26.0513" y2="163.674" gradientUnits="userSpaceOnUse">
<stop offset="0.2352" stop-color="#9C9C9C"/>
<stop offset="1" stop-color="white" stop-opacity="0"/>
</linearGradient>
<radialGradient id="paint1_radial_553_1219" cx="0" cy="0" r="1" gradientUnits="userSpaceOnUse" gradientTransform="translate(143.017 151.043) scale(25.898 2.27125)">
<stop offset="0.4081" stop-color="#9C9C9C"/>
<stop offset="1" stop-color="white" stop-opacity="0"/>
</radialGradient>
<radialGradient id="paint2_radial_553_1219" cx="0" cy="0" r="1" gradientUnits="userSpaceOnUse" gradientTransform="translate(75.1588 150.511) scale(24.9236 1.77705)">
<stop offset="0.4081" stop-color="#9C9C9C"/>
<stop offset="1" stop-color="white" stop-opacity="0"/>
</radialGradient>
</defs>
</svg>
