<svg width="164" height="200" viewBox="0 0 164 200" fill="none" xmlns="http://www.w3.org/2000/svg">
<path d="M81.5543 180.645C126.596 180.645 163.109 144.132 163.109 99.0904C163.109 54.0492 126.596 17.5361 81.5543 17.5361C36.5131 17.5361 0 54.0492 0 99.0904C0 144.132 36.5131 180.645 81.5543 180.645Z" fill="#FFF0DA"/>
<path d="M62.92 195.328C61.5773 193.732 59.3456 193.087 57.2635 193.26C55.186 193.428 53.5212 194.358 51.7022 195.374C50.1146 196.258 49.5703 197.701 47.6697 198.358L46.082 198.826C46.2816 198.916 47.0936 199.338 47.3113 199.37C51.6161 199.955 55.9843 199.751 60.3208 199.542C61.5138 199.483 62.9155 199.306 63.4961 198.263C64.0132 197.338 63.6004 196.14 62.92 195.328Z" fill="#172F35"/>
<path d="M144.395 31.4681C147.141 19.5813 139.731 7.7188 127.844 4.97249C115.957 2.22619 104.095 9.63605 101.349 21.5229C98.6023 33.4097 106.012 45.2722 117.899 48.0185C129.786 50.7648 141.648 43.355 144.395 31.4681Z" fill="#FFA726"/>
<path d="M142.377 31.2053C144.981 20.4277 138.356 9.5793 127.578 6.97471C116.8 4.37013 105.952 10.9957 103.347 21.7733C100.743 32.5509 107.368 43.3993 118.146 46.0039C128.924 48.6085 139.772 41.9829 142.377 31.2053Z" fill="#F8F4D9"/>
<path d="M141.802 33.1587C142.07 32.4012 142.288 31.6255 142.465 30.8317H140.501V16.8923C139.843 15.6857 139.058 14.5517 138.174 13.5129V30.8362H110.617V21.9954H134.572V10.188C133.833 9.65725 133.057 9.17189 132.245 8.7455V19.6775H116.545V7.43457C115.747 7.69766 114.971 8.01065 114.218 8.369V19.6729H108.29V27.1167H102.806C102.828 27.9059 102.896 28.6816 103.005 29.4437H108.29V40.294C109.011 41.0515 109.787 41.7546 110.617 42.3987V33.1587H141.802Z" fill="#FFC088"/>
<path d="M131.519 33.4668L122.919 24.3674L114.323 33.4668H116.949V42.3485H128.893V33.4668H131.519Z" fill="#1E2A47"/>
<path d="M126.942 14.3658C126.942 16.6293 122.842 20.5621 122.842 20.5621C122.842 20.5621 118.741 16.6293 118.741 14.3658C118.741 12.1023 120.578 10.2651 122.842 10.2651C125.11 10.2651 126.942 12.1023 126.942 14.3658Z" fill="#FFA726"/>
<path d="M122.864 16.1438C123.935 16.1438 124.801 15.2774 124.801 14.2069C124.801 13.1364 123.935 12.27 122.864 12.27C121.794 12.27 120.927 13.1364 120.927 14.2069C120.927 15.2774 121.794 16.1438 122.864 16.1438Z" fill="#FFC088"/>
<path d="M69.7964 54.7413C70.2908 54.4056 70.7898 53.9021 70.7082 53.3079C70.6084 52.564 69.7147 52.2601 68.9754 52.1376C63.9494 51.3029 58.7828 51.6432 53.7704 52.5685C48.758 53.4939 43.8772 54.9953 39.0054 56.4968C38.1663 56.7553 37.1729 57.1999 37.1139 58.0753C37.0776 58.597 37.4314 59.0823 37.8805 59.3545C38.3296 59.6221 38.8603 59.7128 39.3774 59.7809C42.4846 60.1846 45.6372 59.9487 48.749 59.5904C54.4327 58.9326 60.071 57.8667 65.6051 56.406C67.0657 56.0159 68.549 55.5896 69.7964 54.7413Z" fill="#172F35"/>
<path d="M118.337 80.3975C118.083 76.238 117.539 72.0375 118.237 67.9324C115.656 67.6511 113.075 67.3699 110.499 67.0841C109.927 69.8013 109.242 72.5002 108.453 75.1629C108.263 74.7728 108.077 74.3782 107.904 73.979C106.852 71.534 106.185 68.9439 105.232 66.4582C104.28 63.9724 102.992 61.532 100.969 59.8083C100.225 59.1732 99.2584 58.6198 98.3149 58.8693C97.7116 59.028 97.2399 59.4907 96.8452 59.9716C95.7384 61.3324 95.058 62.9835 94.5636 64.6664C93.7743 67.3518 93.4296 70.2367 94.0782 72.9584C95.3347 78.2202 99.9389 81.9262 102.67 86.5938C103.413 87.8685 104.162 88.8165 104.865 90.1184C106.103 92.5225 105.976 93.0033 106.648 94.0739C107.927 96.1151 111.043 96.6821 113.393 96.165C115.534 95.6932 115.774 94.6273 116.722 92.6495C118.523 88.8936 118.591 84.5526 118.337 80.3975Z" fill="#FFC19A"/>
<path d="M112.377 69.0209C112.414 68.8984 112.341 68.7668 112.218 68.7306C112.096 68.6943 111.964 68.7668 111.933 68.8893C110.123 75.0901 109.089 81.5132 108.857 87.9772C108.807 89.3607 108.803 90.8213 109.302 92.1504C109.361 92.3091 109.429 92.4634 109.492 92.6176C109.701 93.112 109.901 93.5792 109.869 94.0646C109.846 94.3957 109.615 94.7541 109.315 94.9083C109.234 94.9537 109.125 94.99 109.007 94.9809C109.138 94.686 109.256 94.3594 109.27 94.0102C109.288 93.5656 109.084 93.0213 108.603 92.8172C108.444 92.7491 108.281 92.731 108.141 92.7174C108.054 92.7083 107.973 92.6992 107.891 92.6766C107.22 92.5042 106.988 91.6015 106.825 90.7623C106.172 87.4283 104.457 84.4753 102.806 81.6221L101.413 79.218C101.4 79.413 101.377 79.5854 101.336 79.8213C101.327 79.8666 101.309 79.8984 101.291 79.9347L102.407 81.858C104.04 84.6794 105.732 87.5961 106.371 90.8531C106.521 91.606 106.766 92.8716 107.782 93.1256C107.882 93.1529 107.991 93.1665 108.095 93.1755C108.218 93.1891 108.336 93.2027 108.431 93.2436C108.708 93.3615 108.825 93.7153 108.816 93.992C108.803 94.3413 108.644 94.686 108.49 95.0172C108.44 95.126 108.476 95.2531 108.581 95.312C108.726 95.4027 108.889 95.4436 109.052 95.4436C109.211 95.4436 109.379 95.4027 109.542 95.3166C109.982 95.0852 110.313 94.5817 110.345 94.0873C110.381 93.4931 110.155 92.9533 109.932 92.4316C109.869 92.2819 109.805 92.1322 109.746 91.9825C109.275 90.7351 109.284 89.3244 109.329 87.9908C109.547 81.5722 110.576 75.1899 112.377 69.0209Z" fill="#FFC19A"/>
<path d="M99.5532 85.1106C100.814 78.5378 101.327 71.8108 100.878 65.1382C101.826 67.7782 102.783 70.4545 103.046 73.2532C103.436 77.4537 102.157 81.7902 99.5532 85.1106Z" fill="#172F35"/>
<path d="M110.998 70.1504C111.724 70.6448 112.59 70.9351 113.466 70.9805C114.554 71.0349 115.634 70.7174 116.609 70.2366C117.199 69.9463 117.798 69.5471 117.997 68.9211C118.133 68.4947 118.061 68.032 117.984 67.5875C117.866 66.9025 117.748 66.213 117.634 65.5281C117.593 65.2968 117.548 65.0518 117.398 64.8704C117.194 64.6254 116.854 64.5528 116.541 64.5075C115.262 64.3306 113.955 64.3669 112.69 64.6209C111.887 64.7842 111.016 65.1017 110.662 65.8411C110.499 66.1813 110.472 66.5669 110.449 66.9434C110.408 67.5557 110.367 68.1636 110.331 68.7759C110.318 69.0027 110.304 69.2341 110.376 69.4518C110.481 69.7512 110.735 69.9689 110.998 70.1504Z" fill="#172F35"/>
<path d="M113.588 56.9551C113.706 57.0049 113.842 56.9641 113.96 56.9188C114.754 56.6375 115.547 56.3563 116.346 56.075C115.434 54.5917 114.341 53.2173 113.107 51.988C113.193 53.4759 113.279 54.9637 113.361 56.4515C113.375 56.6466 113.411 56.8779 113.588 56.9551Z" fill="#FFC088"/>
<path d="M112.789 62.9789H105.935C105.532 62.9789 105.205 62.6523 105.205 62.2486V48.4498C105.205 48.0461 105.532 47.7195 105.935 47.7195H112.789C113.193 47.7195 113.52 48.0461 113.52 48.4498V62.244C113.524 62.6523 113.193 62.9789 112.789 62.9789Z" fill="#FFC19A"/>
<path d="M105.967 61.9807C106.158 62.3481 106.648 62.4116 107.061 62.4162C108.639 62.4434 110.218 62.3028 111.792 62.1576C111.964 62.144 112.15 62.1213 112.282 62.0125C112.431 61.89 112.486 61.6904 112.527 61.4999C113.139 58.7964 113.289 55.9885 112.976 53.2351C110.875 53.031 108.775 52.8314 106.675 52.6273C106.403 52.6001 106.094 52.5865 105.899 52.777C105.713 52.9584 105.704 53.2487 105.709 53.5073C105.763 56.1518 105.818 58.7918 105.872 61.4364C105.877 61.6269 105.886 61.8174 105.967 61.9807Z" fill="#172F35"/>
<path d="M116.99 64.5211C116.968 62.3846 116.931 58.7512 116.913 56.7735C116.904 55.7483 116.11 55.2856 115.217 55.0498C114.418 54.8411 105.927 53.0902 105.931 53.072C105.859 53.5029 106.031 53.952 106.299 54.2968C106.566 54.6415 106.925 54.9091 107.278 55.1677C106.879 55.4535 106.476 55.7438 106.158 56.1203C105.841 56.4968 105.618 56.9776 105.65 57.4675C105.677 57.9574 106.004 58.4473 106.48 58.5698C106.19 58.9463 105.886 59.3545 105.85 59.8263C105.813 60.3025 106.172 60.8378 106.643 60.797C106.471 61.3685 106.376 61.9628 106.371 62.5615C107.528 63.0786 108.399 64.19 108.617 65.4329C108.907 65.4283 109.17 65.2197 109.311 64.9656C109.32 64.9475 109.329 64.9248 109.338 64.9067C110.055 65.5689 110.826 66.1632 111.388 66.9706C113.271 67.2564 115.248 67.0477 116.972 66.2584C116.999 65.6823 116.999 65.0972 116.99 64.5211Z" fill="#FFC088"/>
<path d="M30.3783 61.0102C27.4298 64.2217 26.3548 68.7488 26.0826 73.1034C25.688 79.4494 26.7585 85.7999 28.201 91.9917C29.2624 96.5459 30.5507 101.096 32.7371 105.228C34.928 109.36 38.0942 113.084 42.222 115.289C48.5 118.637 56.1206 118.083 63.0653 116.555C70.0101 115.021 76.8414 112.59 83.954 112.44C86.3627 112.39 89.1932 112.413 90.6221 110.476C91.5973 109.156 91.5429 107.364 91.434 105.727C91.053 99.9117 90.5767 94.1055 89.9961 88.3084C89.4245 82.6156 88.7532 76.891 87.0703 71.4205C85.3874 65.95 82.6295 60.6972 78.42 56.8234C76.3606 54.9273 73.9338 53.3669 71.2258 52.6502C68.4043 51.9063 65.4286 52.1058 62.521 52.378C56.2476 52.9677 50.0014 53.8704 43.8142 55.0724C38.9243 56.0159 33.7531 57.336 30.3783 61.0102Z" fill="#FFA726"/>
<path d="M26.5268 38.4613L27.8785 54.9545C28.0554 57.0955 29.9651 58.6423 32.0563 58.3384L72.0918 52.5368C74.0196 52.2555 75.3986 50.5001 75.2353 48.5269L73.9742 33.2856C73.8019 31.1899 71.9602 29.6567 69.9054 29.8881L29.7791 34.4378C27.8059 34.6646 26.3635 36.4473 26.5268 38.4613Z" fill="#172F35"/>
<path d="M29.1168 38.9694L30.4232 54.6552C30.591 56.6919 32.4417 58.1661 34.4648 57.8758L73.1713 52.3599C75.0356 52.0923 76.3647 50.423 76.2104 48.545L74.9902 34.0477C74.8224 32.0564 73.0442 30.5957 71.0574 30.818L32.2603 35.1454C30.3551 35.3586 28.958 37.0551 29.1168 38.9694Z" fill="#FFC19A"/>
<path d="M72.1417 57.8261C63.183 58.3477 54.2832 59.8446 45.651 62.276C45.093 62.4347 44.9025 63.1423 45.3108 63.5506C45.9368 64.1811 46.5264 64.9976 46.7306 65.2879C51.9924 72.7815 51.87 82.7881 52.1421 91.5428C52.3644 98.7416 52.1104 105.945 51.8473 113.144C51.811 114.092 51.8382 115.198 52.5957 115.765C53.1174 116.156 53.8205 116.151 54.4691 116.133C66.8799 115.738 79.2589 114.296 91.4292 111.828C92.0642 95.0855 90.6308 80.2343 85.4143 67.7964C84.7158 66.1362 79.8576 59.7403 78.3244 58.7922C76.5191 57.6673 74.2555 57.7036 72.1417 57.8261Z" fill="#172F35"/>
<path d="M45.6739 69.1481C44.9436 67.2747 43.7642 65.179 42.5258 63.6005C41.2875 62.0174 39.591 60.7246 37.6314 60.2982C34.2157 59.5588 30.6231 61.6998 28.8994 64.7436C31.0631 62.8656 34.2747 62.4664 37.0009 63.3555C39.7271 64.2401 41.977 66.2677 43.56 68.6537C45.1477 71.0396 46.1275 73.7749 46.9122 76.5283C50.5003 89.0797 50.346 102.393 49.3073 115.407C51.2805 99.812 51.3848 83.7951 45.6739 69.1481Z" fill="#FFC088"/>
<path d="M99.5305 103.854H65.3965V111.111H99.5305V103.854Z" fill="#172F35"/>
<path d="M100.81 59.9895C100.637 59.359 100.433 58.7103 99.9794 58.2431C99.0314 57.2724 97.4664 57.4539 96.1192 57.2996C93.6244 57.0093 91.4788 55.3128 90.0545 53.2353C85.1373 55.4807 79.4083 55.9116 75.0037 52.3689C74.541 52.7998 74.0557 53.2081 73.5522 53.5846C70.9621 55.526 67.9093 56.7689 64.8021 57.6852C63.7225 58.0027 62.5703 58.3202 61.8037 59.1413C60.452 60.5838 60.8239 62.8654 61.2276 64.8023C63.8087 77.2675 63.6998 90.2815 60.9328 102.706C60.4792 104.752 61.8355 106.757 63.8994 107.133C76.3056 109.415 89.2244 108.893 101.404 105.6C97.6433 90.7669 104.819 74.7454 100.81 59.9895Z" fill="#FFC19A"/>
<path d="M82.9964 69.9373C80.2793 70.8082 77.3898 71.1303 74.5457 70.8808C74.5412 69.7785 74.5412 68.6808 74.5366 67.5785C77.3445 67.3472 80.1387 66.9843 82.9102 66.4944C82.9375 67.642 82.9647 68.7896 82.9964 69.9373Z" fill="#1E2A47"/>
<path d="M82.9238 55.4988C85.0739 57.7941 85.1329 61.2914 85.083 64.4349C84.8335 79.6671 84.9288 94.9038 85.3688 110.131C86.7296 110.013 88.0859 109.9 89.4467 109.782C89.1247 95.4753 88.8026 81.1685 88.4805 66.8662C88.3943 62.9788 88.2991 59.0415 87.2513 55.2947C85.8088 55.3627 84.3663 55.4308 82.9238 55.4988Z" fill="#172F35"/>
<path d="M87.5915 91.243C87.215 83.4001 86.8294 75.2896 87.4373 67.2471C87.7684 62.8426 86.9111 59.3861 85.9313 55.8071C85.7771 55.8434 85.6274 55.8706 85.4731 55.8978C86.4439 59.4496 87.3012 62.8744 86.9746 67.2109C86.3668 75.276 86.7523 83.4047 87.1288 91.2612C87.2513 93.7878 87.3738 96.4006 87.4645 98.9861C87.5779 102.243 87.6958 105.609 87.2286 108.879C87.2105 109.006 87.3012 109.124 87.4282 109.142C87.4373 109.142 87.4509 109.147 87.46 109.147C87.5734 109.147 87.6732 109.065 87.6913 108.947C88.1631 105.636 88.0451 102.248 87.9317 98.9725C87.841 96.3824 87.714 93.7696 87.5915 91.243Z" fill="#FFC19A"/>
<path d="M73.6572 53.4394C76.1884 55.4126 79.3273 56.5965 82.5298 56.7916C85.7323 56.9866 88.9892 56.1883 91.7426 54.5326C91.0758 53.9656 90.5587 53.2217 90.2593 52.4006C87.9051 53.4349 85.3376 54.1062 82.7748 53.893C80.2119 53.6798 77.6581 52.505 76.1611 50.4138C75.6123 51.6204 74.7368 52.6728 73.6572 53.4394Z" fill="#172F35"/>
<path d="M85.088 146.271C84.2624 146.271 81.1053 146.271 80.2752 146.271C74.1787 146.271 69.2344 156.513 69.2344 169.146C69.2344 181.779 74.1787 192.021 80.2752 192.021C81.1008 192.021 84.2579 192.021 85.088 192.021C91.1845 192.021 96.1288 181.779 96.1288 169.146C96.1243 156.513 91.1845 146.271 85.088 146.271Z" fill="#172F35"/>
<path d="M77.9981 185.267C80.8415 185.267 83.1465 178.05 83.1465 169.146C83.1465 160.243 80.8415 153.025 77.9981 153.025C75.1546 153.025 72.8496 160.243 72.8496 169.146C72.8496 178.05 75.1546 185.267 77.9981 185.267Z" fill="#FFC19A"/>
<path d="M76.8363 179.443C79.2187 179.443 81.1501 173.399 81.1501 165.943C81.1501 158.488 79.2187 152.444 76.8363 152.444C74.4538 152.444 72.5225 158.488 72.5225 165.943C72.5225 173.399 74.4538 179.443 76.8363 179.443Z" fill="#172F35"/>
<path d="M116.505 125.654C111.96 119.92 105.165 116.024 97.9205 114.999C90.6764 113.973 83.0648 115.829 77.1044 120.075C74.9633 121.599 72.9811 123.49 71.9332 125.903C70.3955 129.446 71.0805 133.51 71.7926 137.303C73.6751 147.332 75.5576 157.357 77.4446 167.386C77.6623 168.552 77.9027 169.763 78.6058 170.715C79.5312 171.967 81.0916 172.562 82.5885 172.988C93.7201 176.181 105.6 173.882 116.945 171.564C119.236 171.096 121.758 170.48 123.064 168.543C123.781 167.481 124.012 166.175 124.189 164.909C125.096 158.509 125.101 151.981 124.203 145.581C123.196 138.45 120.982 131.301 116.505 125.654Z" fill="#172F35"/>
<path d="M78.7647 137.398C77.1317 133.325 74.7639 128.212 70.2278 126.96C66.3994 125.904 62.2352 127.909 59.6996 130.966C57.1639 134.023 55.9618 137.947 55.0319 141.807C52.5462 152.149 53.0769 163.245 56.6241 173.274C65.8051 174.295 73.2126 174.852 82.8472 174.449C83.4278 174.426 83.4732 163.93 83.455 162.918C83.3825 159.017 83.0151 155.125 82.3664 151.278C81.5998 146.742 80.6109 142.025 78.8781 137.67C78.8373 137.584 78.801 137.493 78.7647 137.398Z" fill="#FFA726"/>
<path d="M78.6511 140.133C80.6833 145.186 80.6334 150.888 79.4858 156.214C78.3381 161.539 76.1517 166.579 73.979 171.573C73.6161 172.412 72.9402 173.41 72.0557 173.174C71.3979 172.997 71.1303 172.23 70.967 171.568C69.7196 166.633 68.4722 161.67 68.0276 156.599C67.5876 151.528 67.9868 146.298 69.9418 141.594C70.5769 140.07 71.4251 138.55 72.795 137.634C74.1695 136.717 76.1835 136.586 77.381 137.724L78.6511 140.133Z" fill="#172F35"/>
<path d="M88.721 172.19C84.8653 171.763 80.6332 171.151 78.0703 168.234C77.5713 169.827 78.2744 171.609 79.4493 172.798C80.6241 173.986 82.2027 174.68 83.7676 175.252C95.1396 179.416 107.714 178.554 119.671 176.64C120.26 174.921 118.319 177.17 118.904 175.451C108.371 178.54 99.6394 173.396 88.721 172.19Z" fill="#FFA726"/>
<path d="M46.5444 176.553C52.4232 180.763 59.9803 182.555 66.8933 180.427C60.4974 177.415 53.5663 175.728 46.5444 176.553Z" fill="#172F35"/>
<path d="M62.7747 186.379C63.0922 183.027 63.4097 179.674 63.7273 176.318C59.5087 176.508 55.272 176.25 51.1124 175.542C50.8675 178.64 50.432 181.72 49.8105 184.764C54.1289 185.304 58.4518 185.843 62.7747 186.379Z" fill="white"/>
<path d="M136.028 137.366C133.415 131.161 131.9 124.506 131.052 117.811C130.049 109.9 129.95 101.903 129.85 93.9287C123.776 93.28 117.58 93.788 111.692 95.4165C115.715 110.327 120.583 125.795 129.328 139.262C131.578 138.75 133.81 138.06 136.028 137.366Z" fill="#FFC088"/>
<path d="M58.2976 181.285C59.7174 181.521 61.1009 182.165 62.0217 183.267C63.6094 185.168 63.5186 187.921 63.2056 190.375C62.8927 192.829 62.4663 195.464 63.5867 197.669C57.9211 197.651 52.2555 197.905 46.6126 198.44C46.0275 194.444 46.2679 190.171 48.2638 186.66C50.2642 183.153 54.3104 180.627 58.2976 181.285Z" fill="#0C4E5F"/>
<path d="M56.7915 180.831C56.0884 180.903 55.3263 181.121 54.9453 181.72C54.7412 182.042 54.6777 182.427 54.6323 182.804C54.3057 185.458 54.596 188.188 55.467 190.715C55.5985 191.1 55.7799 191.518 56.1519 191.686C56.3969 191.794 56.6781 191.772 56.9457 191.758C58.7329 191.649 60.5474 191.931 62.2167 192.575C62.0307 189.935 62.1214 187.272 62.4934 184.65C62.5931 183.943 62.702 183.162 62.321 182.554C62.0942 182.192 61.7267 181.947 61.3548 181.743C59.9758 180.99 58.3564 180.667 56.7915 180.831Z" fill="#F15A36"/>
<path d="M49.0488 187.453C49.4343 186.991 49.9696 186.546 50.5638 186.632C51.0583 186.705 51.4257 187.136 51.6616 187.576C52.1378 188.474 52.2694 189.508 52.5098 190.497C52.7548 191.486 53.1675 192.507 54.0158 193.069C52.4644 194.335 50.6092 195.233 48.6541 195.668C48.2731 195.754 47.8739 195.822 47.4884 195.75C47.1028 195.677 46.7263 195.441 46.5857 195.079C46.4677 194.775 46.5267 194.439 46.5857 194.117C47.0257 191.763 47.5201 189.3 49.0488 187.453Z" fill="#FFC19A"/>
<path d="M64.0267 195.392C63.945 193.595 63.505 191.649 62.0988 190.529C60.4386 189.209 57.9755 189.495 56.0749 190.443C54.6234 191.169 53.3623 192.212 52.0015 193.101C50.6407 193.986 49.112 194.734 47.4926 194.729C46.9755 194.729 46.4085 194.666 45.9957 194.979C45.5285 195.328 45.4741 195.995 45.4559 196.576C45.4378 197.229 45.4378 197.941 45.8506 198.445C46.286 198.984 47.0481 199.116 47.7376 199.188C52.1512 199.665 56.6056 199.374 61.0329 199.084C61.6815 199.043 62.3619 198.989 62.9063 198.635C63.9178 197.982 64.0811 196.589 64.0267 195.392Z" fill="#FFC088"/>
<path d="M94.1739 33.1406C95.6028 38.094 94.6638 43.6734 91.6972 47.8875C91.0758 48.772 90.3364 49.6202 89.3566 50.0784C87.5467 50.9266 85.4238 50.2462 83.5459 49.5613C81.4321 48.7901 79.2366 47.9646 77.6898 46.327C76.2337 44.7848 75.5261 42.6755 75.1723 40.5844C74.7549 38.085 74.823 35.3815 76.1248 33.2087C77.7442 30.5006 81.0102 29.1262 84.1628 28.972C87.3154 28.8177 90.4135 29.6887 93.4482 30.5551L94.1739 33.1406Z" fill="#172F35"/>
<path d="M90.54 53.8932C90.3041 53.5939 90.0773 53.2854 89.8731 52.9679C88.4533 50.7679 87.714 48.2141 86.9927 45.6965C84.3573 45.7374 81.7173 45.7736 79.0818 45.8145C78.5284 47.9283 77.3808 49.838 75.8975 51.4574C79.9482 54.5918 85.6002 54.9139 90.54 53.8932Z" fill="#FFC088"/>
<path d="M93.3932 38.8605C93.3751 38.7652 93.357 38.6745 93.3343 38.5792C93.18 37.8852 92.8671 37.0596 93.2209 36.3701C93.7743 35.2951 93.6881 35.032 92.9669 32.8093L92.1912 31.0765C90.3904 29.126 87.6642 28.1961 85.006 28.1689C82.3479 28.1417 79.7442 28.931 77.3037 29.9743C76.4918 30.3235 75.6073 30.7862 75.3351 31.6299C75.1809 32.1108 75.2534 32.6279 75.3351 33.1223C75.6571 35.0955 76.0472 37.0596 76.4374 39.0192C76.7503 40.5978 77.0724 42.2035 77.8209 43.6324C78.7689 45.4423 80.3248 46.844 81.8534 48.2048C82.4749 48.7582 83.1099 49.3207 83.8675 49.6609C85.3145 50.3095 87.0654 50.0419 88.4353 49.239C89.8052 48.4361 90.8349 47.1524 91.6287 45.7735C92.477 44.2992 93.0893 42.6889 93.4295 41.0242C93.5747 40.312 93.5248 39.5726 93.3932 38.8605Z" fill="#FFC088"/>
<path d="M81.8446 36.9872C82.8244 35.9847 84.0764 35.5175 85.4146 35.6264C85.4644 35.4222 85.5642 35.2272 85.7094 35.073C84.1671 34.887 82.5659 35.5583 81.5498 36.7377C81.6677 36.7967 81.763 36.8874 81.8446 36.9872Z" fill="#0C4E5F"/>
<path d="M84.0855 39.1236C83.9449 39.1372 83.7952 39.1463 83.6728 39.0737C83.5594 39.0102 83.4913 38.8877 83.4505 38.7653C83.3643 38.5248 83.3598 38.2617 83.4278 38.0168C83.5004 37.7764 83.6501 37.5587 83.8678 37.4362C84.0855 37.3137 84.3713 37.3092 84.5754 37.4453C84.8295 37.6131 84.9156 37.9442 84.9474 38.2481C84.9655 38.3888 84.9746 38.5385 84.9202 38.67C84.8612 38.8242 84.7206 38.9422 84.5664 39.0102C84.4212 39.0873 84.2534 39.11 84.0855 39.1236Z" fill="#0C4E5F"/>
<path d="M84.643 38.1256C84.5613 37.9849 84.4116 37.8534 84.2483 37.8852C84.076 37.9214 83.9898 38.112 83.9626 38.2843C83.9444 38.4068 83.9399 38.5338 83.9807 38.6518C84.0215 38.7697 84.1077 38.874 84.2256 38.9148C84.4071 38.9783 84.6203 38.8559 84.6974 38.6835C84.7745 38.5066 84.7382 38.2934 84.643 38.1256Z" fill="#172F35"/>
<path d="M83.9036 38.2663C83.9625 38.2709 84.017 38.2391 84.0578 38.1938C84.1349 38.1076 84.1531 37.9579 84.0669 37.8853C84.0124 37.8399 83.9308 37.8354 83.8718 37.8672C83.8083 37.8989 83.7675 37.9624 83.7539 38.0305C83.7312 38.1348 83.7992 38.2618 83.9036 38.2663Z" fill="white"/>
<path d="M91.4885 35.59C92.0238 35.59 92.491 35.9075 92.7223 36.3566C92.7269 36.3611 92.7269 36.3656 92.7314 36.3702C92.8312 36.3339 92.8993 36.216 92.8856 36.1026C92.872 35.9665 92.7813 35.8531 92.6906 35.7533C92.5046 35.5492 92.2869 35.3677 92.0374 35.2498C91.7879 35.1318 91.4976 35.0819 91.23 35.1454C91.0531 35.1863 90.8762 35.2861 90.7945 35.4494C90.7446 35.5537 90.7491 35.6807 90.799 35.7805C91.0032 35.6671 91.239 35.59 91.4885 35.59Z" fill="#0C4E5F"/>
<path d="M91.3525 38.035C91.3344 37.8626 91.4024 37.6857 91.4977 37.5406C91.6338 37.3319 91.8742 37.155 92.1191 37.2094C92.2824 37.2457 92.4095 37.3818 92.4775 37.536C92.5455 37.6902 92.5637 37.8626 92.5728 38.0305C92.5864 38.2346 92.5864 38.4705 92.4276 38.5975C92.2915 38.7063 92.0965 38.6882 91.9332 38.6383C91.6519 38.5476 91.3843 38.3298 91.3525 38.035Z" fill="#0C4E5F"/>
<path d="M92.2366 37.7403C92.1685 37.6632 92.0687 37.5951 91.9735 37.6269C91.9009 37.6541 91.8555 37.7312 91.8283 37.8038C91.783 37.9172 91.7512 38.0397 91.7694 38.1576C91.7875 38.2755 91.8646 38.3935 91.9825 38.4298C92.1413 38.4797 92.3182 38.3572 92.3636 38.1984C92.4089 38.0397 92.3454 37.8673 92.2366 37.7403Z" fill="#172F35"/>
<path d="M91.8423 37.8445C91.8877 37.849 91.9285 37.8218 91.9603 37.79C92.0192 37.7265 92.0328 37.6086 91.9648 37.5542C91.924 37.5224 91.865 37.5179 91.8151 37.5405C91.7698 37.5632 91.738 37.6131 91.7244 37.663C91.7108 37.7447 91.7607 37.8399 91.8423 37.8445Z" fill="white"/>
<path d="M92.2049 38.7789C90.7443 37.9351 88.0952 38.298 86.5166 38.5657C84.9381 38.8333 83.0465 39.7813 81.6222 40.5116C81.223 40.7158 80.8057 40.9607 80.6379 41.3735C80.5381 41.6139 80.5381 41.877 80.5381 42.1356C80.5472 43.4601 80.6107 44.7846 80.7195 46.1001C80.7558 46.531 80.8012 46.9665 80.9781 47.3611C81.1641 47.7648 81.4771 48.0869 81.8127 48.3818C82.3208 48.8308 82.8923 49.2209 83.5319 49.4477C84.5616 49.8152 87.3513 50.4139 88.3674 50.0147C89.3835 49.6156 89.2927 49.5747 90.0321 48.7764C91.5063 47.1888 92.654 45.5603 93.4433 43.5417C93.7925 42.6481 94.1826 41.056 93.8288 40.557C93.5657 40.1896 92.6041 39.0102 92.2049 38.7789Z" fill="#1E2A47"/>
<path d="M87.6004 38.9057C85.3369 39.0781 83.146 40.0125 81.4404 41.5049C81.6582 43.6822 81.7126 45.6191 81.9984 47.7965C82.2615 48.2773 82.8149 49.0393 83.1914 49.3206C84.3753 50.2097 85.5501 50.4138 87.0153 50.6406C89.3242 50.9944 90.8664 49.502 92.132 47.5379C93.3976 45.5738 93.9419 42.7659 94.1868 40.4435C92.1184 38.7878 90.2404 38.7061 87.6004 38.9057Z" fill="#1E2A47"/>
<path d="M81.7762 42.1809C79.9708 41.2147 78.7733 40.5434 77.6166 39.8902L76.8999 39.4865L77.1267 39.0828L77.8434 39.4865C79.0001 40.1397 80.1976 40.811 81.9985 41.7727L81.7762 42.1809Z" fill="#1E2A47"/>
<path d="M77.9698 44.3456L77.7651 44.7656L82.2998 46.975L82.5044 46.5549L77.9698 44.3456Z" fill="#1E2A47"/>
<path d="M79.9214 36.1069C82.0715 34.3832 89.166 34.7869 93.5478 34.4603C93.4571 34.0294 93.2439 33.662 92.9717 32.8137L92.1961 31.0809C90.3952 29.1304 87.6691 28.2005 85.0109 28.1733C82.3528 28.1461 79.749 28.9354 77.3086 29.9787C76.4967 30.3279 75.6121 30.7906 75.34 31.6343C75.1857 32.1152 75.2583 32.6323 75.34 33.1267C75.662 35.0999 76.0521 37.064 76.4422 39.0236C76.7552 40.6022 77.0773 42.2079 77.8257 43.6368C78.1161 44.1902 78.4653 44.7028 78.8509 45.1882C78.2612 41.6228 77.7668 38.257 79.9214 36.1069Z" fill="#172F35"/>
<path d="M79.6403 22.5577C77.1092 23.2472 74.6914 24.5762 73.0448 26.6175C71.3574 28.7086 70.5817 31.3985 70.2914 34.0703C70.0238 36.4925 70.1327 38.9874 70.9083 41.2963C71.7339 43.7639 73.3624 46.0138 75.6622 47.2567C76.0523 47.4653 76.4923 47.6014 76.9323 47.5424C78.1525 47.3791 78.3929 46.1317 78.4382 45.0884C78.538 42.7433 78.343 40.1713 77.8123 37.7536C77.4267 36.0072 78.7013 34.3243 80.4886 34.2426C85.3286 34.0158 90.1323 33.9659 94.995 33.6212C95.2218 33.603 95.4622 33.5804 95.63 33.4307C95.8296 33.2492 95.8568 32.9499 95.8568 32.6822C95.8704 28.9944 93.5661 25.4971 90.3682 23.669C87.1566 21.8455 83.1966 21.5915 79.6403 22.5577Z" fill="#FFA726"/>
<path d="M76.5509 47.6378C76.2469 47.6378 75.9702 47.538 75.7616 47.3521C75.6663 47.2659 75.6572 47.1207 75.7434 47.0255C75.8296 46.9302 75.9748 46.9211 76.07 47.0073C76.2424 47.1615 76.4601 47.1842 76.6098 47.1752C76.9047 47.157 77.2086 47.0028 77.4036 46.776C77.7711 46.3496 77.8754 45.7463 77.9344 45.1566C78.1022 43.451 77.9707 41.7455 77.5397 40.0898C77.4944 39.9129 77.4445 39.736 77.3946 39.5591C77.0589 38.3434 76.7142 37.0869 77.2086 35.912C77.5806 35.032 78.4288 34.3153 79.5401 33.9479C80.5109 33.6259 81.5269 33.5896 82.5158 33.5533L93.1393 33.1632C94.0465 33.1314 95.0717 33.0906 95.92 32.6687C96.0334 32.6098 96.174 32.6597 96.2329 32.7731C96.2919 32.8865 96.242 33.0271 96.1286 33.0861C95.1896 33.5533 94.11 33.5941 93.1575 33.6304L82.534 34.0205C81.5814 34.0568 80.597 34.0931 79.6898 34.3925C78.71 34.7191 77.9616 35.3405 77.6441 36.098C77.2131 37.1232 77.5352 38.3026 77.8482 39.4411C77.8981 39.6226 77.948 39.7995 77.9933 39.9764C78.4379 41.6865 78.574 43.4465 78.4016 45.2065C78.3381 45.8415 78.2156 46.5582 77.7575 47.0844C77.4808 47.4065 77.0634 47.6152 76.6416 47.6424C76.6098 47.6378 76.5826 47.6378 76.5509 47.6378Z" fill="#FFC19A"/>
<path d="M85.9133 22.9118C81.6857 21.9864 76.9999 23.5604 74.1921 26.8582C71.3842 30.1514 70.5677 35.0276 72.1554 39.0557C71.4251 35.6219 72.1372 31.9068 74.0877 28.9856C76.0383 26.0643 79.2044 23.9913 82.6564 23.3563L85.9133 22.9118Z" fill="#FFC088"/>
<path d="M66.6163 61.6043C67.1788 61.246 67.9545 61.3866 68.4943 61.7858C69.0295 62.185 69.3697 62.7883 69.651 63.3961C71.1569 66.6394 71.3792 70.359 70.9029 73.9017C70.4221 77.4444 69.279 80.86 68.1404 84.2485C72.4452 86.8885 76.9586 89.1838 81.6308 91.1025C74.1372 92.7174 66.0992 91.6831 59.2588 88.2221C63.6497 80.851 64.3846 71.9693 65.7272 63.4959C65.8361 62.7837 66.0085 61.9899 66.6163 61.6043Z" fill="#172F35"/>
<path d="M71.9969 100.469C73.9746 100.968 76.1292 101.381 78.0072 100.583C79.5358 99.9342 80.6336 98.5779 81.6224 97.2443C82.6295 95.8789 83.6319 94.1099 82.888 92.5857C82.2167 91.2113 80.493 90.7985 79.0006 90.4583C74.3602 89.3969 69.9148 87.4962 65.9457 84.8653C66.5762 81.6901 67.9008 78.7053 68.9894 75.6616C70.0781 72.6133 70.9445 69.3927 70.6088 66.1766C70.2732 62.9606 68.5177 59.7263 65.5692 58.3927C64.594 57.9527 63.4736 57.7304 62.4529 58.0434C61.0105 58.4834 60.0806 59.8579 59.3367 61.1733C54.7915 69.2521 55.5173 77.7074 52.8455 87.9136C52.4509 89.415 52.8637 91.1024 53.6529 92.4406C54.5329 93.9329 56.1795 94.7767 57.7581 95.4934C62.3486 97.58 67.116 99.2447 71.9969 100.469Z" fill="#FFC19A"/>
<path d="M77.5122 97.3442C77.358 98.2696 77.4215 99.322 78.0701 100.002C78.5056 100.456 79.1316 100.669 79.7303 100.86C80.2656 101.032 80.8235 101.209 81.3769 101.118C81.953 101.023 82.4429 100.656 82.8648 100.252C83.9308 99.2313 84.7019 97.9067 85.0648 96.4733C85.2689 95.6659 85.3369 94.7723 84.9423 94.042C84.5658 93.3434 83.8128 92.9079 83.0371 92.7492C81.7262 92.4816 80.32 92.9533 79.3266 93.8515C78.3332 94.7496 77.7299 96.0288 77.5122 97.3442Z" fill="#172F35"/>
<path d="M77.3039 100.547C77.2177 100.547 77.136 100.501 77.0952 100.42C76.8457 99.9343 76.5373 99.9615 75.9158 100.057C75.4804 100.125 74.9814 100.202 74.4416 100.016C72.414 99.3219 70.2775 98.8411 68.2135 98.3738C66.1814 97.9157 64.0812 97.4439 62.0717 96.7635C58.2659 95.4798 54.501 93.7153 52.7319 89.5285C52.682 89.4105 52.7364 89.2745 52.8544 89.2246C52.9723 89.1747 53.1084 89.2291 53.1583 89.347C54.8548 93.3615 58.5154 95.0716 62.2214 96.3235C64.2082 96.9949 66.2993 97.4666 68.3179 97.9202C70.3954 98.3874 72.541 98.8728 74.5913 99.5759C75.0268 99.7256 75.4441 99.6621 75.8432 99.5986C76.4284 99.5079 77.0952 99.4035 77.508 100.206C77.567 100.32 77.5216 100.46 77.4082 100.519C77.3764 100.538 77.3402 100.547 77.3039 100.547Z" fill="#FFC19A"/>
<path d="M54.1105 185.589C55.485 184.864 57.0136 184.338 58.5876 184.288C60.1662 184.238 61.7947 184.696 62.9332 185.726C63.3097 186.066 63.532 186.633 63.5683 187.159C63.5773 187.309 63.3913 187.386 63.2825 187.281C62.0305 186.079 60.325 185.304 58.5332 185.385C56.6054 185.472 54.7592 186.283 53.3258 187.495C52.9584 187.268 52.9221 186.751 53.1307 186.388C53.3394 186.025 53.7295 185.789 54.1105 185.589Z" fill="#172F35"/>
<path d="M54.1969 187.204C55.5714 186.478 57.1 185.952 58.6741 185.902C60.2526 185.852 61.8811 186.311 63.0196 187.34C63.3961 187.68 63.6184 188.248 63.6547 188.774C63.6638 188.923 63.4778 189 63.3689 188.896C62.117 187.694 60.4114 186.918 58.6196 187C56.6918 187.086 54.8456 187.898 53.4122 189.109C53.0448 188.883 53.0085 188.365 53.2171 188.003C53.4303 187.635 53.8159 187.404 54.1969 187.204Z" fill="#172F35"/>
<path d="M53.5939 190.057C54.7416 188.774 56.4199 187.994 58.1391 187.867C59.8583 187.74 61.6047 188.252 63.0335 189.218C63.3012 189.4 63.5688 189.608 63.6867 189.908C63.8047 190.207 63.7049 190.611 63.4055 190.729C62.0492 189.735 60.3845 189.168 58.7016 189.128C57.0187 189.087 55.3267 189.568 53.9205 190.488C53.7935 190.57 53.6257 190.656 53.5077 190.57C53.349 190.452 53.4624 190.203 53.5939 190.057Z" fill="#172F35"/>
<path d="M88.5041 109.224H73.4125C70.2962 109.746 66.25 108.226 63.9638 110.181C60.3713 113.257 59.6001 120.687 60.1671 125.091C60.2715 125.885 60.4665 126.711 61.0335 127.328C62.1948 128.589 64.3313 128.525 66.1638 128.53C69.5387 128.539 72.9135 129.169 76.0072 130.371C77.8488 131.088 79.8084 132.027 81.7544 131.578C83.2195 131.242 84.3127 130.181 85.3152 129.174C87.6558 126.811 90.0191 124.384 91.4525 121.503C92.8859 118.623 93.2715 115.162 91.634 112.368C90.8991 111.107 89.7969 110.063 88.5041 109.224Z" fill="#FFC19A"/>
<path d="M85.5687 114.336C84.6161 113.193 83.4503 111.982 81.9625 111.959C80.8512 111.941 79.8578 112.608 78.9823 113.284C72.8676 118.006 68.4586 124.57 64.612 131.269C56.4878 145.413 50.3732 160.709 46.5039 176.553C53.3806 177.329 60.1984 178.635 66.8755 180.459C71.8606 163.194 76.9229 145.74 85.8409 130.14C87.5782 127.096 89.5332 123.78 88.9299 120.328C88.5262 118.051 87.052 116.119 85.5687 114.336Z" fill="#FFC19A"/>
<path d="M60.8926 127.11C61.7544 128.285 63.3511 128.77 64.7891 128.539C66.227 128.303 67.5017 127.441 68.4905 126.375C69.4839 125.309 70.2233 124.039 70.9582 122.783C68.3091 125.423 64.6303 127.006 60.8926 127.11Z" fill="#172F35"/>
<path d="M48.849 176.989C48.8308 176.989 48.8081 176.985 48.79 176.98C48.6675 176.948 48.5904 176.821 48.6267 176.694C52.0242 163.966 57.2679 150.63 64.6481 135.919C66.5125 132.204 68.6263 128.408 72.1463 126.384C72.2778 126.312 72.355 126.185 72.3686 126.035C72.3776 125.895 72.3232 125.763 72.2098 125.677L71.6246 125.219C71.3434 124.996 71.1937 124.652 71.23 124.293C71.2618 123.944 71.4659 123.64 71.7743 123.481C72.9447 122.874 74.2011 122.456 75.4985 122.239C74.7137 122.071 73.9108 122.021 73.108 122.089C72.863 122.107 72.6317 121.966 72.5409 121.73C72.4502 121.495 72.5228 121.236 72.7224 121.082C73.5661 120.438 74.4779 119.889 75.435 119.44L67.211 121.005C65.9137 121.25 64.571 121.508 63.2193 121.3C61.6725 121.064 60.5475 120.297 60.0576 119.14C60.0077 119.022 60.0622 118.886 60.1801 118.836C60.298 118.787 60.4341 118.841 60.484 118.959C61.0283 120.243 62.3075 120.692 63.2873 120.841C64.562 121.036 65.8638 120.787 67.1203 120.547L78.9504 118.292C79.0774 118.269 79.1999 118.351 79.2226 118.478C79.2453 118.605 79.1636 118.728 79.0366 118.75C76.8593 119.163 74.7727 120.097 72.9991 121.449C72.9492 121.486 72.9583 121.535 72.9719 121.558C72.9809 121.585 73.0082 121.626 73.0671 121.622C73.9154 121.549 74.7636 121.603 75.5937 121.776C75.816 121.821 75.9702 122.016 75.9657 122.243C75.9612 122.47 75.7979 122.656 75.5711 122.692C74.3191 122.901 73.1125 123.304 71.983 123.89C71.8152 123.976 71.7063 124.139 71.6882 124.334C71.67 124.534 71.7517 124.729 71.9104 124.851L72.4956 125.309C72.7269 125.491 72.8494 125.777 72.8312 126.067C72.8086 126.366 72.6407 126.634 72.3776 126.784C68.971 128.739 66.8935 132.472 65.0609 136.123C57.6943 150.807 52.4642 164.116 49.0758 176.812C49.0485 176.921 48.9533 176.989 48.849 176.989Z" fill="#FFC19A"/>
<path d="M145.291 110.585C144.247 107.21 143.118 103.695 140.627 101.186C137.289 97.8296 132.208 96.9859 127.482 96.7682C118.201 96.3373 108.684 97.7026 100.401 101.908C97.5482 103.355 94.8039 105.183 92.935 107.777C90.5627 111.07 89.8414 115.262 89.5693 119.313C88.6303 133.388 92.3635 147.305 93.9511 161.326C94.4229 165.504 94.5771 170.158 91.9371 173.437C91.1251 174.444 90.0047 175.669 90.5808 176.83C91.0027 177.683 92.1095 177.887 93.0575 177.978C106.915 179.339 121.29 179.384 134.309 174.44C141.666 171.645 148.72 166.964 152.194 159.906C154.621 154.971 155.098 149.255 154.485 143.789C153.877 138.323 152.24 133.03 150.616 127.777C148.842 122.048 147.064 116.319 145.291 110.585Z" fill="#FFA726"/>
<path d="M147.345 148.516C144.882 143.717 140.451 139.693 135.125 138.822C130.222 138.019 125.119 139.993 121.453 143.34C117.788 146.692 115.434 151.283 114.028 156.05C112.617 160.813 112.086 165.785 111.569 170.725C111.347 172.856 111.261 175.36 112.894 176.753C114.354 177.996 116.523 177.765 118.405 177.393C124.774 176.136 130.984 174.099 136.863 171.35C141.943 168.974 147.155 165.608 148.847 160.26C150.072 156.4 149.192 152.117 147.345 148.516Z" fill="#172F35"/>
<path d="M100.696 108.92C100.12 107.936 98.7912 107.741 97.943 108.498C95.3392 110.812 93.856 114.354 93.4522 117.865C92.9487 122.243 93.8741 126.647 94.7949 130.952C97.8749 130.457 96.5731 130.666 99.6531 130.167C99.3083 127.187 99.1042 124.148 99.6984 121.208C100.206 118.691 101.372 116.228 103.232 114.495C103.804 113.964 103.831 113.084 103.314 112.504C102.325 111.406 101.449 110.199 100.696 108.92Z" fill="#1E2A47"/>
<path d="M139.226 105.554C139.176 106.23 139.053 106.902 138.863 107.555C138.713 108.072 138.858 108.63 139.253 108.993C141.566 111.116 143.331 113.837 144.302 116.822C144.76 116.967 145.245 116.577 145.39 116.119C145.536 115.661 145.431 115.166 145.322 114.699C144.619 111.574 142.691 107.741 140.396 105.142C140.006 104.684 139.271 104.951 139.226 105.554Z" fill="#1E2A47"/>
<path d="M94.954 156.268C95.3758 149.736 94.0105 143.24 92.8674 136.795C91.7243 130.349 90.7944 123.708 92.0781 117.29C93.3618 110.871 97.2492 104.625 103.309 102.153C96.9272 104.112 93.0171 109.719 91.4294 116.205C89.8418 122.692 90.5041 129.954 91.8377 136.495C93.1668 143.032 94.6183 149.6 94.954 156.268Z" fill="#FFC088"/>
<path d="M129.923 99.399C129.891 97.5846 129.868 95.7701 129.846 93.9557C123.205 93.2481 116.428 93.806 109.991 95.5842C110.377 97.0085 110.771 98.4374 111.171 99.8708C112.84 108.521 121.209 141.693 121.209 141.693L129.551 139.698L118.669 101.499C122.461 101.186 126.23 100.465 129.923 99.399Z" fill="#172F35"/>
<path d="M129.923 98.9045C124.47 100.479 118.836 101.236 113.221 100.932C116.972 114.096 121.658 127.45 129.328 139.267C131.578 138.75 133.81 138.06 136.024 137.366C133.411 131.161 131.896 124.506 131.048 117.811C130.258 111.547 130.031 105.228 129.923 98.9045Z" fill="#FFC088"/>
<path d="M146.026 88.2178C146.026 89.5332 145.245 90.6037 144.279 90.6037C143.313 90.6037 142.533 89.5378 142.533 88.2178C142.533 86.9023 143.313 85.8318 144.279 85.8318C145.245 85.8318 146.026 86.9023 146.026 88.2178Z" fill="#172F35"/>
<path d="M151.278 89.3155C151.115 89.7056 150.711 89.9505 150.299 90.0367C149.886 90.1229 149.455 90.073 149.038 90.0231C146.974 89.7736 144.91 89.5241 142.841 89.2746C142.891 88.5171 142.941 87.7641 142.991 87.0066C144.928 87.1155 146.86 87.2289 148.797 87.3377C149.419 87.374 150.072 87.4148 150.607 87.7369C151.147 88.0544 151.519 88.7394 151.278 89.3155Z" fill="#172F35"/>
<path d="M143.775 86.0266C141.027 86.2761 138.913 85.4142 136.931 83.4955C135.751 82.3569 134.848 80.9054 133.451 80.0481C131.161 78.6419 128.239 79.1953 125.568 79.472C121.617 79.8802 117.471 79.6081 113.846 81.2274C111.17 82.425 109.043 84.5388 106.766 86.385C102.837 89.5648 98.3193 92.0052 93.5156 93.5747C94.3956 94.5499 95.0534 95.7429 95.5251 97.0176C99.3762 96.2328 103.413 96.1421 107.36 96.2918C113.506 96.5231 119.675 97.2761 125.79 96.5912C128.303 96.3099 130.834 95.7701 133.039 94.5318C134.821 93.5338 136.332 92.1095 138.069 91.0345C139.806 89.9549 141.376 89.4287 143.331 90.0229C144.574 89.1429 144.669 87.0064 143.775 86.0266Z" fill="#F15A36"/>
<path d="M107.592 88.8843C107.832 88.8344 108.068 88.7482 108.272 88.6031C109.265 87.8955 109.034 86.2715 109.869 85.3779C108.231 86.6299 106.594 87.8773 104.956 89.1293C105.745 88.7301 106.716 89.0612 107.592 88.8843Z" fill="#FFC088"/>
<path d="M99.4308 100.238C99.9252 100.016 100.193 99.4624 100.048 98.9407C99.9207 98.478 99.8844 97.9927 99.9479 97.5209C100.02 96.9675 100.229 96.4323 100.225 95.8743C100.22 95.0669 99.7755 94.3275 99.3038 93.6698C98.9545 93.1844 98.5644 92.7036 98.0201 92.4541C97.2036 92.0867 96.2555 92.3362 95.3937 92.5902C94.8358 92.758 94.1962 93.003 94.0419 93.5654C93.9739 93.824 94.0283 94.1007 94.1009 94.3593C94.4048 95.3935 95.0353 96.3325 95.879 96.9993C96.4052 97.4166 97.0584 97.8022 97.19 98.4599C97.2852 98.9452 97.0539 99.4442 96.7092 99.798C96.3644 100.152 95.9199 100.388 95.4935 100.628C92.0098 102.615 89.1021 105.5 86.6436 108.671C86.5801 108.752 86.5166 108.838 86.4621 108.929C86.4531 108.938 86.444 108.947 86.4395 108.961C86.2988 109.17 86.1854 109.41 86.2036 109.659C86.2353 110.086 86.6481 110.39 87.0654 110.49C87.3739 110.562 87.7685 110.517 87.9001 110.226C87.9908 110.027 87.9182 109.796 87.8729 109.582C87.8275 109.374 87.8048 109.156 87.8094 108.943C90.9937 105.25 94.9854 102.252 99.4308 100.238Z" fill="#1E2A47"/>
<path d="M134.241 91.3156C135.248 89.7053 135.139 87.655 134.808 85.7861C134.567 84.4298 134.196 82.9964 133.166 82.0847C132.213 81.2455 130.884 81.0096 129.619 80.8826C125.627 80.488 121.558 80.8554 117.702 81.9667C115.307 82.6562 112.785 83.8129 111.728 86.0719C110.617 88.4488 111.32 91.9733 113.257 93.7424C115.194 95.5115 117.843 95.389 120.465 95.448C123.527 95.5205 126.852 95.0352 129.777 94.1234C132.862 93.1572 133.302 92.8125 134.241 91.3156Z" fill="#1E2A47"/>
<path d="M144.08 91.7784C144.393 91.8918 144.737 91.7965 145.069 91.8102C147.636 91.9372 149.754 91.724 151.846 92.7128C151.714 92.7763 151.641 93.2254 151.723 93.3479C151.959 93.62 152.467 93.4431 152.576 93.0984C152.685 92.7537 152.476 92.3772 152.181 92.1685C151.886 91.9644 151.324 91.6922 150.97 91.6242C148.902 91.2386 147.028 91.0572 144.96 90.6716C144.415 90.4992 144.243 89.7961 144.343 89.2337C144.443 88.6712 144.724 88.1405 144.733 87.5689C144.742 86.6481 143.885 85.8452 142.982 85.7998C142.76 85.7908 142.587 86.0085 142.669 86.2217C143.118 87.3965 142.996 88.7755 142.361 89.8642C142.243 90.0683 142.306 90.3314 142.515 90.4402C143.064 90.7306 143.436 91.5516 144.08 91.7784Z" fill="#1E2A47"/>
<path d="M145.98 76.1427C148.654 75.0441 149.931 71.9857 148.832 69.3115C147.734 66.6373 144.675 65.36 142.001 66.4586C139.327 67.5572 138.05 70.6156 139.148 73.2898C140.247 75.964 143.305 77.2413 145.98 76.1427Z" fill="#1E2A47"/>
<path d="M143.631 87.4102C143.408 87.4102 143.209 87.2469 143.172 87.0201L142.134 80.5607C142.011 79.7896 142.075 78.9867 142.324 78.2473L144.307 72.3731C144.388 72.1282 144.651 72.0011 144.896 72.0828C145.141 72.1644 145.273 72.4275 145.187 72.6725L143.204 78.5467C143.005 79.1455 142.95 79.7896 143.05 80.4156L144.089 86.875C144.13 87.129 143.957 87.3694 143.703 87.4102C143.681 87.4102 143.653 87.4102 143.631 87.4102Z" fill="#1E2A47"/>
<path d="M84.9202 85.3689C88.5803 85.3689 91.5474 82.4018 91.5474 78.7417C91.5474 75.0816 88.5803 72.1145 84.9202 72.1145C81.2601 72.1145 78.293 75.0816 78.293 78.7417C78.293 82.4018 81.2601 85.3689 84.9202 85.3689Z" fill="#1E2A47"/>
<path d="M96.8183 94.1689C96.6096 94.1689 96.4191 94.0237 96.3647 93.8105L94.3416 85.319C94.1329 84.439 93.5568 83.686 92.763 83.255L85.6686 79.3858C85.4418 79.2633 85.3601 78.9821 85.4826 78.7553C85.6051 78.5284 85.8908 78.4468 86.1131 78.5693L93.2076 82.4386C94.2327 82.9965 94.9766 83.9718 95.2488 85.1058L97.2719 93.5973C97.3309 93.8468 97.1766 94.0963 96.9271 94.1598C96.8909 94.1643 96.8546 94.1689 96.8183 94.1689Z" fill="#1E2A47"/>
<path d="M78.1748 99.3946C78.5332 100.27 78.887 101.146 79.2453 102.021C84.2804 99.8981 89.4606 98.1245 94.7406 96.7138C94.4231 95.734 93.9513 94.8086 93.3435 93.9785C88.2857 95.7839 83.2325 97.5892 78.1748 99.3946Z" fill="#172F35"/>
<path d="M91.6651 94.2416C91.6243 93.6337 92.0825 93.0531 92.6585 92.8535C93.2346 92.6539 93.8923 92.7946 94.414 93.1166C94.9311 93.4387 95.3258 93.9331 95.6433 94.4548C96.0334 95.1034 96.3237 95.8337 96.3645 96.5913C96.3827 96.936 96.2511 97.3488 96.0561 97.748C95.6433 98.5826 94.5365 98.8003 93.8561 98.1653C92.7356 97.1311 91.7377 95.3575 91.6651 94.2416Z" fill="#172F35"/>
<path d="M80.1888 100.51C80.8057 101.69 80.5381 103.051 79.5855 103.554C78.6329 104.053 77.3583 103.504 76.7414 102.32C76.1245 101.141 76.3921 99.7801 77.3447 99.2766C78.2972 98.7822 79.5719 99.3311 80.1888 100.51Z" fill="#172F35"/>
<path d="M139.153 146.692C138.255 146.81 134.821 147.259 133.923 147.377C127.296 148.244 123.377 160.083 125.178 173.823C126.978 187.558 133.81 197.991 140.437 197.125C141.335 197.007 144.769 196.558 145.667 196.44C152.294 195.573 156.213 183.734 154.413 169.994C152.612 156.254 145.78 145.826 139.153 146.692Z" fill="#172F35"/>
<path d="M136.042 189.588C138.861 189.219 140.154 181.348 138.931 172.009C137.707 162.669 134.43 155.398 131.611 155.767C128.791 156.136 127.498 164.007 128.721 173.347C129.945 182.686 133.222 189.958 136.042 189.588Z" fill="#FFC19A"/>
<path d="M149.491 147.659C147.5 144.896 144.928 142.478 141.821 141.086C135.416 138.21 129.405 140.623 126.339 146.747C124.198 151.024 122.361 156.722 122.638 161.539C122.946 166.928 123.064 172.997 124.243 178.264C134.463 177.066 149.128 174.653 158.092 171.305C156.817 163.235 154.268 154.281 149.491 147.659Z" fill="#F15A36"/>
<path d="M130.752 142.896C128.911 143.889 127.473 145.608 126.824 147.6C127.65 146.629 129.119 146.366 130.331 146.765C131.542 147.164 132.503 148.121 133.166 149.21C133.823 150.303 134.214 151.528 134.599 152.744C136.482 158.695 138.364 164.642 140.251 170.593C140.491 171.36 140.759 172.163 141.349 172.707C142.456 173.732 144.193 173.464 145.663 173.129C144.905 173.292 144.12 172.861 143.639 172.258C143.159 171.655 142.918 170.897 142.687 170.158C140.219 162.16 138.015 154.082 136.073 145.939C135.765 144.647 135.352 143.195 134.177 142.569C133.12 142.007 131.805 142.329 130.752 142.896Z" fill="#FFC088"/>
<path d="M125.196 157.103C124.634 164.079 127.065 170.897 128.716 177.701C129.047 179.057 129.36 180.45 130.127 181.616C130.898 182.777 132.245 183.675 133.624 183.476C135.139 183.258 136.223 181.793 136.5 180.287C136.772 178.781 136.414 177.243 136.055 175.755C134.2 168.048 132.349 160.337 130.494 152.63C129.469 151.582 127.577 151.945 126.589 153.025C125.604 154.1 125.314 155.642 125.196 157.103Z" fill="#172F35"/>
<path d="M132.131 175.487C132.131 178.572 131.274 181.067 130.213 181.067C129.151 181.067 128.294 178.567 128.294 175.487C128.294 172.403 129.151 169.908 130.213 169.908C131.27 169.908 132.131 172.407 132.131 175.487Z" fill="#FFC19A"/>
<path d="M133.796 181.657C134.064 181.979 134.558 182.047 134.944 181.883C135.329 181.725 135.615 181.38 135.806 181.003C136.404 179.819 136.146 178.404 135.851 177.116C134.182 169.876 131.61 162.85 130.335 155.533C130.231 154.925 130.122 154.29 129.754 153.796C129.387 153.301 128.67 153.002 128.135 153.311C127.768 153.519 127.577 153.959 127.559 154.386C127.536 154.807 127.654 155.225 127.772 155.633C128.983 159.938 129.927 164.32 130.589 168.742C131.524 168.983 132.122 169.881 132.544 170.747C133.955 173.65 134.368 177.03 133.696 180.187C133.587 180.686 133.469 181.262 133.796 181.657Z" fill="#FFC19A"/>
<path d="M129.183 169.318C128.548 170.103 128.076 171.024 127.813 171.999C127.727 170.947 128.28 169.867 129.183 169.318Z" fill="#FFC19A"/>
<path d="M92.3594 98.9002C92.0374 97.9431 91.4749 95.4845 90.5767 95.0264C89.4563 94.4549 88.1454 94.3914 86.9116 94.3233C85.6052 94.2507 84.2716 94.0784 82.9788 94.3687C82.0081 94.5864 81.2324 95.0128 80.5747 95.7658C79.8761 96.5641 79.486 97.1856 79.5268 98.247C79.5677 99.3085 81.3141 101.155 82.3755 101.195C82.0625 101.345 81.9718 101.776 82.0897 102.103C82.2077 102.429 82.4753 102.674 82.7293 102.91C83.3009 103.427 83.8724 103.949 84.4485 104.466C84.8703 104.847 85.3194 105.242 85.8728 105.351C86.5805 105.487 87.2881 105.128 87.8868 104.725C88.9619 104.003 90.1685 103.5 90.9578 102.475C91.9104 101.236 92.8584 100.365 92.3594 98.9002Z" fill="#FFC088"/>
</svg>
