<svg width="39" height="27" viewBox="0 0 39 27" fill="none" xmlns="http://www.w3.org/2000/svg">
<path d="M24.1465 0.5H26.4316C30.5725 0.500001 33.9297 3.8166 33.9297 7.875V10.125C33.9297 10.4634 33.6498 10.75 33.2871 10.75C31.3951 10.75 29.6007 11.2565 28.0459 12.1426L27.5752 12.4111L27.8799 12.8584L28.9229 14.3887L29.1582 14.7344L29.5391 14.5645C30.3364 14.2091 31.2797 14 32.1445 14C35.6561 14 38.5 16.8112 38.5 20.25C38.5 23.6888 35.6561 26.5 32.1445 26.5C28.6623 26.5 25.7891 23.6016 25.7891 20.25C25.7891 18.5867 26.4963 16.9299 27.7822 15.7295L28.0957 15.4365L27.8545 15.082L26.8867 13.6611L26.5605 13.1826L26.1348 13.5742C24.58 15.0063 23.4271 16.8879 22.9834 19.0713L22.8223 19.8682C22.5737 21.0962 21.4629 21.9998 20.1758 22H12.9512L12.832 22.3301C11.9469 24.7844 9.56739 26.5 6.85547 26.5C3.34394 26.5 0.5 23.6888 0.5 20.25C0.5 16.8809 3.2367 14.1288 6.65527 14.0215L7.5625 13.9932L7.05371 13.2412L5.49219 10.9355L5.3623 10.7441L5.13281 10.7188L4.88965 10.6865C2.4002 10.2967 0.5 8.16913 0.5 5.625C0.5 5.2866 0.779843 5 1.14258 5H6.89746C7.80487 5 8.64411 5.44397 9.14453 6.18359L9.71875 7.03027L9.86719 7.25H19.9912L20.1406 7.03027L21.3252 5.28125C21.4429 5.10752 21.6435 5 21.8613 5H25.7891V1.75H24.1465C23.7837 1.75 23.5039 1.4634 23.5039 1.125C23.5039 0.786597 23.7837 0.5 24.1465 0.5ZM6.85547 15.25C4.06606 15.25 1.78516 17.4848 1.78516 20.25C1.78516 23.0152 4.06606 25.25 6.85547 25.25C8.69813 25.25 10.3472 24.2494 11.2354 22.7471L11.6816 21.9922H6.85547C5.85999 21.9922 5.07031 21.2071 5.07031 20.25C5.07031 19.2907 5.86218 18.5 6.85547 18.5H11.3838V17.5C10.5332 17.5 9.74224 17.1102 9.23438 16.4521L9.13672 16.3164L8.7373 15.7266L8.64258 15.5869L8.48242 15.5332L8.09375 15.417C7.6988 15.3131 7.28573 15.25 6.85547 15.25ZM32.1445 15.25C31.4908 15.25 31.0659 15.353 30.4805 15.5547L29.8613 15.7676L30.2295 16.3086L32.6797 19.9053C32.8722 20.1876 32.7987 20.5727 32.5049 20.7666L32.5039 20.7676C32.2069 20.9646 31.8029 20.881 31.6094 20.5957V20.5947L29.1602 16.999L28.8018 16.4727L28.375 16.9463C27.4902 17.9296 27.0742 19.0859 27.0742 20.25C27.0742 22.9872 29.4012 25.25 32.1445 25.25C34.9339 25.25 37.2148 23.0152 37.2148 20.25C37.2148 17.4848 34.9339 15.25 32.1445 15.25Z" stroke="black"/>
</svg>
