<svg width="47" height="46" viewBox="0 0 47 46" fill="none" xmlns="http://www.w3.org/2000/svg">
<path d="M26.6208 0.641025C24.5124 -0.213675 22.1543 -0.213675 20.0459 0.641025L14.9347 2.71314L37.3165 11.4172L45.1899 8.37514C44.8728 8.1121 44.5128 7.89452 44.1175 7.73429L26.6208 0.641025ZM46.6667 11.5568L25.0829 19.8959V45.3834C25.6051 45.2767 26.12 45.1218 26.6208 44.9188L44.1175 37.8257C45.6584 37.2008 46.6667 35.7042 46.6667 34.0415V11.5568ZM21.5829 45.3831V19.8959L0 11.5571V34.0415C0 35.7042 1.00826 37.2008 2.54921 37.8257L20.0459 44.9188C20.5464 45.1218 21.0609 45.2765 21.5829 45.3831ZM1.47637 8.3754L23.3329 16.82L32.4725 13.2887L10.2068 4.62986L2.54921 7.73429C2.15385 7.89457 1.79356 8.11224 1.47637 8.3754Z" fill="#FFA726"/>
</svg>
