<svg width="46" height="19" viewBox="0 0 46 19" fill="none" xmlns="http://www.w3.org/2000/svg">
<path d="M45.272 12.5501L44.8126 15.0683C44.7087 15.6383 44.2175 16.0533 43.6455 16.0533H41.3255C41.3886 15.8226 41.4403 15.5863 41.4702 15.3432C41.4992 15.1134 41.5137 14.9042 41.5137 14.7061C41.5137 11.9176 39.2745 9.64895 36.5235 9.64895C33.7717 9.64895 31.5324 11.9176 31.5324 14.7061C31.5324 14.8509 31.542 14.9939 31.5537 15.1373C31.5801 15.4521 31.6363 15.7578 31.7175 16.0528H11.422C11.4855 15.8221 11.5367 15.5863 11.5671 15.3436C11.5961 15.1129 11.6102 14.9047 11.6102 14.7061C11.6102 11.9181 9.37135 9.64895 6.61998 9.64895C3.86861 9.64895 1.62933 11.9181 1.62933 14.7061C1.62933 14.8505 1.63885 14.9939 1.65019 15.1373C1.67695 15.4526 1.73319 15.7582 1.81438 16.0538H1.22565C1.22565 16.0538 0.222346 12.7854 0.575226 11.3004C0.850544 10.1426 1.55494 9.67147 1.55494 9.67147C1.55494 9.67147 1.48872 7.9741 2.39178 6.21835C2.58319 5.8456 4.07181 3.79293 6.31291 1.74625C7.33708 0.810463 8.14262 0.518605 9.52148 0.514928C13.4267 0.504356 22.4047 0.485052 24.5256 0.519983C25.9367 0.543424 26.7477 0.76588 27.9737 1.50633C28.0953 1.57941 28.1583 1.72097 28.1229 1.85932C28.0875 1.99766 27.9642 2.09418 27.8231 2.09418H27.7433L31.7048 6.02393C31.7048 6.02393 33.2696 6.03174 33.7912 6.05335C36.3838 6.16182 41.0466 6.54973 43.8737 8.73339C44.2551 9.028 44.5046 9.4651 44.5649 9.94678C44.6438 10.5732 44.6556 11.2664 44.6556 11.2664C45.1169 11.5113 45.3664 12.0312 45.272 12.5501ZM12.7364 2.09372H8.64336C8.19886 2.09372 7.76843 2.2431 7.41736 2.52025C6.45896 3.2777 5.7083 4.11329 5.1495 4.8496C5.03611 4.99898 5.01615 5.20029 5.09779 5.36943C5.17853 5.53903 5.3468 5.6475 5.53277 5.65026L12.7359 5.75321L12.7364 2.09372ZM14.9167 2.09372H14.6391V5.78033L14.9167 5.78447V2.09372ZM29.637 5.99359L25.7049 2.09326H16.8199V5.81067L26.2411 5.94488C26.2361 5.89753 26.2293 5.85157 26.2293 5.80285C26.2293 5.16398 26.6801 4.64599 27.2362 4.64599C27.7932 4.64599 28.2436 5.16398 28.2436 5.80285C28.2436 5.86122 28.2359 5.9173 28.2291 5.97337L29.637 5.99359Z" stroke="black"/>
<circle cx="6.49982" cy="14.5" r="3.5" stroke="black"/>
<circle cx="36.4998" cy="14.5" r="3.5" stroke="black"/>
</svg>
