<svg width="30" height="71" viewBox="0 0 30 71" fill="none" xmlns="http://www.w3.org/2000/svg">
<path d="M24.8224 44.0261C23.663 44.5997 23.5814 45.6152 23.7844 46.2206C24.0002 46.8259 23.9859 47.1474 24.0628 47.1863C24.1398 47.2252 24.577 47.1757 24.5915 46.8157C24.6059 46.4557 24.3514 45.8887 24.7645 45.479C25.1649 45.0565 24.8224 44.0261 24.8224 44.0261Z" fill="#C68F7C"/>
<path d="M4.43675 43.9356C5.59097 44.5195 5.66356 45.5357 5.45521 46.1392C5.23401 46.7426 5.24543 47.0642 5.16814 47.1024C5.09085 47.1407 4.65406 47.0873 4.64281 46.7271C4.63157 46.367 4.89116 45.8023 4.48168 45.389C4.07227 44.9628 4.43675 43.9356 4.43675 43.9356Z" fill="#C68F7C"/>
<path d="M14.6777 44.7783C13.868 44.7747 13.2095 45.4276 13.2059 46.2377L13.1037 69.1666C13.1001 69.9767 13.7527 70.6355 14.5624 70.6391C15.3722 70.6427 16.0306 69.9898 16.0343 69.1796L16.1365 46.2508C16.1401 45.4407 15.4875 44.7819 14.6777 44.7783Z" fill="#1E1E1E"/>
<path d="M14.5486 62.2545L14.3944 62.2538C13.8802 62.2515 13.4671 62.6612 13.4648 63.1756L13.4402 68.7052C13.4379 69.2196 13.8473 69.633 14.3615 69.6352L14.5157 69.6359C15.0298 69.6382 15.443 69.2285 15.4453 68.7142L15.4699 63.1845C15.4722 62.6701 15.0628 62.2568 14.5486 62.2545Z" fill="#2D2D2D"/>
<path d="M14.7073 38.13C13.2805 38.1236 12.1057 39.2758 12.0993 40.7161L12.0072 61.3816C12.0008 62.809 13.1524 63.9844 14.592 63.9908C16.0187 63.9972 17.1935 62.845 17.1999 61.4048L17.2921 40.7264C17.2985 39.2989 16.1468 38.1364 14.7073 38.13Z" fill="#FFA726"/>
<path d="M14.6456 52.0442C11.6122 52.0306 9.27453 51.6602 7.73403 51.2289C6.78408 50.9546 6.1324 50.0901 6.12391 49.1127C6.1076 47.0036 6.39972 44.9087 6.62293 43.8552C6.75415 43.2514 7.37283 42.8683 7.9634 43.0253C9.00332 43.3 10.0222 42.5201 10.027 41.4398L10.0913 27.0241C10.1008 24.9023 11.8307 23.1996 13.9387 23.209L15.5839 23.2163C17.7047 23.2258 19.4065 24.9566 19.3971 27.0656L19.3329 41.4813C19.328 42.5615 20.34 43.3505 21.3823 43.0851C21.9871 42.9335 22.5895 43.3091 22.7153 43.9269C22.9419 44.9953 23.2025 47.0927 23.1674 49.2015C23.1501 50.1917 22.4779 51.0503 21.5256 51.3032C20.007 51.7209 17.6662 52.0576 14.6456 52.0442Z" fill="#FFA726"/>
<path d="M21.4074 43.0854C22.0122 42.9338 22.6147 43.3094 22.7404 43.9272C22.8662 44.5451 23.0162 45.5102 23.1011 46.6294C22.8795 47.3357 22.3114 47.899 21.565 48.1015C20.0207 48.519 17.6799 48.8558 14.6593 48.8423C11.6259 48.8288 9.28824 48.4583 7.74773 48.027C7.01601 47.818 6.45298 47.2497 6.23763 46.5414C6.34544 45.4231 6.49113 44.4592 6.62241 43.8425C6.75364 43.2387 7.37232 42.8556 7.96289 43.0126C9.0028 43.2873 10.0217 42.5074 10.0265 41.4272L10.0408 38.2251L10.0907 27.0243C10.1002 24.9025 11.8302 23.1998 13.9381 23.2092L15.5833 23.2165C17.7041 23.226 19.4059 24.9568 19.3965 27.0658L19.3465 38.2923L19.3322 41.4944C19.3532 42.5618 20.3651 43.3508 21.4074 43.0854Z" fill="#1E2A47"/>
<path d="M10.0403 41.131L10.0767 32.9651L10.6567 29.7398L14.7569 29.7581L14.485 44.6101C14.4722 44.5972 10.0277 43.9601 10.0403 41.131Z" fill="#A8DADC"/>
<path d="M19.3594 41.1726L19.3958 33.0067L18.8446 29.7764L14.7444 29.7582L14.8839 44.612C14.8968 44.5992 19.3468 44.0018 19.3594 41.1726Z" fill="#A8DADC"/>
<path d="M14.7483 28.9224C14.0927 28.9195 13.5505 29.4572 13.5476 30.1131L13.4882 43.4228C13.4853 44.0787 14.0228 44.6212 14.6783 44.6241C15.3338 44.627 15.876 44.0893 15.879 43.4335L15.9383 30.1237C15.9412 29.4679 15.4166 28.9254 14.7483 28.9224Z" fill="#FFC627"/>
<path d="M10.1337 43.3949C9.36347 43.1857 8.83963 42.4761 8.86895 41.6661C9.00045 38.1173 9.29891 28.8337 9.29891 28.8337C9.30149 28.2551 9.47104 27.7028 9.7817 27.2155L12.7637 27.2288L12.5903 43.0587C12.5879 43.5859 12.0721 43.9565 11.5715 43.8129C10.8911 43.6169 10.1337 43.3949 10.1337 43.3949Z" fill="#1E1E1E"/>
<path d="M19.2336 43.4354C20.0057 43.2331 20.5359 42.5282 20.5138 41.7179C20.4139 38.1681 20.1982 28.8823 20.1982 28.8823C20.2008 28.3036 20.0362 27.7499 19.7299 27.2598L16.7479 27.2465L16.793 43.0773C16.7907 43.6046 17.3031 43.9798 17.8051 43.8406C18.4743 43.6507 19.2336 43.4354 19.2336 43.4354Z" fill="#1E1E1E"/>
<path d="M16.4463 25.7793L16.5423 4.25218L19.1386 4.26375C21.0152 4.27212 22.5379 5.80924 22.5296 7.68676L22.4724 20.5207C22.4626 22.7197 20.963 24.6292 18.8398 25.1727L16.4463 25.7793Z" fill="#FFA726"/>
<path d="M13.0914 25.7644L13.1873 4.23731L10.591 4.22574C8.71438 4.21737 7.17801 5.74086 7.16964 7.61837L7.11243 20.4523C7.10263 22.6514 8.58507 24.5741 10.7034 25.1365L13.0914 25.7644Z" fill="#FFA726"/>
<path d="M16.2099 0.842883L13.5493 0.831023C12.8552 0.827929 12.2871 1.39123 12.284 2.08566L12.1799 25.4389C12.1768 26.1333 12.7399 26.7016 13.4339 26.7047L16.0946 26.7166C16.7887 26.7197 17.3567 26.1564 17.3598 25.462L17.4639 2.10875C17.467 1.41432 16.904 0.845977 16.2099 0.842883Z" fill="#1E2A47"/>
<path d="M17.2469 33.6146C16.9589 34.7707 15.9142 35.5763 14.7189 35.5709C13.5235 35.5656 12.486 34.7508 12.2084 33.5922C11.8803 32.2147 11.1944 30.3727 9.83823 28.9649C9.21129 28.3191 8.86815 27.4431 8.87216 26.5429L8.87577 25.7327C8.88179 24.3825 9.74835 23.1775 11.0355 22.7717C11.9237 22.4928 13.1328 22.2795 14.7652 22.2868C16.3976 22.2941 17.6048 22.5181 18.4905 22.805C19.774 23.2222 20.6297 24.4349 20.6237 25.7851L20.6201 26.5953C20.6161 27.4955 20.2652 28.3684 19.6325 29.0085C18.2895 30.4043 17.5872 32.2401 17.2469 33.6146Z" fill="#1E1E1E"/>
<path d="M16.9402 33.176C16.6914 34.1909 15.7628 34.894 14.7217 34.8894C13.6806 34.8847 12.7583 34.1733 12.5186 33.1563C12.2284 31.9462 11.6315 30.3232 10.4416 29.0962C9.89143 28.5279 9.58639 27.7549 9.58994 26.9576L9.59315 26.2375C9.59843 25.0544 10.3615 23.9904 11.4942 23.6354C12.2665 23.3945 13.3342 23.2064 14.7738 23.2128C16.2134 23.2192 17.2665 23.4168 18.0494 23.6646C19.1789 24.0297 19.9325 25.1005 19.9272 26.2836L19.924 27.0037C19.9205 27.801 19.6086 28.5584 19.0533 29.1346C17.8525 30.3509 17.2541 31.9557 16.9402 33.176Z" fill="#282828"/>
<path d="M14.7697 24.1899C18.6101 24.207 21.7136 26.4087 21.7016 29.1076C21.6895 31.8064 18.5665 33.9804 14.7261 33.9633C10.8857 33.9461 7.78221 31.7444 7.79424 29.0456C7.80628 26.3467 10.9293 24.1728 14.7697 24.1899Z" fill="#2B2B2B"/>
<path d="M13.5695 25.3162C14.5603 25.0763 13.4968 24.3257 12.9311 24.3489C13.5229 24.2358 14.1401 24.1871 14.7699 24.1899C18.613 24.207 21.7138 26.4071 21.7017 29.1076C21.6999 29.5191 21.621 29.9174 21.4908 30.2898L16.1043 30.4844C16.1043 30.4844 15.1201 26.3648 13.5695 25.3162Z" fill="#393939"/>
<path d="M7.7941 29.0455L6.05659 38.2069C5.7142 40.0443 6.81162 41.8367 8.60879 42.3591C8.63444 42.3721 8.673 42.3723 8.69865 42.3853C10.804 42.9733 12.944 41.5683 13.2364 39.3963C13.555 37.1343 13.8881 34.4995 14.1142 32.7902C14.2473 31.7748 13.6218 30.8075 12.6334 30.5073L7.7941 29.0455Z" fill="#2B2B2B"/>
<path d="M21.7141 29.1078L23.3699 38.2843C23.6958 40.1248 22.5825 41.9073 20.7807 42.4137C20.755 42.4264 20.7164 42.4263 20.6906 42.439C18.5801 43.0083 16.4528 41.5842 16.1797 39.4097C15.8813 37.145 15.5717 34.5073 15.3608 32.796C15.2368 31.7795 15.8709 30.8179 16.862 30.5265L21.7141 29.1078Z" fill="#2B2B2B"/>
<path d="M5.88248 45.4337L1.98155 43.9632C1.71208 43.8591 1.41583 43.9992 1.3118 44.2688L0.947546 45.2446C0.843516 45.5142 0.983584 45.8106 1.25305 45.9146L5.15398 47.3852C5.42344 47.4893 5.7197 47.3491 5.82373 47.0796L6.18792 46.1167C6.2791 45.847 6.15194 45.5378 5.88248 45.4337Z" fill="#1E1E1E"/>
<path d="M23.1594 47.9541L17.8417 50.0137L17.8344 51.6468L11.4592 51.6184L11.4665 49.9852L6.16732 47.8783C5.76956 47.7222 5.55306 47.2712 5.68343 46.8602L5.83996 46.3465C5.97033 45.9356 6.38272 45.6931 6.80648 45.785L12.0586 46.9144C12.6411 45.9782 13.595 45.378 14.6747 45.3828C15.7544 45.3876 16.7028 45.9963 17.277 46.9376L22.539 45.8551C22.9635 45.767 23.3737 46.0132 23.5004 46.4252L23.6524 46.9403C23.7791 47.3524 23.5714 47.8016 23.1594 47.9541Z" fill="#1E2A47"/>
<path d="M23.5004 46.4252L23.6399 46.8631L17.0748 49.0458C17.0748 49.0458 17.0158 47.8624 15.1421 47.211C13.6149 46.677 11.9897 47.93 11.9897 47.93L5.83988 46.3594C5.97024 45.9484 6.38264 45.7059 6.8064 45.7979L12.0585 46.9272C12.6411 45.991 13.5949 45.3909 14.6746 45.3957C15.7543 45.4005 16.7027 46.0091 17.2769 46.9505L22.5389 45.868C22.9635 45.767 23.3737 46.0132 23.5004 46.4252Z" fill="#1E2A47"/>
<path d="M6.60462 44.9737L6.16835 44.8046C6.09135 44.7786 6.0012 44.8167 5.97515 44.8938L4.86943 47.8466C4.84338 47.9237 4.88154 48.0139 4.95855 48.0399L5.39482 48.2091C5.47182 48.2351 5.56197 48.1969 5.58802 48.1199L6.69374 45.167C6.73264 45.0901 6.69442 45.0127 6.60462 44.9737Z" fill="#383838"/>
<path d="M23.4789 45.512L27.3927 44.0763C27.6631 43.9746 27.9581 44.1174 28.0597 44.3879L28.4153 45.354C28.517 45.6245 28.3743 45.9197 28.1039 46.0213L24.19 47.4571C23.9196 47.5587 23.6246 47.416 23.523 47.1454L23.1674 46.1794C23.0657 45.9217 23.2085 45.6137 23.4789 45.512Z" fill="#1E1E1E"/>
<path d="M22.7486 45.0456L23.1864 44.8803C23.2636 44.855 23.3534 44.8939 23.3788 44.9712L24.4581 47.9338C24.4835 48.0111 24.4445 48.1009 24.3673 48.1263L23.9295 48.2915C23.8523 48.3169 23.7625 48.2779 23.7371 48.2007L22.6578 45.2381C22.6324 45.1608 22.6713 45.0838 22.7486 45.0456Z" fill="#383838"/>
<path d="M16.338 6.77179L13.356 6.75849C11.5566 6.75047 10.0848 8.20995 10.0767 10.0103L10.0434 17.4946C10.0353 19.295 11.4941 20.7675 13.2936 20.7756L16.2755 20.7888C18.075 20.7969 19.5468 19.3374 19.5548 17.537L19.5882 10.0527C19.6091 8.2524 18.1503 6.77987 16.338 6.77179ZM13.2967 20.0811C11.8699 20.0748 10.7311 18.9123 10.7374 17.4977L10.7708 10.0134C10.7772 8.58597 11.9391 7.44662 13.3529 7.45292L16.3349 7.46621C17.7616 7.47257 18.9004 8.63504 18.8941 10.0496L18.8608 17.5339C18.8544 18.9614 17.6925 20.1007 16.2786 20.0944L13.2967 20.0811Z" fill="#C9C9C9"/>
<path d="M16.3343 7.68473L13.3523 7.67144C12.0541 7.66565 10.9954 8.71545 10.9897 10.0143L10.9563 17.4986C10.9505 18.7974 11.9998 19.8566 13.298 19.8624L16.2799 19.8757C17.5781 19.8815 18.6368 18.8317 18.6426 17.5329L18.6759 10.0485C18.6817 8.74971 17.6325 7.69052 16.3343 7.68473Z" fill="#1E1E1E"/>
<path d="M16.2247 9.15061L13.4484 9.13824C12.3301 9.13325 11.4135 10.0422 11.4085 11.161L11.3811 17.2951C11.3761 18.4139 12.2847 19.331 13.4029 19.336L16.1792 19.3483C17.2975 19.3533 18.2141 18.4444 18.2191 17.3256L18.2464 11.1915C18.2515 10.0598 17.3429 9.1556 16.2247 9.15061Z" fill="#282828"/>
<path d="M26.6141 51.673C27.4367 51.6766 28.0044 51.2033 28.3144 50.8575C28.4307 50.7294 28.3417 50.5104 28.1617 50.5096L26.6193 50.5027L25.0769 50.4959C24.897 50.4951 24.8061 50.7004 24.9211 50.8424C25.2153 51.1781 25.7915 51.6693 26.6141 51.673Z" fill="#969696"/>
<path d="M24.7825 50.0832L28.4329 50.0995C28.5614 50.1001 28.6766 50.2035 28.676 50.3449C28.6754 50.4735 28.5721 50.5888 28.4307 50.5882L24.7803 50.5719C24.6518 50.5713 24.5366 50.4679 24.5372 50.3265C24.5507 50.1851 24.654 50.0827 24.7825 50.0832Z" fill="#AFAFAF"/>
<path d="M21.8056 46.0448C21.7799 46.0446 21.767 46.0446 21.7413 46.0573C21.6383 46.0954 21.5864 46.1981 21.6245 46.3011L22.3863 48.4136C22.3862 48.4264 22.3862 48.4264 22.399 48.4393L24.055 51.8032C24.2462 52.177 24.6178 52.423 25.042 52.4249L25.7103 52.4278C26.3145 52.4305 26.818 51.9312 26.8207 51.3268L26.8213 51.1854C26.8218 51.0825 26.7322 50.9921 26.6294 50.9916C26.5265 50.9912 26.4362 51.0808 26.4357 51.1836L26.4351 51.3251C26.4333 51.7238 26.1105 52.0438 25.7121 52.042L25.0437 52.0391C24.7738 52.0379 24.5174 51.8824 24.4028 51.6375L22.7468 48.2866L21.9978 46.1742C21.9468 46.0968 21.8827 46.0451 21.8056 46.0448Z" fill="#969696"/>
<path d="M19.2189 17.8828L10.3887 17.8434L10.3918 17.149L19.222 17.1883L19.2189 17.8828Z" fill="#C9C9C9"/>
<path d="M11.5863 52.0306C11.5863 52.0306 12.1456 53.4348 14.6392 53.4459C17.1327 53.457 17.6274 52.0575 17.6274 52.0575L11.5863 52.0306Z" fill="#FFF4E3"/>
<path d="M17.7494 50.5918L11.5669 50.5643C11.3613 50.5633 11.1934 50.7298 11.1925 50.9355L11.1887 51.7971C11.1878 52.0029 11.3541 52.1708 11.5598 52.1717L17.7422 52.1993C17.9479 52.2002 18.1157 52.0338 18.1166 51.828L18.1205 50.9664C18.1214 50.7607 17.955 50.5927 17.7494 50.5918Z" fill="#D3D3D3"/>
<path d="M19.669 6.31109L20.7101 6.31573C21.2114 6.31797 21.6081 6.71839 21.6058 7.21992C21.6036 7.72145 21.2034 8.11832 20.7021 8.11609L19.661 8.11145C19.1597 8.10921 18.763 7.70879 18.7652 7.20726C18.7675 6.70573 19.1677 6.30886 19.669 6.31109Z" fill="#B2B2B2"/>
<path d="M20.1473 5.70852L20.2373 5.70892C20.8414 5.71161 21.3277 6.20246 21.325 6.80686L21.3244 6.93546C21.3225 7.35983 20.974 7.69263 20.5627 7.6908L19.8172 7.68748C19.393 7.68559 19.0604 7.33689 19.0622 6.92538L19.0628 6.79678C19.0526 6.19232 19.5432 5.70583 20.1473 5.70852Z" fill="#FF772C"/>
<path d="M10.0421 6.26812L9.00102 6.26348C8.49974 6.26125 8.09951 6.65812 8.09727 7.15965C8.09504 7.66118 8.49172 8.06161 8.993 8.06384L10.0341 8.06848C10.5354 8.07072 10.9356 7.67384 10.9379 7.17231C10.9401 6.67078 10.5306 6.2703 10.0421 6.26812Z" fill="#B2B2B2"/>
<path d="M9.56926 5.66149L9.47929 5.66109C8.87518 5.6584 8.38458 6.14489 8.38189 6.74929L8.38131 6.87789C8.37942 7.30226 8.72497 7.63816 9.13628 7.63999L9.88177 7.64332C10.3059 7.64521 10.6417 7.29948 10.6435 6.88797L10.6441 6.75938C10.6596 6.15503 10.1734 5.66418 9.56926 5.66149Z" fill="#FF772C"/>
<path d="M9.37377 6.26484L9.32236 6.26461C8.98817 6.26312 8.71705 6.53197 8.71556 6.86632L8.71527 6.93062C8.71424 7.1621 8.90618 7.35585 9.13754 7.35689L9.54885 7.35872C9.78021 7.35975 9.97387 7.16771 9.9749 6.93624L9.97518 6.87194C9.97667 6.53759 9.70796 6.26633 9.37377 6.26484Z" fill="#FF9F40"/>
<path d="M20.0037 6.31233L19.9522 6.3121C19.6181 6.31061 19.3469 6.57946 19.3454 6.91381L19.3452 6.97811C19.3441 7.20958 19.5361 7.40334 19.7674 7.40437L20.1787 7.4062C20.4101 7.40724 20.6037 7.2152 20.6048 6.98372L20.6051 6.91942C20.6066 6.58507 20.3378 6.31382 20.0037 6.31233Z" fill="#FF9F40"/>
<path d="M6.94977 45.4256C6.79553 45.4249 6.64083 45.5271 6.58873 45.6812L5.84686 47.7483L5.65183 48.249C5.59984 48.3773 5.45817 48.441 5.31701 48.3889L2.01932 47.114C1.95517 47.088 1.90398 47.0363 1.86571 46.9718C1.64938 46.4822 1.08487 46.2482 0.582842 46.4131L0.363991 46.4893C0.158051 46.5527 0.0542501 46.7709 0.1176 46.9769C0.180949 47.1829 0.398997 47.2868 0.604937 47.2234L0.823788 47.1472C0.95255 47.0964 1.1065 47.1613 1.15734 47.2902C1.27193 47.535 1.47673 47.7288 1.73334 47.8329L5.03102 49.1078C5.55709 49.3159 6.14955 49.0485 6.35755 48.5222L6.55265 48.0087C6.55265 48.0087 6.55265 48.0087 6.55271 47.9958L7.29457 45.9287C7.37261 45.7232 7.25791 45.5041 7.06539 45.439C7.03969 45.4388 6.98833 45.4257 6.94977 45.4256Z" fill="#0C0F11"/>
<path d="M22.4121 45.4943C22.3735 45.4941 22.3221 45.5067 22.2834 45.5194C22.0774 45.5957 21.9736 45.8138 22.0499 46.0071L22.7733 48.0807C22.7733 48.0807 22.7733 48.0807 22.7732 48.0936L22.9638 48.6088C23.1671 49.137 23.7571 49.4097 24.285 49.2063L27.5939 47.9608C27.8515 47.859 28.058 47.6671 28.1747 47.4232C28.2396 47.2949 28.3813 47.2313 28.5096 47.2833L28.7277 47.3614C28.9331 47.4266 29.1521 47.3247 29.2172 47.1192C29.2824 46.9138 29.1806 46.6947 28.9752 46.6295L28.757 46.5514C28.2437 46.3819 27.6899 46.6109 27.4692 47.0986C27.4432 47.1628 27.3788 47.2139 27.3144 47.2394L24.0054 48.4849C23.8767 48.5358 23.7227 48.4708 23.6719 48.3419L23.4813 47.8396L22.7579 45.7659C22.7072 45.5985 22.5663 45.495 22.4121 45.4943Z" fill="#0C0F11"/>
<path d="M26.509 43.3137C26.509 43.3137 28.6072 45.5221 28.0773 46.1627C27.5475 46.8034 25.7952 47.7472 25.4233 47.5527C25.0514 47.3581 24.1591 45.6823 24.3828 44.5259C25.4149 43.6689 26.509 43.3137 26.509 43.3137Z" fill="#C68F7C"/>
<path d="M6.67484 38.0042C6.46988 37.8489 6.27782 37.6809 6.11148 37.513L4.74435 44.3226C4.79559 44.3614 4.83398 44.4002 4.88522 44.439C5.09857 45.5974 4.19138 47.2651 3.81777 47.4563C3.44417 47.6476 1.70036 46.6882 1.17624 46.0428C0.843884 45.6298 1.59408 44.5787 2.17557 43.8868C2.10768 41.8161 2.02049 35.4243 3.39407 32.9356C5.05265 29.9466 9.96871 31.486 10.0333 34.2897C10.098 37.0935 8.28869 39.2845 6.67484 38.0042Z" fill="#C68F7C"/>
<path d="M27.0695 44.6535C27.0695 44.6535 27.6092 36.0397 25.9773 33.0361C24.3454 30.0324 19.4158 31.5279 19.3262 34.331C19.2366 37.1341 21.0134 39.341 22.6386 38.0751C24.2766 36.8222 25.003 35.3337 25.003 35.3337L22.817 35.5297L24.651 45.1056L27.0695 44.6535Z" fill="#C68F7C"/>
<path d="M23.2307 37.7435C22.6631 38.2039 22.1733 38.4975 21.7356 38.6627C20.2267 39.7877 17.6141 40.5219 14.645 40.5087C11.6887 40.4955 9.0957 39.7381 7.58405 38.5997C7.13493 38.4305 6.63497 38.1325 6.07154 37.6541C6.07154 37.6541 2.9421 36.1227 3.31747 32.6522C3.54251 31.1872 5.79476 30.5413 7.68191 31.0642L8.49103 28.3286C8.83295 26.594 11.4868 25.2427 14.713 25.2571C17.9392 25.2715 20.5809 26.6464 20.9073 28.3839L21.692 31.1266C23.5838 30.6206 25.8173 31.2993 26.0293 32.7534C26.3737 36.24 23.2307 37.7435 23.2307 37.7435Z" fill="#1E2A47"/>
<path d="M17.5464 38.3999C17.5464 38.3999 17.5851 38.3615 17.6625 38.2976C17.598 38.3616 17.5464 38.3999 17.5464 38.3999Z" fill="#006970"/>
<path d="M18.2957 49.1925C17.6896 49.6399 16.4397 50.3417 14.6017 50.3335C12.7637 50.3253 11.52 49.6124 10.9179 49.1597C10.6617 48.9656 10.5089 48.6563 10.5103 48.3348L10.5173 46.7659L14.6236 48.3017L18.7434 46.8026L18.7364 48.3715C18.7093 48.6929 18.5537 49.0008 18.2957 49.1925Z" fill="#121619"/>
<path d="M14.6688 35.2492C13.2549 35.2429 12.093 36.3822 12.0867 37.8096L12.0696 41.6418C12.0633 43.0564 13.2021 44.2189 14.6288 44.2252C16.0426 44.2315 17.2045 43.0922 17.2109 41.6647L17.228 37.8326C17.2214 36.4179 16.0827 35.2555 14.6688 35.2492Z" fill="#C68F7C"/>
<path d="M17.1284 37.1633C17.1789 37.3693 17.2164 37.601 17.2154 37.8324L17.2061 39.9157L12.0791 39.5713L12.086 38.0153C12.0859 38.0282 13.9453 36.1461 17.1284 37.1633Z" fill="#C68F7C"/>
<path d="M14.6587 37.5252C17.8744 37.5396 20.4696 40.1593 20.4553 43.3766C20.4409 46.5939 17.8225 49.1905 14.6067 49.1761C11.391 49.1618 8.79581 46.542 8.81015 43.3247C8.82449 40.1074 11.443 37.5109 14.6587 37.5252Z" fill="#FFA726"/>
<path d="M14.2434 0.808419L15.5288 0.814148C16.1457 0.816898 16.6448 1.32066 16.642 1.93793C16.6393 2.5552 16.1358 3.05449 15.5188 3.05174L14.2335 3.04602C13.6165 3.04326 13.1175 2.5395 13.1202 1.92223C13.123 1.30496 13.6265 0.805668 14.2434 0.808419Z" fill="#B2B2B2"/>
<path d="M14.8258 0.0648875L14.9287 0.0653458C15.6741 0.068669 16.2756 0.675767 16.2722 1.42163L16.2715 1.57595C16.2693 2.09033 15.8432 2.51281 15.3291 2.51052L14.4036 2.50639C13.8895 2.5041 13.4672 2.07784 13.4695 1.56346L13.4702 1.40914C13.4735 0.663277 14.0803 0.0615643 14.8258 0.0648875Z" fill="#FFA726"/>
<path d="M14.6946 0.668706L14.7589 0.668993C15.2345 0.671113 15.6184 1.05862 15.6162 1.53443L15.6158 1.62445C15.6143 1.9588 15.3433 2.2148 15.0219 2.21336L14.4435 2.21079C14.1094 2.2093 13.8535 1.93809 13.8549 1.6166L13.8553 1.52658C13.8317 1.05065 14.2191 0.666586 14.6946 0.668706Z" fill="#FF772C"/>
</svg>
