<svg width="47" height="47" viewBox="0 0 47 47" fill="none" xmlns="http://www.w3.org/2000/svg">
<g filter="url(#filter0_d_138_673)">
<rect x="4" width="39" height="39" rx="5" fill="white"/>
</g>
<path d="M18.0312 8.80688H30.9216C32.0003 8.80688 32.8747 9.68133 32.8747 10.76V23.6504C32.8747 24.729 32.0003 25.6035 30.9216 25.6035H18.0312C16.9526 25.6035 16.0781 24.729 16.0781 23.6504V10.76C16.0781 9.68129 16.9526 8.80688 18.0312 8.80688Z" fill="#FFEC80"/>
<path d="M24.4765 11.7001L22.1328 13.3799V8.80688H26.8202V13.3799L24.4765 11.7001Z" fill="white"/>
<path d="M17.0358 29.217H23.7077C26.1869 29.217 28.6324 28.6421 30.852 27.5376L34.6949 25.6255C35.4956 25.227 35.7593 24.2126 35.254 23.4746C34.8584 22.8967 34.1105 22.6773 33.4654 22.9499L28.1886 25.1792C27.8645 25.3161 27.5163 25.3866 27.1645 25.3866H26.7698H22.8847H27.0432C27.8308 25.3866 28.4691 24.7482 28.4691 23.9607C28.4691 23.1732 27.8307 22.5348 27.0432 22.5348H24.1257L22.4221 21.7801C21.7515 21.4831 21.0262 21.3296 20.2928 21.3296C19.1245 21.3296 17.9875 21.7065 17.0506 22.4043L11.4883 26.561L17.0358 29.217Z" fill="#EFB789"/>
<path d="M11.4883 20.8672H17.0541V30.1932H11.4883V20.8672Z" fill="#FFA726"/>
<path d="M29.5751 20.1242C29.8447 20.1242 30.0634 19.9056 30.0634 19.636C30.0634 19.3664 29.8447 19.1477 29.5751 19.1477H26.292C26.0224 19.1477 25.8037 19.3664 25.8037 19.636C25.8037 19.9056 26.0224 20.1242 26.292 20.1242H29.5751Z" fill="black"/>
<path d="M35.6569 23.1988C35.1502 22.4586 34.1983 22.1595 33.3629 22.4658V10.76C33.3629 9.4138 32.2677 8.3186 30.9216 8.3186H18.0311C16.685 8.3186 15.5898 9.4138 15.5898 10.76V13.3799C15.5898 13.6495 15.8084 13.8681 16.078 13.8681C16.3477 13.8681 16.5663 13.6495 16.5663 13.3799V10.76C16.5663 9.95227 17.2234 9.29515 18.0311 9.29515H21.6444V13.3798C21.6444 13.5629 21.7468 13.7305 21.9096 13.8142C22.0725 13.8978 22.2684 13.8833 22.4171 13.7767L24.4764 12.3007L26.5356 13.7767C26.6201 13.8373 26.7199 13.8681 26.8201 13.8681C26.8963 13.8681 26.9728 13.8503 27.0431 13.8142C27.2059 13.7305 27.3083 13.5629 27.3083 13.3798V9.29515H30.9216C31.7293 9.29515 32.3864 9.95227 32.3864 10.76V22.8758L28.9194 24.3405C28.9443 24.2177 28.9574 24.0908 28.9574 23.9608C28.9574 22.9054 28.0987 22.0467 27.0432 22.0467H24.229L22.6199 21.3338C21.8824 21.0071 21.0995 20.8415 20.2928 20.8415C19.3372 20.8415 18.3873 21.0793 17.5424 21.5214V20.8672C17.5424 20.5976 17.3237 20.379 17.0541 20.379H16.5663V17.7743C16.5663 17.5046 16.3477 17.286 16.078 17.286C15.8084 17.286 15.5898 17.5046 15.5898 17.7743V20.379H11.4883C11.2186 20.379 11 20.5976 11 20.8672V30.1933C11 30.4629 11.2186 30.6815 11.4883 30.6815H17.0541C17.3237 30.6815 17.5424 30.4629 17.5424 30.1933V29.7054H23.7077C26.2487 29.7054 28.7944 29.107 31.0696 27.9749L34.9124 26.0628C35.4206 25.8098 35.794 25.3497 35.9368 24.8004C36.0797 24.2509 35.9776 23.6672 35.6569 23.1988ZM26.3318 12.4291L24.7608 11.3031C24.6758 11.2422 24.5761 11.2117 24.4764 11.2117C24.3766 11.2117 24.2769 11.2422 24.1919 11.3031L22.6209 12.4291V9.29515H26.3318V12.4291ZM11.9765 29.705V21.3555H16.5658V29.705H11.9765ZM34.9917 24.5546C34.9199 24.8304 34.7325 25.0614 34.4773 25.1884L30.6345 27.1005C28.4938 28.1657 26.0986 28.7288 23.7077 28.7288H17.5424V22.6556C18.3514 22.1143 19.3185 21.818 20.2928 21.818C20.9624 21.818 21.6122 21.9555 22.2244 22.2266L23.928 22.9813C23.9903 23.0089 24.0576 23.0231 24.1258 23.0231H27.0433C27.5603 23.0231 27.9809 23.4437 27.9809 23.9607C27.9809 24.4778 27.5603 24.8984 27.0433 24.8984H22.8848C22.6152 24.8984 22.3965 25.1171 22.3965 25.3867C22.3965 25.6563 22.6152 25.875 22.8848 25.875H27.1646C27.5839 25.875 27.9923 25.7922 28.3786 25.629L33.6555 23.3997C34.0849 23.2181 34.5878 23.3658 34.8511 23.7505C35.0122 23.9857 35.0634 24.2788 34.9917 24.5546Z" fill="black"/>
<path d="M16.0781 16.0657C16.2065 16.0657 16.3325 16.0134 16.4233 15.9226C16.5146 15.8313 16.5664 15.7058 16.5664 15.5774C16.5664 15.4484 16.5146 15.323 16.4233 15.2317C16.3325 15.1409 16.2065 15.0891 16.0781 15.0891C15.9497 15.0891 15.8237 15.1409 15.7329 15.2317C15.6421 15.323 15.5898 15.4484 15.5898 15.5774C15.5898 15.7058 15.642 15.8318 15.7329 15.9226C15.8237 16.0134 15.9497 16.0657 16.0781 16.0657Z" fill="black"/>
<defs>
<filter id="filter0_d_138_673" x="0" y="0" width="47" height="47" filterUnits="userSpaceOnUse" color-interpolation-filters="sRGB">
<feFlood flood-opacity="0" result="BackgroundImageFix"/>
<feColorMatrix in="SourceAlpha" type="matrix" values="0 0 0 0 0 0 0 0 0 0 0 0 0 0 0 0 0 0 127 0" result="hardAlpha"/>
<feOffset dy="4"/>
<feGaussianBlur stdDeviation="2"/>
<feColorMatrix type="matrix" values="0 0 0 0 0 0 0 0 0 0 0 0 0 0 0 0 0 0 0.25 0"/>
<feBlend mode="normal" in2="BackgroundImageFix" result="effect1_dropShadow_138_673"/>
<feBlend mode="normal" in="SourceGraphic" in2="effect1_dropShadow_138_673" result="shape"/>
</filter>
</defs>
</svg>
