<svg width="108" height="108" viewBox="0 0 108 108" fill="none" xmlns="http://www.w3.org/2000/svg">
<circle cx="53.75" cy="49.75" r="23" fill="#191D31" fill-opacity="0.15"/>
<g filter="url(#filter0_d_206_278)">
<circle cx="53.75" cy="49.75" r="13" fill="#191D31"/>
<circle cx="53.75" cy="49.75" r="13" stroke="white" stroke-width="1.5"/>
</g>
<path d="M49.3135 47.729L54.2756 45.2417C57.6167 43.5753 58.982 44.9406 57.3115 48.2776L56.5732 49.7501L57.3115 51.2227C58.982 54.5596 57.6126 55.929 54.2756 54.2585L49.3135 51.7795C47.0903 50.6617 47.0861 48.8427 49.3135 47.729ZM51.4007 50.0801L54.5438 50.0883C54.6675 50.0883 54.7747 50.0388 54.8531 49.9605C54.9315 49.8821 54.981 49.7749 54.981 49.6511C54.981 49.4119 54.783 49.2139 54.5438 49.2139L51.4007 49.2056C51.1614 49.2056 50.9634 49.4036 50.9634 49.6429C50.9634 49.8821 51.1614 50.0801 51.4007 50.0801Z" fill="white"/>
<defs>
<filter id="filter0_d_206_278" x="0" y="0" width="107.5" height="107.5" filterUnits="userSpaceOnUse" color-interpolation-filters="sRGB">
<feFlood flood-opacity="0" result="BackgroundImageFix"/>
<feColorMatrix in="SourceAlpha" type="matrix" values="0 0 0 0 0 0 0 0 0 0 0 0 0 0 0 0 0 0 127 0" result="hardAlpha"/>
<feOffset dy="4"/>
<feGaussianBlur stdDeviation="20"/>
<feComposite in2="hardAlpha" operator="out"/>
<feColorMatrix type="matrix" values="0 0 0 0 0.0980392 0 0 0 0 0.113725 0 0 0 0 0.192157 0 0 0 0.15 0"/>
<feBlend mode="normal" in2="BackgroundImageFix" result="effect1_dropShadow_206_278"/>
<feBlend mode="normal" in="SourceGraphic" in2="effect1_dropShadow_206_278" result="shape"/>
</filter>
</defs>
</svg>
