<svg width="40" height="20" viewBox="0 0 40 20" fill="none" xmlns="http://www.w3.org/2000/svg">
<g clip-path="url(#clip0_33_562)">
<path d="M1.18555 12.7189L1.63331 12.2712V11.9001V11.2668V10V9.36669V1.13331C1.63331 0.783739 1.91638 0.5 2.26662 0.5H30.7666C30.9731 0.5 31.1669 0.600715 31.2853 0.770453L35.6693 7.03288C36.402 7.64088 37.0981 8.36095 37.6041 9.36669L38.0823 10.6334C38.2121 11.1186 38.3096 11.6493 38.3521 12.256L38.8145 12.7189C38.9335 12.8374 39 12.9989 39 13.1667V14.4334C39 14.6012 38.9335 14.7627 38.8145 14.8811L38.3667 15.3289V16.3334C38.3667 16.683 38.0836 16.9667 37.7334 16.9667H35.2C34.8498 16.9667 34.5667 16.683 34.5667 16.3334C34.5667 13.8887 32.5774 11.9001 30.1334 11.9001C27.6894 11.9001 25.7001 13.8888 25.7001 16.3334C25.7001 16.683 25.417 16.9667 25.0668 16.9667H14.9335C14.5832 16.9667 14.3001 16.683 14.3001 16.3334C14.3001 13.8887 12.3109 11.9001 9.86684 11.9001C7.42282 11.9001 5.43353 13.8888 5.43353 16.3334C5.43353 16.683 5.15046 16.9667 4.80022 16.9667H2.26691C1.91668 16.9667 1.6336 16.683 1.6336 16.3334V15.3289L1.18584 14.8811C1.0668 14.7627 1.0003 14.6012 1.0003 14.4334V13.1667C1 12.9988 1.0665 12.8373 1.18555 12.7189ZM25.0667 6.2C25.0667 6.54957 25.3498 6.83331 25.7 6.83331H32.6667C32.9004 6.83331 33.1151 6.70476 33.2253 6.49888C33.3355 6.29307 33.3228 6.04288 33.1936 5.84909L30.6603 2.04909C30.5425 1.87238 30.3448 1.76662 30.1333 1.76662H25.7C25.3498 1.76662 25.0667 2.05036 25.0667 2.39993V6.2V6.2Z" stroke="black"/>
<path d="M1.18555 12.7189L1.63331 12.2712V11.9001V11.2668V10V9.36669V1.13331C1.63331 0.783739 1.91638 0.5 2.26662 0.5H30.7666C30.9731 0.5 31.1669 0.600715 31.2853 0.770453L35.6693 7.03288C36.402 7.64088 37.0981 8.36095 37.6041 9.36669L38.0823 10.6334C38.2121 11.1186 38.3096 11.6493 38.3521 12.256L38.8145 12.7189C38.9335 12.8374 39 12.9989 39 13.1667V14.4334C39 14.6012 38.9335 14.7627 38.8145 14.8811L38.3667 15.3289V16.3334C38.3667 16.683 38.0836 16.9667 37.7334 16.9667H35.2C34.8498 16.9667 34.5667 16.683 34.5667 16.3334C34.5667 13.8887 32.5774 11.9001 30.1334 11.9001C27.6894 11.9001 25.7001 13.8888 25.7001 16.3334C25.7001 16.683 25.417 16.9667 25.0668 16.9667H14.9335C14.5832 16.9667 14.3001 16.683 14.3001 16.3334C14.3001 13.8887 12.3109 11.9001 9.86684 11.9001C7.42282 11.9001 5.43353 13.8888 5.43353 16.3334C5.43353 16.683 5.15046 16.9667 4.80022 16.9667H2.26691C1.91668 16.9667 1.6336 16.683 1.6336 16.3334V15.3289L1.18584 14.8811C1.0668 14.7627 1.0003 14.6012 1.0003 14.4334V13.1667C1 12.9988 1.0665 12.8373 1.18555 12.7189ZM25.0667 6.2C25.0667 6.54957 25.3498 6.83331 25.7 6.83331H32.6667C32.9004 6.83331 33.1151 6.70476 33.2253 6.49888C33.3355 6.29307 33.3228 6.04288 33.1936 5.84909L30.6603 2.04909C30.5425 1.87238 30.3448 1.76662 30.1333 1.76662H25.7C25.3498 1.76662 25.0667 2.05036 25.0667 2.39993V6.2V6.2Z" stroke="black"/>
<circle cx="10" cy="16.5" r="3" stroke="black"/>
<circle cx="30" cy="16.5" r="3" stroke="black"/>
</g>
<defs>
<clipPath id="clip0_33_562">
<rect width="40" height="20" fill="white" transform="matrix(-1 0 0 1 40 0)"/>
</clipPath>
</defs>
</svg>
